<svg width="20" height="26" viewBox="0 0 20 26" fill="none" xmlns="http://www.w3.org/2000/svg">
<path d="M4.01103 23.6505C2.79175 22.2943 1.57253 20.884 0.796602 19.2024C0.020727 17.4124 -0.200974 15.3511 0.186989 13.3983C0.574953 11.4455 1.46165 9.60122 2.73637 8.02815C2.62554 9.38427 3.12433 10.7946 4.06647 11.8253C3.51224 9.22154 4.39899 6.40083 6.17244 4.33957C7.94589 2.27831 10.3844 0.922134 12.9338 0C11.6591 1.30186 11.4928 3.36312 11.9916 5.09897C12.4904 6.83476 13.5434 8.35362 14.4856 9.92668C15.4277 11.4997 16.3145 13.1271 16.3699 14.9171C16.8687 13.995 17.4229 13.0728 17.7554 12.0422C18.088 11.0115 18.2542 9.92668 17.9771 8.89603C18.9747 10.0894 19.5289 11.2828 19.806 12.8016C20.0831 14.3205 20.0277 15.8935 19.8615 17.4124C19.6398 19.094 19.1964 20.8298 18.2543 22.2401C17.1459 23.9217 15.3724 25.115 13.4327 25.7659C9.99648 26.3627 6.61579 25.8745 4.01103 23.6505Z" fill="#F3705A"/>
<path d="M7.6901 25.6603C12.2699 27.3915 16.7939 22.144 14.2806 18.0867C14.2806 18.0326 14.2247 18.0326 14.2247 17.9786C14.4481 20.1965 13.8896 21.8194 12.8284 22.7391C13.3869 21.4408 12.9959 19.9261 12.3257 18.6277C11.6555 17.3835 10.706 16.2475 9.97995 15.0573C9.25386 13.8131 8.69537 12.4065 9.03048 11C7.69004 11.9738 6.74058 13.4344 6.3496 15.0032C5.95862 16.572 6.18205 18.3031 6.90814 19.7638C6.07036 19.1687 5.45601 18.195 5.40014 17.1671C4.5065 18.195 3.94801 19.5474 4.00383 20.8998C4.00388 23.0096 5.73525 24.903 7.6901 25.6603Z" fill="#FFD15C"/>
</svg>
