<svg width="56" height="46" viewBox="0 0 56 46" fill="none" xmlns="http://www.w3.org/2000/svg">
<rect x="0.5" y="0.5" width="17.4" height="6.88571" stroke="#FFED00"/>
<rect x="0.5" y="15.7457" width="17.4" height="6.88571" stroke="#FFED00"/>
<rect x="0.5" y="30.9915" width="17.4" height="6.88571" stroke="#FFED00"/>
<rect x="18.6377" y="0.5" width="17.4" height="6.88571" stroke="#FFED00"/>
<rect x="18.6377" y="15.7457" width="17.4" height="6.88571" stroke="#FFED00"/>
<rect x="18.6377" y="30.9915" width="17.4" height="6.88571" stroke="#FFED00"/>
<rect x="0.5" y="8.12286" width="8.2" height="6.88571" stroke="#FFED00"/>
<rect x="0.5" y="23.3685" width="8.2" height="6.88571" stroke="#FFED00"/>
<rect x="0.5" y="38.6143" width="8.2" height="6.88571" stroke="#FFED00"/>
<rect x="45.7109" y="8.12286" width="8.46286" height="6.88571" stroke="#FFED00"/>
<rect x="45.7109" y="23.3685" width="8.46286" height="6.88571" stroke="#FFED00"/>
<rect x="45.7109" y="38.6143" width="8.46286" height="6.88571" stroke="#FFED00"/>
<rect x="36.7744" y="0.5" width="17.4" height="6.88571" stroke="#FFED00"/>
<rect x="36.7744" y="15.7457" width="17.4" height="6.88571" stroke="#FFED00"/>
<rect x="36.7744" y="30.9915" width="17.4" height="6.88571" stroke="#FFED00"/>
<rect x="9.4375" y="8.12286" width="17.4" height="6.88571" stroke="#FFED00"/>
<rect x="9.4375" y="23.3685" width="17.4" height="6.88571" stroke="#FFED00"/>
<rect x="9.4375" y="38.6143" width="17.4" height="6.88571" stroke="#FFED00"/>
<rect x="27.5742" y="8.12286" width="17.4" height="6.88571" stroke="#FFED00"/>
<rect x="27.5742" y="23.3685" width="17.4" height="6.88571" stroke="#FFED00"/>
<rect x="27.5742" y="38.6143" width="17.4" height="6.88571" stroke="#FFED00"/>
<path d="M17.1143 45V15.8966L32.8918 1H54.1143V45H17.1143Z" fill="white" stroke="#C8281C" stroke-width="2"/>
<rect x="27.1143" y="10" width="2" height="1" fill="#C8281C"/>
<rect x="21.1143" y="16" width="1" height="2" fill="#C8281C"/>
<rect x="27.1143" y="23" width="2" height="2" fill="#C8281C"/>
<rect x="19.1143" y="29" width="2" height="2" fill="#C8281C"/>
<rect x="26.1143" y="35" width="2" height="2" fill="#C8281C"/>
<rect x="19.1143" y="41" width="2" height="2" fill="#C8281C"/>
<rect x="39.1143" y="10" width="2" height="1" fill="#C8281C"/>
<rect x="33.1143" y="16" width="1" height="2" fill="#C8281C"/>
<rect x="39.1143" y="23" width="2" height="2" fill="#C8281C"/>
<rect x="31.1143" y="29" width="2" height="2" fill="#C8281C"/>
<rect x="38.1143" y="35" width="2" height="2" fill="#C8281C"/>
<rect x="31.1143" y="41" width="2" height="2" fill="#C8281C"/>
<rect x="51.1143" y="10" width="2" height="1" fill="#C8281C"/>
<rect x="44.1143" y="16" width="3" height="2" fill="#C8281C"/>
<rect x="51.1143" y="23" width="2" height="2" fill="#C8281C"/>
<rect x="44.1143" y="29" width="1" height="2" fill="#C8281C"/>
<rect x="50.1143" y="35" width="1" height="2" fill="#C8281C"/>
<rect x="44.1143" y="41" width="1" height="2" fill="#C8281C"/>
</svg>
