<svg width="30" height="14" viewBox="0 0 30 14" fill="none" xmlns="http://www.w3.org/2000/svg">
<path d="M29.4021 0H10.0376C9.70751 0 9.43997 0.267539 9.43997 0.597597V1.72465H3.74408C3.41402 1.72465 3.14648 1.99219 3.14648 2.32224C3.14648 2.6523 3.41402 2.91984 3.74408 2.91984H9.43997V10.6807H6.03562C5.70556 10.6807 5.43803 10.9482 5.43803 11.2783C5.43803 11.6083 5.70556 11.8759 6.03562 11.8759H9.43997V13.0029C9.43997 13.333 9.70751 13.6005 10.0376 13.6005H29.4021C29.7322 13.6005 29.9997 13.333 29.9997 13.0029V0.597597C29.9997 0.267539 29.7322 0 29.4021 0ZM27.9279 1.19519L19.7207 7.93259L11.5509 1.19519H27.9279ZM28.8045 12.4054H10.6352V1.9892L19.3397 9.16751C19.4501 9.25851 19.5849 9.30409 19.7199 9.30409C19.8544 9.30409 19.9889 9.25886 20.099 9.16839L28.8045 2.02195V12.4054Z" fill="white"/>
<path d="M7.01209 6.14209H0.597598C0.267539 6.14209 0 6.40963 0 6.73969C0 7.06975 0.267539 7.33728 0.597598 7.33728H7.01209C7.34215 7.33728 7.60969 7.06975 7.60969 6.73969C7.60975 6.40963 7.34215 6.14209 7.01209 6.14209Z" fill="white"/>
<path d="M4.06348 10.6807H3.74408C3.41402 10.6807 3.14648 10.9482 3.14648 11.2783C3.14648 11.6083 3.41402 11.8759 3.74408 11.8759H4.06348C4.39354 11.8759 4.66107 11.6083 4.66107 11.2783C4.66107 10.9482 4.39354 10.6807 4.06348 10.6807Z" fill="white"/>
</svg>
