<svg width="183" height="181" viewBox="0 0 183 181" fill="none" xmlns="http://www.w3.org/2000/svg">
<path d="M88.8894 9.44995V168.609C103.116 176.468 141.495 187.472 181.198 168.609V9.44995" stroke="#2B2A29" stroke-width="3"/>
<path d="M181.163 9.97495C181.163 10.1463 181.087 10.4639 180.625 10.9398C180.157 11.4213 179.39 11.9579 178.271 12.5148C176.039 13.6259 172.712 14.6689 168.478 15.5605C160.034 17.3385 148.298 18.4499 135.288 18.4499C122.277 18.4499 110.542 17.3385 102.098 15.5605C97.8631 14.6689 94.5361 13.6259 92.3041 12.5148C91.1854 11.9579 90.4188 11.4213 89.9508 10.9398C89.4883 10.4639 89.4127 10.1463 89.4127 9.97495C89.4127 9.80362 89.4883 9.48597 89.9508 9.01008C90.4188 8.52861 91.1854 7.99196 92.3041 7.43507C94.5361 6.32398 97.8631 5.28099 102.098 4.38941C110.542 2.61144 122.277 1.5 135.288 1.5C148.298 1.5 160.034 2.61144 168.478 4.38941C172.712 5.28099 176.039 6.32398 178.271 7.43507C179.39 7.99196 180.157 8.52861 180.625 9.01008C181.087 9.48597 181.163 9.80362 181.163 9.97495Z" stroke="#2B2A29" stroke-width="3"/>
<rect x="1.5" y="119.099" width="87.3546" height="47.9248" stroke="#2B2A29" stroke-width="3"/>
<rect x="27.3854" y="68.6997" width="61.4693" height="48.9748" stroke="#2B2A29" stroke-width="3"/>
<path d="M89.3779 119.174C92.8025 120.301 97.3673 121.525 102.773 122.627M181.198 119.174C177.344 120.555 173.423 121.697 169.476 122.627M89.3779 66.6747C92.8025 67.8016 97.3673 69.0253 102.773 70.1276M181.198 66.6747C177.344 68.0557 173.423 69.197 169.476 70.1276M120.636 17.325V72.7973M120.636 72.7973C125.886 73.3107 131.468 73.6229 137.241 73.6316M120.636 72.7973C114.071 72.1553 108.025 71.1987 102.773 70.1276M153.847 17.325L153.628 72.7973M153.628 72.7973C148.076 73.3885 142.577 73.6397 137.241 73.6316M153.628 72.7973C158.895 72.2364 164.209 71.3695 169.476 70.1276M137.241 73.6316V126.131M137.241 126.131C131.468 126.123 125.886 125.81 120.636 125.297M137.241 126.131C142.577 126.139 148.076 125.888 153.628 125.297M169.476 70.1276V122.627M169.476 122.627C164.209 123.869 158.895 124.736 153.628 125.297M102.773 70.1276L102.773 122.627M102.773 122.627C108.025 123.698 114.071 124.655 120.636 125.297M120.636 125.297V179.024M153.628 125.297L153.847 179.024" stroke="#2B2A29" stroke-width="2"/>
<path d="M46.3984 68.7747V117.074H69.8417V68.7747" stroke="#2B2A29" stroke-width="3"/>
<path d="M35.6534 68.7747V117.074H58.12V68.7747H80.5866V117.074" stroke="#2B2A29"/>
<line x1="11.2449" y1="133.998" x2="11.2449" y2="152.774" stroke="#2B2A29"/>
<line x1="10.7583" y1="151.274" x2="36.1554" y2="151.5" stroke="#2B2A29" stroke-width="3"/>
<line x1="10.7451" y1="132.498" x2="36.1422" y2="132.5" stroke="#2B2A29" stroke-width="3"/>
<path d="M35.6421 152V132" stroke="#2B2A29"/>
<line x1="50.6421" y1="133.998" x2="50.6421" y2="152.774" stroke="#2B2A29"/>
<line x1="50.1554" y1="151.274" x2="75.5525" y2="151.5" stroke="#2B2A29" stroke-width="3"/>
<line x1="50.1422" y1="132.498" x2="75.5393" y2="132.5" stroke="#2B2A29" stroke-width="3"/>
<path d="M113.142 17.5L111.142 177M162.642 17.5V70.5V175M131.642 73.5V126M143.142 73.5V126" stroke="#2B2A29"/>
<path d="M75.0392 152V132" stroke="#2B2A29"/>
</svg>
