<svg width="20" height="20" viewBox="0 0 20 20" fill="none" xmlns="http://www.w3.org/2000/svg">
<path d="M12.946 4.98793C8.61242 5.0146 4.98047 8.5355 4.98047 13.0028C4.98047 14.0554 5.86114 14.9981 7.00069 14.9981C8.11466 14.9981 9.02095 14.0918 9.02095 12.9778C9.02095 11.857 8.09937 10.9351 6.95908 10.9587C7.59488 9.08605 9.07914 7.60176 10.9518 6.96595C10.9283 8.10405 11.8476 9.02782 12.971 9.02782C14.085 9.02782 14.9912 8.12153 14.9912 7.00756C14.9912 5.88616 14.0726 4.97506 12.946 4.98793Z" fill="white"/>
<path d="M17.0694 2.93051C13.1624 -0.976544 6.83816 -0.977131 2.93056 2.93051C-0.976539 6.83753 -0.977165 13.1618 2.93056 17.0694C6.83761 20.9765 13.1618 20.9771 17.0694 17.0694C20.9765 13.1624 20.9771 6.83812 17.0694 2.93051ZM9.99996 18.3553C5.39281 18.3553 1.6446 14.6071 1.6446 9.99996C1.6446 5.39281 5.39281 1.64464 9.99996 1.64464C14.6071 1.64464 18.3553 5.39285 18.3553 9.99999C18.3553 14.6071 14.6071 18.3553 9.99996 18.3553Z" fill="white"/>
</svg>
