<svg width="247" height="181" viewBox="0 0 247 181" fill="none" xmlns="http://www.w3.org/2000/svg">
<path d="M163.318 179H240.457C245.132 178.502 250.415 172.125 234.146 150.603" stroke="#2B2A29" stroke-width="3"/>
<path d="M241.304 179H164.164C159.489 178.502 154.206 172.125 170.476 150.603" stroke="#2B2A29" stroke-width="3"/>
<path d="M163.318 72.8862H240.457C245.132 73.3844 250.415 79.7612 234.146 101.283" stroke="#2B2A29" stroke-width="3"/>
<path d="M241.304 72.8862H164.164C159.489 73.3844 154.206 79.7612 170.476 101.283" stroke="#2B2A29" stroke-width="3"/>
<rect x="169.447" y="101.783" width="65.4008" height="2.7364" rx="1.3682" stroke="#2B2A29"/>
<rect x="169.447" y="130.927" width="65.4008" height="2.7364" rx="1.3682" stroke="#2B2A29"/>
<rect x="169.447" y="116.355" width="65.4008" height="2.7364" rx="1.3682" stroke="#2B2A29"/>
<rect x="171.409" y="105.519" width="61.8028" height="9.83556" stroke="#2B2A29"/>
<rect x="171.409" y="120.091" width="61.8028" height="9.83556" stroke="#2B2A29"/>
<rect x="171.409" y="134.663" width="61.8028" height="11.7038" stroke="#2B2A29"/>
<rect x="169.447" y="147.367" width="65.4008" height="2.7364" rx="1.3682" stroke="#2B2A29"/>
<path d="M130.47 88.049C130.47 116.002 108.715 138.559 82.0046 138.559C55.2942 138.559 33.5396 116.002 33.5396 88.049C33.5396 60.0956 55.2942 37.5387 82.0046 37.5387C108.715 37.5387 130.47 60.0956 130.47 88.049Z" stroke="#2B2A29" stroke-width="3"/>
<path d="M113.162 88.049C113.162 106.58 99.1794 121.54 82.0047 121.54C64.8299 121.54 50.8474 106.58 50.8474 88.049C50.8474 69.5183 64.8299 54.558 82.0047 54.558C99.1794 54.558 113.162 69.5183 113.162 88.049Z" stroke="#2B2A29"/>
<path d="M44.2448 54.058V12.8962C52.9144 3.7825 86.1723 -8.97665 119.765 12.8962V54.058" stroke="#2B2A29"/>
<path d="M133.114 87.2299H148.37V167.088C143.285 170.911 128.461 176.262 109.848 167.088" stroke="#2B2A29"/>
<path d="M33.7163 88.4585H18.3088V167.79C23.4446 171.587 38.4156 176.903 57.2129 167.79" stroke="#2B2A29"/>
<rect x="106.034" y="166.269" width="37.3784" height="7.37154" rx="3.68577" fill="#2B2A29"/>
<rect x="25.937" y="166.269" width="37.3784" height="7.37154" rx="3.68577" fill="#2B2A29"/>
<rect x="19.8344" y="81.906" width="12.2052" height="9.82872" rx="4.91436" fill="#2B2A29"/>
<rect x="128.918" y="83.5441" width="12.2052" height="9.82872" rx="4.91436" fill="#2B2A29"/>
<rect x="57.2129" width="46.5323" height="7.37154" rx="3.68577" fill="#2B2A29"/>
<path d="M129.214 35.3713C134.894 39.6869 145.835 53.0174 144.166 71.8144" stroke="#2B2A29"/>
<path d="M148.37 36.4431C151.021 39.1087 156.127 47.3422 155.348 58.9521" stroke="#2B2A29"/>
<path d="M4.82422 51.5891C4.95473 47.7129 7.39361 38.1978 16.1051 31.1476" stroke="#2B2A29"/>
<path d="M117.255 123.984C117.255 123.984 143.799 171.809 171.984 133.431" stroke="#2B2A29"/>
<path d="M13.3477 67.475C13.7088 60.0633 18.3801 43.0824 34.1763 34.4528" stroke="#2B2A29"/>
</svg>
