<svg width="156" height="145" viewBox="0 0 156 145" fill="none" xmlns="http://www.w3.org/2000/svg">
<path d="M81.1362 75.8498C81.1362 77.4951 79.4428 79.1406 76.9304 79.1406C74.4181 79.1406 72.7246 77.4951 72.7246 75.8498C72.7246 74.2046 74.4181 72.5591 76.9304 72.5591C79.4428 72.5591 81.1362 74.2046 81.1362 75.8498Z" fill="#2B2A29" stroke="#2B2A29" stroke-width="2"/>
<path d="M64.8252 7.24511C69.0347 -1.0817 82.5048 -1.08171 88.398 7.24511M59.7739 19.7353C59.7739 10.0207 85.0305 3.77557 93.4493 19.7353" stroke="#2B2A29"/>
<path d="M64.8252 7.24511C69.0347 -1.0817 82.5048 -1.08171 88.398 7.24511M59.7739 19.7353C59.7739 10.0207 85.0305 3.77557 93.4493 19.7353" stroke="#2B2A29"/>
<path d="M146.9 96.3396C152.631 104.025 144.75 113.029 133.109 112.097M137.565 85.656C147.124 91.3393 138.493 111.876 117.864 108.167" stroke="#2B2A29"/>
<path d="M18.3897 112.68C7.71178 113.805 2.22085 105.107 8.7806 97.4585M33.8918 110.176C23.4361 114.66 6.41911 101.234 20.1645 88.4316" stroke="#2B2A29"/>
<path d="M103.552 46.1036C103.669 55.9935 108.603 59.2877 119.548 64.8389" stroke="#2B2A29"/>
<path d="M36.3745 67.4901C47.4325 63.6496 49.2594 58.6375 51.3404 48.1853" stroke="#2B2A29"/>
<path d="M111.971 44.7158C112.033 50.2101 114.629 52.0403 120.39 55.1243" stroke="#2B2A29"/>
<path d="M32.2301 56.6379C38.2576 54.2907 39.1865 51.5807 40.172 45.9778" stroke="#2B2A29"/>
<mask id="path-10-inside-1" fill="white">
<path fill-rule="evenodd" clip-rule="evenodd" d="M79.6869 75.1508H72.9519L61.0334 129.794C45.3427 130.903 34.2251 133.67 34.2251 136.908C34.2251 141.124 53.0714 144.541 76.3194 144.541C99.5674 144.541 118.414 141.124 118.414 136.908C118.414 133.567 106.578 130.728 90.0964 129.693L79.6869 75.1508Z"/>
</mask>
<path d="M72.9519 75.1508V73.1508H71.3411L70.9978 74.7246L72.9519 75.1508ZM79.6869 75.1508L81.6515 74.7758L81.3413 73.1508H79.6869V75.1508ZM61.0334 129.794L61.1744 131.789L62.6683 131.683L62.9874 130.22L61.0334 129.794ZM90.0964 129.693L88.1319 130.068L88.4227 131.592L89.9711 131.689L90.0964 129.693ZM72.9519 77.1508H79.6869V73.1508H72.9519V77.1508ZM62.9874 130.22L74.9059 75.577L70.9978 74.7246L59.0793 129.368L62.9874 130.22ZM36.2251 136.908C36.2251 137.115 36.1275 137.164 36.2474 137.025C36.3789 136.873 36.6633 136.628 37.196 136.325C38.2607 135.72 39.9461 135.088 42.2495 134.488C46.8245 133.296 53.3917 132.339 61.1744 131.789L60.8923 127.799C52.9844 128.358 46.1475 129.339 41.241 130.617C38.8036 131.252 36.7289 131.989 35.2188 132.848C34.464 133.277 33.7573 133.788 33.2195 134.411C32.6701 135.048 32.2251 135.891 32.2251 136.908H36.2251ZM76.3194 142.541C64.7773 142.541 54.3788 141.692 46.9111 140.337C43.1608 139.657 40.2487 138.867 38.3211 138.041C37.3496 137.624 36.7408 137.246 36.4067 136.949C36.064 136.646 36.2251 136.631 36.2251 136.908H32.2251C32.2251 138.238 32.9751 139.253 33.7539 139.943C34.5412 140.641 35.5865 141.221 36.745 141.717C39.0776 142.717 42.33 143.572 46.1974 144.273C53.9648 145.682 64.6135 146.541 76.3194 146.541V142.541ZM116.414 136.908C116.414 136.631 116.575 136.646 116.232 136.949C115.898 137.246 115.289 137.624 114.318 138.041C112.39 138.867 109.478 139.657 105.728 140.337C98.26 141.692 87.8615 142.541 76.3194 142.541V146.541C88.0253 146.541 98.674 145.682 106.441 144.273C110.309 143.572 113.561 142.717 115.894 141.717C117.052 141.221 118.098 140.641 118.885 139.943C119.664 139.253 120.414 138.238 120.414 136.908H116.414ZM89.9711 131.689C98.1481 132.203 105.094 133.16 109.95 134.376C112.394 134.988 114.196 135.638 115.343 136.269C115.917 136.585 116.231 136.845 116.38 137.012C116.518 137.167 116.414 137.123 116.414 136.908H120.414C120.414 135.858 119.94 134.995 119.366 134.351C118.803 133.719 118.064 133.201 117.271 132.765C115.683 131.891 113.497 131.141 110.922 130.496C105.739 129.198 98.5267 128.219 90.2217 127.697L89.9711 131.689ZM77.7224 75.5257L88.1319 130.068L92.061 129.318L81.6515 74.7758L77.7224 75.5257Z" fill="#2B2A29" mask="url(#path-10-inside-1)"/>
<path d="M93.841 46.5865C93.841 50.5508 91.8866 57.5266 88.6586 63.5332C87.0517 66.5233 85.1625 69.2089 83.1031 71.1338C81.0385 73.0637 78.8903 74.1508 76.7404 74.1508C74.5906 74.1508 72.4424 73.0637 70.3777 71.1338C68.3184 69.2089 66.4292 66.5233 64.8223 63.5332C61.5943 57.5266 59.6399 50.5508 59.6399 46.5865C59.6399 38.93 67.1221 32.435 76.7404 32.435C86.3587 32.435 93.841 38.93 93.841 46.5865Z" stroke="#2B2A29" stroke-width="2"/>
<path d="M100.276 100.27C95.996 98.2921 89.5237 93.4307 84.7292 88.1555C82.3359 85.5221 80.4068 82.8351 79.3724 80.4035C78.323 77.9366 78.281 75.9472 79.2413 74.5352C80.2015 73.1232 82.2825 72.1145 85.3832 71.5651C88.4397 71.0235 92.2273 70.9777 96.2017 71.2863C104.163 71.9044 112.572 73.9183 116.852 75.8957C125.308 79.8025 128.21 88.4282 123.692 95.0717C119.174 101.715 108.732 104.176 100.276 100.27Z" stroke="#2B2A29" stroke-width="2"/>
<path d="M34.7786 80.1757C38.6497 77.7091 46.5994 74.703 54.3605 73.1299C58.2333 72.3449 61.984 71.9328 65.1008 72.0989C68.2533 72.2669 70.5147 73.01 71.74 74.3164C72.9653 75.6229 73.2684 77.6138 72.6716 80.1708C72.0817 82.6987 70.6532 85.5867 68.7561 88.4781C64.9544 94.2726 59.4226 99.8566 55.5515 102.323C47.9337 107.177 37.1607 106.052 31.4648 99.979C25.7688 93.9061 27.1608 85.0296 34.7786 80.1757Z" stroke="#2B2A29" stroke-width="2"/>
<line y1="-0.5" x2="31.4038" y2="-0.5" transform="matrix(0.0153867 0.999882 -0.999945 0.0104535 76.3521 40.0935)" stroke="#2B2A29"/>
<line y1="-0.5" x2="37.6584" y2="-0.5" transform="matrix(0.974725 0.223406 -0.31968 0.947526 79.5568 76.0937)" stroke="#2B2A29"/>
<line y1="-0.5" x2="36.6095" y2="-0.5" transform="matrix(0.907769 -0.41947 0.562423 0.82685 41.6466 92.6367)" stroke="#2B2A29"/>
<line y1="-0.5" x2="27.4786" y2="-0.5" transform="matrix(-0.998505 0.0546668 -0.0803301 -0.996768 75.6102 76.529)" stroke="#2B2A29"/>
<path d="M61.8915 131.63C66.5189 136.874 79.8226 138.304 89.0774 131.63" stroke="#2B2A29"/>
<line y1="-0.5" x2="23.6017" y2="-0.5" transform="matrix(0.324565 0.945863 -0.973889 0.227024 67.8944 51.8156)" stroke="#2B2A29"/>
<line y1="-0.5" x2="22.8688" y2="-0.5" transform="matrix(0.762465 0.64703 -0.780662 0.624954 79.9105 77.0904)" stroke="#2B2A29"/>
</svg>
