<svg width="131" height="187" viewBox="0 0 131 187" fill="none" xmlns="http://www.w3.org/2000/svg">
<rect x="67.8592" y="120.754" width="60.4064" height="63.548" stroke="#2B2A29" stroke-width="4"/>
<rect x="73.6231" y="125.791" width="48.8786" height="51.8399" stroke="#2B2A29"/>
<path d="M97.1387 125.291V178.13M73.1231 153.139H123.002" stroke="#2B2A29" stroke-width="3"/>
<path d="M81 126L73.5 133.5V143.5L90.5 126H97.5L75 152.5H84.5L97.5 136.5V147L91.5 153.5" stroke="#2B2A29"/>
<path d="M105.812 152L98 159.075M98 168.509L115 152M121 153.996L99 177.5M109 177.5L122.5 162.5M122.5 171.5L117 177.5" stroke="#2B2A29"/>
<path d="M122.455 135.852L113 126M104.5 126L122.546 145.086M122.455 152L97.1891 128M97.1891 138L112.171 152.728M103 152.728L98 148" stroke="#2B2A29"/>
<path d="M74.1288 172.437L78.9999 177.5M89.0001 177.5L73.5073 163.223M74.1288 154.472L96.5 176.5M96.5 168L82.9999 153.5M91.4999 153.5L96.5 159" stroke="#2B2A29"/>
<mask id="mask0" mask-type="alpha" maskUnits="userSpaceOnUse" x="0" y="0" width="92" height="170">
<rect x="54.2684" y="24.4239" width="19.4795" height="46.4306" rx="9.73973" stroke="black" stroke-width="2"/>
<rect x="16.4963" y="95.785" width="19.4795" height="46.4306" rx="9.73973" stroke="black" stroke-width="2"/>
<rect x="16.4963" y="24.4239" width="19.4795" height="46.4306" rx="9.73973" stroke="black" stroke-width="2"/>
<path d="M12.606 97.7999C11.2129 97.8385 9.69188 96.7965 8.43392 94.5491C7.20055 92.3457 6.36854 89.2084 6.29094 85.665C6.21334 82.1215 6.90701 78.942 8.04243 76.6729C9.20049 74.3586 10.6741 73.2336 12.0672 73.195C13.4602 73.1564 14.9813 74.1984 16.2392 76.4458C17.4726 78.6492 18.3046 81.7865 18.3822 85.3299C18.4598 88.8734 17.7661 92.0529 16.6307 94.322C15.4727 96.6363 13.9991 97.7613 12.606 97.7999Z" stroke="black" stroke-width="2"/>
<rect x="54.2684" y="95.785" width="19.4795" height="46.4306" rx="9.73973" stroke="black" stroke-width="2"/>
<rect x="1.5" y="1.5" width="88.5249" height="166.959" stroke="black" stroke-width="3"/>
<path d="M15.5 85C15.5 86.5842 15.1244 87.9941 14.543 88.9907C13.9544 89.9996 13.2148 90.5 12.5 90.5C11.7852 90.5 11.0456 89.9996 10.457 88.9907C9.87563 87.9941 9.5 86.5842 9.5 85C9.5 83.4158 9.87563 82.0059 10.457 81.0093C11.0456 80.0004 11.7852 79.5 12.5 79.5C13.2148 79.5 13.9544 80.0004 14.543 81.0093C15.1244 82.0059 15.5 83.4158 15.5 85Z" stroke="black"/>
</mask>
<g mask="url(#mask0)">
<rect x="-17.4333" y="-5.44742" width="84.7453" height="226.612" fill="#2B2A29"/>
<rect x="-28.5712" y="-5.44742" width="147.215" height="124.201" fill="#2B2A29"/>
</g>
<path d="M32.6923 26L16 38.4091V48.4318L35.5 32M36 45.5L16 59.8864M20.8462 68L36 55.5" stroke="#2B2A29"/>
<path d="M70.5 98.5L54.5 108V121L73.5 108V121H67.5L54.5 132M59 140L67.5 132" stroke="#2B2A29"/>
<path d="M32.5 97L17 110V120.5L35.5 103.5M36.5 117L17 132.5M21.5 141L36.5 128" stroke="#2B2A29"/>
<path d="M69.5 26L54 39V49.5L73.5 32V46L54 61.5M58.5 70L73.5 57" stroke="#2B2A29"/>
<path d="M98 159.091C98 162.783 98 164.853 98 168.545" stroke="#2B2A29"/>
</svg>
