<svg width="131" height="187" viewBox="0 0 131 187" fill="none" xmlns="http://www.w3.org/2000/svg">
<rect x="67.3592" y="120.254" width="61.4064" height="64.548" stroke="#2B2A29" stroke-width="3"/>
<rect x="73.6231" y="125.791" width="48.8786" height="51.8399" stroke="#2B2A29"/>
<path d="M97.1387 125.291V178.13M73.1231 153.139H123.002" stroke="#2B2A29" stroke-width="3"/>
<path d="M81 126L73.5 133.5V143.5L90.5 126H97.5L75 152.5H84.5L97.5 136.5V147L91.5 153.5" stroke="#2B2A29"/>
<path d="M105.812 152L98 159.075M98 168.509L115 152M121 153.996L99 177.5M109 177.5L122.5 162.5M122.5 171.5L117 177.5" stroke="#2B2A29"/>
<path d="M122.455 135.852L113 126M104.5 126L122.546 145.086M122.455 152L97.1891 128M97.1891 138L112.171 152.728M103 152.728L98 148" stroke="#2B2A29"/>
<path d="M74.1288 172.437L78.9999 177.5M89.0001 177.5L73.5073 163.223M74.1288 154.472L96.5 176.5M96.5 168L82.9999 153.5M91.4999 153.5L96.5 159" stroke="#2B2A29"/>
<mask id="mask0" mask-type="alpha" maskUnits="userSpaceOnUse" x="0" y="0" width="92" height="170">
<rect x="54.2685" y="24.4239" width="19.4795" height="46.4306" rx="9.73973" stroke="black" stroke-width="2"/>
<rect x="16.4963" y="95.785" width="19.4795" height="46.4306" rx="9.73973" stroke="black" stroke-width="2"/>
<rect x="16.4963" y="24.4239" width="19.4795" height="46.4306" rx="9.73973" stroke="black" stroke-width="2"/>
<path d="M11.8801 95.5352C10.4917 95.5737 9.08562 94.5127 7.97597 92.4825C6.87999 90.4773 6.15251 87.6506 6.08308 84.4806C6.01366 81.3105 6.61652 78.4469 7.6234 76.3835C8.64284 74.2943 10.0007 73.1567 11.3892 73.1182C12.7777 73.0797 14.1837 74.1407 15.2934 76.1709C16.3894 78.1761 17.1168 81.0028 17.1863 84.1729C17.2557 87.3429 16.6528 90.2065 15.6459 92.27C14.6265 94.3592 13.2686 95.4968 11.8801 95.5352Z" stroke="black"/>
<rect x="54.2685" y="95.785" width="19.4795" height="46.4306" rx="9.73973" stroke="black" stroke-width="2"/>
<rect x="1" y="1" width="89.5249" height="167.959" stroke="black" stroke-width="2"/>
<path d="M14.5592 85.0391C14.5592 86.6234 14.1836 88.0332 13.6022 89.0298C13.0136 90.0388 12.274 90.5391 11.5592 90.5391C10.8444 90.5391 10.1048 90.0388 9.51622 89.0298C8.93484 88.0332 8.5592 86.6234 8.5592 85.0391C8.5592 83.4549 8.93484 82.0451 9.51622 81.0484C10.1048 80.0395 10.8444 79.5391 11.5592 79.5391C12.274 79.5391 13.0136 80.0395 13.6022 81.0484C14.1836 82.0451 14.5592 83.4549 14.5592 85.0391Z" stroke="black"/>
</mask>
<g mask="url(#mask0)">
<rect x="-17.4333" y="-5.44741" width="84.7453" height="226.612" fill="#2B2A29"/>
<rect x="-28.5712" y="-5.44741" width="147.215" height="124.201" fill="#2B2A29"/>
</g>
<path d="M32.6923 26L16 38.4091V48.4318L35.5 32M36 45.5L16 59.8864M20.8462 68L36 55.5" stroke="#2B2A29"/>
<path d="M70.5 98.5L54.5 108V121L73.5 108V121H67.5L54.5 132M59 140L67.5 132" stroke="#2B2A29"/>
<path d="M32.5 97L17 110V120.5L35.5 103.5M36.5 117L17 132.5M21.5 141L36.5 128" stroke="#2B2A29"/>
<path d="M69.5 26L54 39V49.5L73.5 32V46L54 61.5M58.5 70L73.5 57" stroke="#2B2A29"/>
<path d="M98 159.091C98 162.783 98 164.853 98 168.545" stroke="#2B2A29"/>
</svg>
