<svg width="208" height="164" viewBox="0 0 208 164" fill="none" xmlns="http://www.w3.org/2000/svg">
<path d="M159.423 21.1417V21.1419C159.423 21.1471 159.423 21.1751 159.393 21.2376C159.36 21.3068 159.291 21.4174 159.15 21.5639C158.859 21.8669 158.354 22.2314 157.574 22.6245C156.018 23.4082 153.669 24.157 150.642 24.8018C144.613 26.0863 136.214 26.8927 126.888 26.8927C117.562 26.8927 109.163 26.0863 103.134 24.8018C100.108 24.157 97.7586 23.4082 96.2027 22.6245C95.4223 22.2314 94.9175 21.8669 94.6266 21.5639C94.4858 21.4174 94.416 21.3068 94.383 21.2376C94.3532 21.1751 94.3533 21.1471 94.3533 21.1419L94.3533 21.1417L94.3533 21.1415C94.3533 21.1363 94.3532 21.1083 94.383 21.0458C94.416 20.9766 94.4858 20.866 94.6266 20.7194C94.9175 20.4165 95.4223 20.052 96.2027 19.6589C97.7586 18.8752 100.108 18.1264 103.134 17.4815C109.163 16.1971 117.562 15.3907 126.888 15.3907C136.214 15.3907 144.613 16.1971 150.642 17.4815C153.669 18.1264 156.018 18.8752 157.574 19.6589C158.354 20.052 158.859 20.4165 159.15 20.7194C159.291 20.866 159.36 20.9766 159.393 21.0458C159.423 21.1083 159.423 21.1363 159.423 21.1415V21.1417Z" stroke="#2B2A29" stroke-width="3"/>
<path d="M93.6733 21.1417V61.425H124.838V127.49H93.6733V154.882C104.062 160.253 139.6 167.773 159.283 154.882V21.1417" stroke="#2B2A29" stroke-width="3"/>
<path d="M206.116 128.496C206.274 135.404 205.35 141.66 203.745 146.184C202.942 148.448 201.978 150.253 200.915 151.489C199.852 152.726 198.73 153.352 197.598 153.377C196.466 153.402 195.316 152.826 194.198 151.638C193.079 150.45 192.033 148.69 191.127 146.463C189.316 142.015 188.107 135.806 187.948 128.898C187.79 121.99 188.714 115.734 190.318 111.21C191.121 108.946 192.086 107.141 193.149 105.905C194.212 104.668 195.334 104.043 196.466 104.017C197.598 103.992 198.748 104.568 199.866 105.756C200.985 106.944 202.031 108.705 202.937 110.931C204.748 115.379 205.957 121.588 206.116 128.496Z" stroke="#2B2A29"/>
<path d="M160.103 153.271H197.5M196 104.125H160.103" stroke="#2B2A29"/>
<path d="M96.7636 127.49H29.7041V61.425H104.335" stroke="#2B2A29" stroke-width="3"/>
<path d="M101.493 121H35V66H109" stroke="#2B2A29"/>
<path d="M73.1704 60.6193V43.6451C70.4367 42.4708 63.329 40.8268 56.7681 43.6451V60.6193" stroke="#2B2A29" stroke-width="2"/>
<path d="M17.4024 60.6193V24.457C14.6686 21.9552 7.56095 18.4526 1 24.457V60.6193" stroke="#2B2A29" stroke-width="2"/>
<path d="M46.1065 61.425V37.8088C43.3727 36.1749 36.265 33.8876 29.7041 37.8088V61.425" stroke="#2B2A29" stroke-width="2"/>
<path d="M1 56.591V158.105H17.4024V60.6193" stroke="#2B2A29" stroke-width="2"/>
<path d="M29.7041 127.49V158.105H46.1065V128.705" stroke="#2B2A29" stroke-width="2"/>
<path d="M56.7681 127.49V158.105H73.1704V128.705" stroke="#2B2A29" stroke-width="2"/>
<path d="M60.3687 79.1497C60.3687 80.5478 58.8755 81.8723 56.7681 81.8723C54.6606 81.8723 53.1675 80.5478 53.1675 79.1497C53.1675 77.7515 54.6606 76.427 56.7681 76.427C58.8755 76.427 60.3687 77.7515 60.3687 79.1497Z" stroke="#2B2A29"/>
<path d="M48.8869 73.9129C48.8869 76.4867 46.5848 78.6497 43.6461 78.6497C40.7074 78.6497 38.4053 76.4867 38.4053 73.9129C38.4053 71.339 40.7074 69.176 43.6461 69.176C46.5848 69.176 48.8869 71.339 48.8869 73.9129Z" stroke="#2B2A29"/>
<path d="M61.6887 46.923V42.1591H63.2084L64.8968 21.1417L65.9099 42.1591H67.4296V46.923H61.6887Z" fill="#2B2A29" stroke="#2B2A29"/>
<path d="M5.92078 26.7813V22.0174H7.44041L9.12889 1L10.142 22.0174H11.6616V26.7813H5.92078Z" fill="#2B2A29" stroke="#2B2A29"/>
<path d="M34.6249 39.672V34.9081H36.1445L37.833 13.8907L38.8461 34.9081H40.3657V39.672H34.6249Z" fill="#2B2A29" stroke="#2B2A29"/>
<path d="M154.5 157V139M149 159.5V145M143 162.5V153" stroke="#2B2A29"/>
<path d="M143 26.4999L142.463 47.722M147.844 26.4999L147.844 41.6148M153.498 24L153.685 33.4981" stroke="#2B2A29"/>
<path d="M24.7984 63.842H29.7041V70.2874H24.7984C20.6839 68.4827 22.4247 63.842 24.7984 63.842Z" fill="#2B2A29" stroke="#2B2A29" stroke-width="3"/>
<path d="M24.7984 79.1497H29.7041V85.5951H24.7984C20.6839 83.7904 22.4247 79.1497 24.7984 79.1497Z" fill="#2B2A29" stroke="#2B2A29" stroke-width="3"/>
<path d="M18.2224 138.769H30.5242M30.5242 150.048H18.2224M46.9266 150.048H55.9479M55.9479 138.769H46.9266M73.9905 150.048H92.8532V138.769H73.9905" stroke="#2B2A29"/>
<path d="M21 150V139H26.542V150M50.5 138.5L50.7252 150M78.4351 139V150M87 150V139" stroke="#2B2A29"/>
<path d="M44 138V158.5H42V146M40 158V151.5" stroke="#2B2A29"/>
<path d="M14.5 137.5V158H12.5V145.5M10.5 157.5V151" stroke="#2B2A29"/>
<path d="M71 137V157.5H69V145M67 157V150.5" stroke="#2B2A29"/>
</svg>
