<svg width="56" height="78" viewBox="0 0 56 78" fill="none" xmlns="http://www.w3.org/2000/svg">
<mask id="path-1-inside-1" fill="white">
<path fill-rule="evenodd" clip-rule="evenodd" d="M40.2402 70.4652C48.555 70.4652 55.2954 63.8429 55.2954 55.674C55.2954 47.505 48.555 40.8828 40.2402 40.8828C34.531 40.8828 29.5641 44.0049 27.0117 48.606C30.8852 51.6043 33.3728 56.2587 33.3728 61.4848C33.3728 63.8175 32.8772 66.0363 31.984 68.0447C34.3547 69.575 37.1916 70.4652 40.2402 70.4652Z"/>
</mask>
<path d="M27.0117 48.606L26.1373 48.1209L25.7209 48.8714L26.3996 49.3968L27.0117 48.606ZM31.984 68.0447L31.0703 67.6383L30.7224 68.4206L31.4417 68.8849L31.984 68.0447ZM54.2954 55.674C54.2954 63.274 48.0194 69.4652 40.2402 69.4652V71.4652C49.0905 71.4652 56.2954 64.4118 56.2954 55.674H54.2954ZM40.2402 41.8828C48.0194 41.8828 54.2954 48.0739 54.2954 55.674H56.2954C56.2954 46.9361 49.0905 39.8828 40.2402 39.8828V41.8828ZM27.8862 49.0911C30.2663 44.8005 34.9026 41.8828 40.2402 41.8828V39.8828C34.1594 39.8828 28.8619 43.2093 26.1373 48.1209L27.8862 49.0911ZM26.3996 49.3968C30.0419 52.2161 32.3728 56.5848 32.3728 61.4848H34.3728C34.3728 55.9326 31.7285 50.9925 27.6238 47.8152L26.3996 49.3968ZM32.3728 61.4848C32.3728 63.6745 31.9079 65.7551 31.0703 67.6383L32.8977 68.4511C33.8466 66.3175 34.3728 63.9605 34.3728 61.4848H32.3728ZM40.2402 69.4652C37.3887 69.4652 34.7394 68.633 32.5263 67.2045L31.4417 68.8849C33.97 70.5169 36.9945 71.4652 40.2402 71.4652V69.4652Z" fill="#2B2A29" mask="url(#path-1-inside-1)"/>
<path d="M33.6649 61.4848C33.6649 70.2453 26.4463 77.3607 17.5248 77.3607C8.60335 77.3607 1.38477 70.2453 1.38477 61.4848C1.38477 52.7242 8.60335 45.6088 17.5248 45.6088C26.4463 45.6088 33.6649 52.7242 33.6649 61.4848Z" stroke="#2B2A29"/>
<path d="M34.165 42.7317L29.6748 36.6567H50.805L45.7866 42.7317" stroke="#2B2A29"/>
<path d="M10.9219 47.2219L6.95996 40.0905H27.5619L23.8642 47.2219" stroke="#2B2A29"/>
<path d="M40.5036 36.6568V10.7722M17.5244 39.8263V0.207092" stroke="#2B2A29"/>
<path d="M7.30979 55.0243L7.23518 55.106L7.202 55.2116C7.13911 55.4116 7.08287 55.592 7.03192 55.7555C6.92506 56.0984 6.84144 56.3667 6.76845 56.5843C6.6587 56.9114 6.58938 57.0711 6.53097 57.1635C6.49011 57.2282 6.45814 57.2567 6.38173 57.2965C6.30687 57.3355 6.22585 57.3674 6.1003 57.4169C6.08905 57.4214 6.07744 57.4259 6.06544 57.4307C5.75798 57.2009 5.53688 56.8053 5.45922 56.2665C5.36765 55.6312 5.48845 54.8464 5.8718 54.0773C6.25515 53.3082 6.80908 52.7393 7.37151 52.43C7.93604 52.1195 8.46138 52.0902 8.86052 52.2891C8.94288 52.3302 8.97396 52.3669 8.98641 52.3859C8.99828 52.4041 9.0106 52.4326 9.01223 52.4871C9.01612 52.6166 8.95754 52.831 8.7898 53.1356C8.4602 53.7341 7.85645 54.4258 7.30979 55.0243Z" stroke="#2B2A29"/>
<path d="M31.7323 49.4543L31.6578 49.536L31.6246 49.6414C31.5674 49.8233 31.5163 49.9873 31.47 50.1357C31.3732 50.4463 31.2975 50.689 31.2315 50.8859C31.1319 51.1826 31.0704 51.3226 31.0207 51.4013C30.9886 51.4522 30.9661 51.4728 30.9031 51.5057C30.8373 51.54 30.767 51.5677 30.6555 51.6117C30.6522 51.613 30.6488 51.6143 30.6454 51.6157C30.3895 51.4142 30.2022 51.074 30.135 50.6065C30.0536 50.0407 30.1611 49.3383 30.5052 48.6479C30.8493 47.9575 31.3455 47.4488 31.8463 47.1732C32.3492 46.8964 32.8088 46.8744 33.1529 47.0459C33.2215 47.0801 33.2427 47.1082 33.2486 47.1173C33.254 47.1256 33.2632 47.1428 33.2645 47.185C33.2676 47.29 33.2192 47.4756 33.0683 47.7497C32.7724 48.2871 32.2286 48.9107 31.7323 49.4543Z" stroke="#2B2A29"/>
</svg>
