<svg width="130" height="183" viewBox="0 0 130 183" fill="none" xmlns="http://www.w3.org/2000/svg">
<mask id="path-1-inside-1" fill="white">
<path fill-rule="evenodd" clip-rule="evenodd" d="M93.6948 165.266C113.49 165.266 129.538 149.689 129.538 130.473C129.538 111.258 113.49 95.6805 93.6948 95.6805C80.1028 95.6805 68.2778 103.024 62.2012 113.848C71.423 120.9 77.3454 131.849 77.3454 144.142C77.3454 149.629 76.1655 154.848 74.0389 159.573C79.6829 163.172 86.4369 165.266 93.6948 165.266Z"/>
</mask>
<path d="M62.2012 113.848L60.4572 112.868L59.6075 114.382L60.9862 115.436L62.2012 113.848ZM74.0389 159.573L72.2151 158.752L71.5052 160.329L72.9635 161.259L74.0389 159.573ZM127.538 130.473C127.538 148.529 112.442 163.266 93.6948 163.266V167.266C114.538 167.266 131.538 150.849 131.538 130.473H127.538ZM93.6948 97.6805C112.442 97.6805 127.538 112.418 127.538 130.473H131.538C131.538 110.098 114.538 93.6805 93.6948 93.6805V97.6805ZM63.9451 114.827C69.6717 104.627 80.834 97.6805 93.6948 97.6805V93.6805C79.3716 93.6805 66.8839 101.422 60.4572 112.868L63.9451 114.827ZM60.9862 115.436C69.7451 122.135 75.3454 132.511 75.3454 144.142H79.3454C79.3454 131.187 73.1009 119.666 63.4162 112.259L60.9862 115.436ZM75.3454 144.142C75.3454 149.34 74.2283 154.279 72.2151 158.752L75.8627 160.394C78.1026 155.417 79.3454 149.919 79.3454 144.142H75.3454ZM93.6948 163.266C86.8259 163.266 80.4439 161.286 75.1143 157.887L72.9635 161.259C78.922 165.059 86.0479 167.266 93.6948 167.266V163.266Z" fill="#2B2A29" mask="url(#path-1-inside-1)"/>
<path d="M77.7319 144.142C77.7319 164.549 60.7067 181.163 39.6159 181.163C18.5252 181.163 1.5 164.549 1.5 144.142C1.5 123.736 18.5252 107.121 39.6159 107.121C60.7067 107.121 77.7319 123.736 77.7319 144.142Z" stroke="#2B2A29" stroke-width="3"/>
<mask id="mask0" mask-type="alpha" maskUnits="userSpaceOnUse" x="13" y="118" width="56" height="57">
<path d="M67.5693 150.734C65.3449 165.496 51.7975 175.662 37.342 173.484C22.8866 171.305 12.9365 157.599 15.1609 142.836C17.3854 128.074 30.9327 117.908 45.3882 120.086C59.8436 122.265 69.7937 135.971 67.5693 150.734Z" stroke="black" stroke-width="2"/>
</mask>
<g mask="url(#mask0)">
<path d="M39.9509 143.984L96.237 152.465L87.8995 193.572L60.3232 191.666L55.849 221.358L32.979 208.54L39.9509 143.984Z" fill="#2B2A29"/>
</g>
<mask id="mask1" mask-type="alpha" maskUnits="userSpaceOnUse" x="28" y="133" width="34" height="35">
<path d="M60.0095 152.582C58.6852 161.37 50.7631 167.399 42.3795 166.135C33.9958 164.872 28.202 156.777 29.5263 147.988C30.8506 139.2 38.7726 133.171 47.1563 134.435C55.54 135.698 61.3338 143.793 60.0095 152.582Z" stroke="black" stroke-width="2"/>
</mask>
<g mask="url(#mask1)">
<path d="M43.9281 148.584L77.523 153.647L72.476 178.651L56.013 177.538L53.2919 195.597L39.6573 187.842L43.9281 148.584Z" fill="#2B2A29"/>
</g>
<mask id="mask2" mask-type="alpha" maskUnits="userSpaceOnUse" x="64" y="102" width="56" height="57">
<path d="M119.064 134.808C116.799 149.835 103.004 160.199 88.2675 157.978C73.5307 155.757 63.4022 141.789 65.6665 126.762C67.9308 111.735 81.7258 101.371 96.4627 103.592C111.2 105.813 121.328 119.781 119.064 134.808Z" stroke="black"/>
</mask>
<g mask="url(#mask2)">
<path d="M90.9509 127.984L147.237 136.465L138.899 177.572L111.323 175.666L106.849 205.358L83.979 192.54L90.9509 127.984Z" fill="#2B2A29"/>
</g>
<mask id="mask3" mask-type="alpha" maskUnits="userSpaceOnUse" x="81" y="120" width="32" height="34">
<path d="M111.349 138.998C110.012 147.876 102.326 154.005 94.2535 152.788C86.1814 151.572 80.6426 143.45 81.9804 134.572C83.3182 125.694 91.0043 119.565 99.0764 120.782C107.148 121.998 112.687 130.12 111.349 138.998Z" stroke="black"/>
</mask>
<g mask="url(#mask3)">
<path d="M95.8898 135.126L127.308 139.86L122.419 164.366L107.014 163.385L104.348 181.077L91.6341 173.577L95.8898 135.126Z" fill="#2B2A29"/>
</g>
<path d="M79.2319 100.03L68.5419 85.7397H118.848L106.9 100.03" stroke="#2B2A29" stroke-width="2"/>
<path d="M23.8953 110.592L14.463 93.8167H63.5113L54.7077 110.592" stroke="#2B2A29" stroke-width="2"/>
<path d="M94.3237 85.7397V24.8521M39.616 93.1954V0" stroke="#2B2A29"/>
<path d="M15.8062 129.403L15.7303 129.485L15.6966 129.591C15.549 130.055 15.4161 130.476 15.2952 130.86C15.0391 131.672 14.8366 132.314 14.6604 132.833C14.3991 133.602 14.2124 134.048 14.025 134.341C13.8554 134.606 13.6829 134.75 13.4076 134.892C13.1981 134.999 12.9568 135.093 12.6268 135.222C12.5148 135.266 12.3925 135.314 12.2578 135.367C11.1556 134.735 10.4365 133.521 10.209 131.961C9.96873 130.314 10.2892 128.33 11.2559 126.414C12.2225 124.498 13.6329 123.051 15.1086 122.249C16.5861 121.446 18.0826 121.309 19.2939 121.905C19.5795 122.046 19.7559 122.207 19.8642 122.371C19.9718 122.534 20.0304 122.726 20.0375 122.96C20.0523 123.447 19.8414 124.081 19.4236 124.831C18.5937 126.32 17.1002 128.003 15.8062 129.403Z" stroke="#2B2A29"/>
<path d="M73.9499 116.301L73.8741 116.383L73.8404 116.489C73.7063 116.91 73.5857 117.292 73.4759 117.64C73.2436 118.376 73.0601 118.958 72.9004 119.428C72.6632 120.126 72.4953 120.526 72.3287 120.786C72.1798 121.019 72.03 121.144 71.7868 121.27C71.599 121.366 71.3835 121.451 71.0863 121.567C70.9899 121.604 70.885 121.645 70.7696 121.691C69.7971 121.124 69.1585 120.042 68.9554 118.647C68.7395 117.164 69.0284 115.373 69.9016 113.643C70.7748 111.912 72.0476 110.606 73.3764 109.883C74.707 109.16 76.0472 109.04 77.1277 109.572C77.3805 109.696 77.5335 109.837 77.6263 109.978C77.7184 110.117 77.7695 110.283 77.7756 110.488C77.7886 110.918 77.6021 111.484 77.2244 112.162C76.4747 113.507 75.124 115.03 73.9499 116.301Z" stroke="#2B2A29"/>
<path d="M81.6606 86L86.1606 98M105.161 86L100.161 98" stroke="#2B2A29"/>
<path d="M27.1606 94L30.1606 108C34.9939 106.667 43.7606 104.8 48.1606 108L52.1606 94" stroke="#2B2A29"/>
</svg>
