<svg width="177" height="145" viewBox="0 0 177 145" fill="none" xmlns="http://www.w3.org/2000/svg">
<path d="M85.2069 2.25677H175.386V31.3977H85.2069H168.074V59.0049M168.074 59.0049H175.386M168.074 59.0049H85.2069H175.386M175.386 59.0049V83.5446H85.2069H168.074V112.686H85.2069" stroke="#2B2A29" stroke-width="3"/>
<path d="M149.794 2.25677H60.225V31.3977H149.794H67.4874V59.0049M67.4874 59.0049H60.225M67.4874 59.0049H149.794H60.225M60.225 59.0049V83.5446H149.794H67.4874V112.686H149.794" stroke="#2B2A29" stroke-width="3"/>
<rect x="61.725" y="114.186" width="112.161" height="29.2084" stroke="#2B2A29" stroke-width="3"/>
<path d="M79.8464 32.9534L67.3464 46.9534M74.8464 58.4534L98.3464 32.9534M95.3464 58.4534L116.346 32.9534M116.346 58.4534L136.346 32.9534M133.346 58.4534L152.846 32.9534M152.846 58.4534L167.846 32.9534" stroke="#2B2A29"/>
<path d="M79.9676 82.4798L67.3713 98.6327M74.8806 111.939L98.5596 82.519M95.4825 111.982L116.649 82.5571M116.587 112.027L136.749 82.5995M133.671 112.063L153.331 82.6345M153.268 112.104L168.405 82.6662" stroke="#2B2A29"/>
<path d="M14.6702 41.8056C14.6206 46.9764 13.7038 51.5742 12.3186 54.8163C11.6246 56.4406 10.8432 57.6536 10.0577 58.4346C9.27728 59.2107 8.58588 59.4766 8.00701 59.4678C7.42814 59.459 6.74204 59.1722 5.9767 58.3726C5.20641 57.5679 4.44855 56.3315 3.7859 54.6866C2.46334 51.4034 1.63502 46.779 1.68464 41.6082C1.73425 36.4373 2.65106 31.8395 4.03624 28.5975C4.73026 26.9731 5.51162 25.7602 6.29713 24.9791C7.07759 24.203 7.76899 23.9371 8.34786 23.9459C8.92673 23.9547 9.61283 24.2416 10.3782 25.0411C11.1485 25.8458 11.9063 27.0822 12.569 28.7272C13.8915 32.0103 14.7198 36.6347 14.6702 41.8056Z" stroke="#2B2A29" stroke-width="3"/>
<path d="M7.38654 23.9534H60.3969M7.38654 59.4534C7.38654 59.4534 11.0425 101.183 7.38654 114.986C3.73064 128.79 4.34641 140.293 17.1356 140.293C29.9248 140.293 60.3969 140.293 60.3969 140.293" stroke="#2B2A29" stroke-width="2"/>
<path d="M8.84644 67.9534H59.3464V77.4534H8.84644V87.4534H67.3464V95.9534H8.84644M67.3464 105.953H8.84644M62.3464 114.453H8.84644M62.3464 123.953H5.84644M62.3464 131.953H5.84644" stroke="#2B2A29"/>
<path d="M8.34644 61.4534L59.6157 61.3055" stroke="#2B2A29" stroke-width="2"/>
</svg>
