<svg width="152" height="184" viewBox="0 0 152 184" fill="none" xmlns="http://www.w3.org/2000/svg">
<path d="M1.62622 28.3196V174.638C8.76632 180.145 27.759 187.854 46.6088 174.638V28.3196" stroke="#2B2A29" stroke-width="3"/>
<path d="M47.2508 29.893C47.2508 30.1237 47.0809 30.6628 45.9915 31.4139C44.9486 32.133 43.3414 32.8407 41.2204 33.4592C36.9984 34.6905 31.0773 35.4729 24.4744 35.4729C17.8716 35.4729 11.9505 34.6905 7.72845 33.4592C5.60748 32.8407 4.00027 32.133 2.95735 31.4139C1.86798 30.6628 1.69812 30.1237 1.69812 29.893C1.69812 29.6623 1.86798 29.1232 2.95735 28.372C4.00027 27.6529 5.60748 26.9453 7.72845 26.3267C11.9505 25.0954 17.8716 24.313 24.4744 24.313C31.0773 24.313 36.9984 25.0954 41.2204 26.3267C43.3414 26.9453 44.9486 27.6529 45.9915 28.372C47.0809 29.1232 47.2508 29.6623 47.2508 29.893Z" stroke="#2B2A29" stroke-width="3"/>
<mask id="path-3-inside-1" fill="white">
<path fill-rule="evenodd" clip-rule="evenodd" d="M27.2227 26.5613L24.4745 0L21.7262 26.5613H15.9064V32.253H32.3286V26.5613H27.2227Z"/>
</mask>
<path fill-rule="evenodd" clip-rule="evenodd" d="M27.2227 26.5613L24.4745 0L21.7262 26.5613H15.9064V32.253H32.3286V26.5613H27.2227Z" fill="#2B2A29"/>
<path d="M24.4745 0L25.4692 -0.102918L23.4798 -0.102918L24.4745 0ZM27.2227 26.5613L26.228 26.6642L26.3208 27.5613H27.2227V26.5613ZM21.7262 26.5613V27.5613H22.6281L22.7209 26.6642L21.7262 26.5613ZM15.9064 26.5613V25.5613H14.9064V26.5613H15.9064ZM15.9064 32.253H14.9064V33.253H15.9064V32.253ZM32.3286 32.253V33.253H33.3286V32.253H32.3286ZM32.3286 26.5613H33.3286V25.5613H32.3286V26.5613ZM23.4798 0.102918L26.228 26.6642L28.2174 26.4584L25.4692 -0.102918L23.4798 0.102918ZM22.7209 26.6642L25.4692 0.102918L23.4798 -0.102918L20.7315 26.4584L22.7209 26.6642ZM15.9064 27.5613H21.7262V25.5613H15.9064V27.5613ZM16.9064 32.253V26.5613H14.9064V32.253H16.9064ZM32.3286 31.253H15.9064V33.253H32.3286V31.253ZM31.3286 26.5613V32.253H33.3286V26.5613H31.3286ZM27.2227 27.5613H32.3286V25.5613H27.2227V27.5613Z" fill="#2B2A29" mask="url(#path-3-inside-1)"/>
<path d="M149.552 41.9003V172.828C139.472 177.756 112.659 184.654 86.0473 172.828V41.9003" stroke="#2B2A29" stroke-width="3"/>
<path d="M84.5102 43.2229C84.51 43.2229 84.5108 43.2256 84.5134 43.2309C84.5117 43.2256 84.5104 43.2229 84.5102 43.2229ZM84.725 43.1445C84.6488 43.2133 84.5986 43.2679 84.5661 43.3081C84.5986 43.3484 84.6488 43.4029 84.725 43.4718C85.0121 43.7312 85.5214 44.0518 86.3172 44.3996C87.8978 45.0904 90.2779 45.7479 93.334 46.3128C99.4217 47.4381 107.894 48.1434 117.296 48.1434C126.697 48.1434 135.17 47.4381 141.257 46.3128C144.313 45.7479 146.694 45.0904 148.274 44.3996C149.07 44.0518 149.579 43.7312 149.866 43.4718C149.943 43.4029 149.993 43.3484 150.025 43.3081C149.993 43.2679 149.943 43.2133 149.866 43.1445C149.579 42.8851 149.07 42.5644 148.274 42.2166C146.694 41.5259 144.313 40.8684 141.257 40.3035C135.17 39.1782 126.697 38.4729 117.296 38.4729C107.894 38.4729 99.4217 39.1782 93.334 40.3035C90.2779 40.8684 87.8978 41.5259 86.3172 42.2166C85.5214 42.5644 85.0121 42.8851 84.725 43.1445ZM150.081 43.2229C150.081 43.2229 150.08 43.2256 150.078 43.2309C150.08 43.2256 150.081 43.2229 150.081 43.2229ZM150.081 43.3933C150.081 43.3933 150.08 43.3907 150.078 43.3853C150.08 43.3907 150.081 43.3933 150.081 43.3933ZM84.5134 43.3854C84.5108 43.3907 84.51 43.3933 84.5102 43.3933C84.5104 43.3933 84.5117 43.3907 84.5134 43.3854Z" stroke="#2B2A29" stroke-width="3"/>
<mask id="path-7-inside-2" fill="white">
<path fill-rule="evenodd" clip-rule="evenodd" d="M68.5392 71.6322L66.5079 53.4927L64.4766 71.6322H60.1749V75.5192H72.3131V71.6322H68.5392Z"/>
</mask>
<path fill-rule="evenodd" clip-rule="evenodd" d="M68.5392 71.6322L66.5079 53.4927L64.4766 71.6322H60.1749V75.5192H72.3131V71.6322H68.5392Z" fill="#2B2A29"/>
<path d="M66.5079 53.4927L67.5017 53.3814L65.5141 53.3814L66.5079 53.4927ZM68.5392 71.6322L67.5454 71.7434L67.6449 72.6322H68.5392V71.6322ZM64.4766 71.6322V72.6322H65.3709L65.4704 71.7434L64.4766 71.6322ZM60.1749 71.6322V70.6322H59.1749V71.6322H60.1749ZM60.1749 75.5192H59.1749V76.5192H60.1749V75.5192ZM72.3131 75.5192V76.5192H73.3131V75.5192H72.3131ZM72.3131 71.6322H73.3131V70.6322H72.3131V71.6322ZM65.5141 53.604L67.5454 71.7434L69.533 71.5209L67.5017 53.3814L65.5141 53.604ZM65.4704 71.7434L67.5017 53.604L65.5141 53.3814L63.4828 71.5209L65.4704 71.7434ZM60.1749 72.6322H64.4766V70.6322H60.1749V72.6322ZM61.1749 75.5192V71.6322H59.1749V75.5192H61.1749ZM72.3131 74.5192H60.1749V76.5192H72.3131V74.5192ZM71.3131 71.6322V75.5192H73.3131V71.6322H71.3131ZM68.5392 72.6322H72.3131V70.6322H68.5392V72.6322Z" fill="#2B2A29" mask="url(#path-7-inside-2)"/>
<path d="M47.8058 72.2777V174.271C53.7909 178.11 69.7112 183.484 85.5118 174.271V72.2777" stroke="#2B2A29" stroke-width="2"/>
<path d="M86.3073 73.3744C86.3073 73.469 86.1989 73.8613 85.2107 74.4279C84.2984 74.951 82.9118 75.4556 81.1115 75.8923C77.5264 76.7617 72.522 77.3096 66.958 77.3096C61.3941 77.3096 56.3896 76.7617 52.8046 75.8923C51.0043 75.4556 49.6177 74.951 48.7053 74.4279C47.7172 73.8613 47.6088 73.469 47.6088 73.3744C47.6088 73.2798 47.7172 72.8875 48.7053 72.3209C49.6177 71.7978 51.0043 71.2931 52.8046 70.8565C56.3896 69.9871 61.3941 69.4392 66.958 69.4392C72.522 69.4392 77.5264 69.9871 81.1115 70.8565C82.9118 71.2931 84.2984 71.7978 85.2107 72.3209C86.1989 72.8875 86.3073 73.2798 86.3073 73.3744Z" stroke="#2B2A29" stroke-width="2"/>
<rect x="94.043" y="56.8133" width="12.4551" height="105.562" rx="6.22756" stroke="#2B2A29"/>
<rect x="52.8367" y="84.5367" width="6.5685" height="77.8386" rx="3.28425" stroke="#2B2A29"/>
<rect x="8.2666" y="42.0852" width="6.5685" height="128.954" rx="3.28425" stroke="#2B2A29"/>
<path d="M144 173.5V155.5M138.5 176V161.5M132.5 179V169.5" stroke="#2B2A29"/>
<path d="M40.5 177V159M35 179.5V165M29 182.5V173" stroke="#2B2A29"/>
<path d="M144 173.5V155.5M138.5 176V161.5M132.5 179V169.5" stroke="#2B2A29"/>
<path d="M40.5 34V47M36 34V41M30.5 34V44" stroke="#2B2A29"/>
<mask id="path-18-inside-3" fill="white">
<path fill-rule="evenodd" clip-rule="evenodd" d="M122.108 39.1941L118.165 16.5198L114.222 39.1941H105.872V44.0528H129.434V39.1941H122.108ZM82.5 164.5V177H81.5V164.5H82.5ZM79 169V177H78V169H79ZM75 174V179.5H74V174H75ZM142 46.0001V66.0001H143V46.0001H142ZM131 48.5001V53.5001H132V48.5001H131ZM136 48.5001V57.5001H137V48.5001H136Z"/>
</mask>
<path fill-rule="evenodd" clip-rule="evenodd" d="M122.108 39.1941L118.165 16.5198L114.222 39.1941H105.872V44.0528H129.434V39.1941H122.108ZM82.5 164.5V177H81.5V164.5H82.5ZM79 169V177H78V169H79ZM75 174V179.5H74V174H75ZM142 46.0001V66.0001H143V46.0001H142ZM131 48.5001V53.5001H132V48.5001H131ZM136 48.5001V57.5001H137V48.5001H136Z" fill="#2B2A29"/>
<path d="M118.165 16.5198L119.15 16.3485H117.18L118.165 16.5198ZM122.108 39.1941L121.123 39.3654L121.267 40.1941H122.108V39.1941ZM114.222 39.1941V40.1941H115.063L115.207 39.3654L114.222 39.1941ZM105.872 39.1941V38.1941H104.872V39.1941H105.872ZM105.872 44.0528H104.872V45.0528H105.872V44.0528ZM129.434 44.0528V45.0528H130.434V44.0528H129.434ZM129.434 39.1941H130.434V38.1941H129.434V39.1941ZM82.5 177V178H83.5V177H82.5ZM82.5 164.5H83.5V163.5H82.5V164.5ZM81.5 177H80.5V178H81.5V177ZM81.5 164.5V163.5H80.5V164.5H81.5ZM79 177V178H80V177H79ZM79 169H80V168H79V169ZM78 177H77V178H78V177ZM78 169V168H77V169H78ZM75 179.5V180.5H76V179.5H75ZM75 174H76V173H75V174ZM74 179.5H73V180.5H74V179.5ZM74 174V173H73V174H74ZM142 66.0001H141V67.0001H142V66.0001ZM142 46.0001V45.0001H141V46.0001H142ZM143 66.0001V67.0001H144V66.0001H143ZM143 46.0001H144V45.0001H143V46.0001ZM131 53.5001H130V54.5001H131V53.5001ZM131 48.5001V47.5001H130V48.5001H131ZM132 53.5001V54.5001H133V53.5001H132ZM132 48.5001H133V47.5001H132V48.5001ZM136 57.5001H135V58.5001H136V57.5001ZM136 48.5001V47.5001H135V48.5001H136ZM137 57.5001V58.5001H138V57.5001H137ZM137 48.5001H138V47.5001H137V48.5001ZM117.18 16.6912L121.123 39.3654L123.093 39.0228L119.15 16.3485L117.18 16.6912ZM115.207 39.3654L119.15 16.6912L117.18 16.3485L113.237 39.0228L115.207 39.3654ZM105.872 40.1941H114.222V38.1941H105.872V40.1941ZM106.872 44.0528V39.1941H104.872V44.0528H106.872ZM129.434 43.0528H105.872V45.0528H129.434V43.0528ZM128.434 39.1941V44.0528H130.434V39.1941H128.434ZM122.108 40.1941H129.434V38.1941H122.108V40.1941ZM83.5 177V164.5H81.5V177H83.5ZM81.5 178H82.5V176H81.5V178ZM80.5 164.5V177H82.5V164.5H80.5ZM82.5 163.5H81.5V165.5H82.5V163.5ZM80 177V169H78V177H80ZM78 178H79V176H78V178ZM77 169V177H79V169H77ZM79 168H78V170H79V168ZM76 179.5V174H74V179.5H76ZM74 180.5H75V178.5H74V180.5ZM73 174V179.5H75V174H73ZM75 173H74V175H75V173ZM143 66.0001V46.0001H141V66.0001H143ZM143 65.0001H142V67.0001H143V65.0001ZM142 46.0001V66.0001H144V46.0001H142ZM142 47.0001H143V45.0001H142V47.0001ZM132 53.5001V48.5001H130V53.5001H132ZM132 52.5001H131V54.5001H132V52.5001ZM131 48.5001V53.5001H133V48.5001H131ZM131 49.5001H132V47.5001H131V49.5001ZM137 57.5001V48.5001H135V57.5001H137ZM137 56.5001H136V58.5001H137V56.5001ZM136 48.5001V57.5001H138V48.5001H136ZM136 49.5001H137V47.5001H136V49.5001Z" fill="#2B2A29" mask="url(#path-18-inside-3)"/>
</svg>
