<svg width="107" height="128" viewBox="0 0 107 128" fill="none" xmlns="http://www.w3.org/2000/svg">
<rect x="85" y="1" width="17.0132" height="70.9208" stroke="#2B2A29" stroke-width="2"/>
<path d="M26.4714 45.2174L2.94272 36.0232L26.4655 28.21L85.1185 25.6931V45.2174H26.4714Z" stroke="#2B2A29" stroke-width="2"/>
<path d="M9.5 56.5V126" stroke="#2B2A29"/>
<path d="M7.5 37H28H84.5" stroke="#2B2A29"/>
<mask id="path-5-inside-1" fill="white">
<path fill-rule="evenodd" clip-rule="evenodd" d="M19.0132 54.4338H0V127.355H19.0132L19.0132 97.0565H86.1185L106.25 86.786L86.1185 81.1372H19.0132L19.0132 54.4338Z"/>
</mask>
<path d="M0 54.4338V52.4338H-2V54.4338H0ZM19.0132 54.4338L21.0132 54.4338V52.4338H19.0132V54.4338ZM0 127.355H-2V129.355H0V127.355ZM19.0132 127.355V129.355H21.0132V127.355H19.0132ZM19.0132 97.0565V95.0565H17.0132V97.0565H19.0132ZM86.1185 97.0565V99.0565H86.5992L87.0274 98.8381L86.1185 97.0565ZM106.25 86.786L107.159 88.5676L111.716 86.2425L106.79 84.8604L106.25 86.786ZM86.1185 81.1372L86.6588 79.2116L86.3938 79.1372H86.1185V81.1372ZM19.0132 81.1372H17.0132V83.1372H19.0132V81.1372ZM0 56.4338H19.0132V52.4338H0V56.4338ZM2 127.355V54.4338H-2V127.355H2ZM19.0132 125.355H0V129.355H19.0132V125.355ZM17.0132 97.0565L17.0132 127.355H21.0132L21.0132 97.0565H17.0132ZM86.1185 95.0565H19.0132V99.0565H86.1185V95.0565ZM105.341 85.0045L85.2096 95.275L87.0274 98.8381L107.159 88.5676L105.341 85.0045ZM85.5782 83.0628L105.71 88.7116L106.79 84.8604L86.6588 79.2116L85.5782 83.0628ZM19.0132 83.1372H86.1185V79.1372H19.0132V83.1372ZM17.0132 54.4338L17.0132 81.1372H21.0132L21.0132 54.4338L17.0132 54.4338Z" fill="#2B2A29" mask="url(#path-5-inside-1)"/>
<path d="M34.1119 74.9749L40.2632 104.759M47.5329 74.9749L54.2435 104.759M62.6316 77.5425L68.783 100.651M76.0527 77.5425L83.3225 100.651" stroke="#2B2A29" stroke-width="3"/>
<path d="M102.5 0.5L84.5 14.5M85 25.5L102.5 13.5M102.5 25L84 37.5M85 48L103 37.5M102.5 48L85 60.5M84.5 71L102.5 59" stroke="#2B2A29"/>
</svg>
