<svg width="107" height="128" viewBox="0 0 107 128" fill="none" xmlns="http://www.w3.org/2000/svg">
<rect x="87.6185" y="1.5" width="16.0132" height="69.9208" stroke="#2B2A29" stroke-width="3"/>
<path d="M26.5656 44.7174L4.41409 36.0613L26.5567 28.7065L84.6185 26.215V44.7174H26.5656Z" stroke="#2B2A29" stroke-width="3"/>
<path d="M9.5 56.5V126" stroke="#2B2A29"/>
<path d="M7.5 37H28H84.5" stroke="#2B2A29"/>
<mask id="path-5-inside-1" fill="white">
<path fill-rule="evenodd" clip-rule="evenodd" d="M19.0132 54.4338H0V127.355H19.0132L19.0132 97.0565H86.1185L106.25 86.786L86.1185 81.1372H19.0132L19.0132 54.4338Z"/>
</mask>
<path d="M0 54.4338V51.4338H-3V54.4338H0ZM19.0132 54.4338L22.0132 54.4338L22.0132 51.4338H19.0132V54.4338ZM0 127.355H-3V130.355H0V127.355ZM19.0132 127.355V130.355H22.0132V127.355H19.0132ZM19.0132 97.0565V94.0565H16.0132V97.0565H19.0132ZM86.1185 97.0565V100.057H86.8396L87.4819 99.7289L86.1185 97.0565ZM106.25 86.786L107.613 89.4583L114.449 85.9708L107.061 83.8976L106.25 86.786ZM86.1185 81.1372L86.929 78.2488L86.5314 78.1372H86.1185V81.1372ZM19.0132 81.1372L16.0132 81.1372L16.0132 84.1372H19.0132V81.1372ZM0 57.4338H19.0132V51.4338H0V57.4338ZM3 127.355V54.4338H-3V127.355H3ZM19.0132 124.355H0V130.355H19.0132V124.355ZM16.0132 97.0565L16.0132 127.355H22.0132L22.0132 97.0565H16.0132ZM86.1185 94.0565H19.0132V100.057H86.1185V94.0565ZM104.887 84.1137L84.7552 94.3842L87.4819 99.7289L107.613 89.4583L104.887 84.1137ZM85.308 84.0257L105.44 89.6745L107.061 83.8976L86.929 78.2488L85.308 84.0257ZM19.0132 84.1372H86.1185V78.1372H19.0132V84.1372ZM16.0132 54.4338L16.0132 81.1372L22.0132 81.1372L22.0132 54.4338L16.0132 54.4338Z" fill="#2B2A29" mask="url(#path-5-inside-1)"/>
<path d="M34.1119 74.9749L40.2632 104.759M47.533 74.9749L54.2435 104.759M62.6317 77.5425L68.783 100.651M76.0527 77.5425L83.3225 100.651" stroke="#2B2A29" stroke-width="5"/>
<path d="M103.5 2.5L87 14.5M87 26.5L103.5 17.5M103.5 31.5L87 40M87 54L103.5 45.5M103.5 60.5L87 71.5" stroke="#2B2A29"/>
</svg>
