<svg width="335" height="350" viewBox="0 0 335 350" fill="none" xmlns="http://www.w3.org/2000/svg">
<rect x="168.039" y="275.45" width="69.1671" height="73.0501" rx="5.5" stroke="#2B2A29" stroke-width="3"/>
<rect x="1.5" y="275.45" width="69.1671" height="73.0501" rx="5.5" stroke="#2B2A29" stroke-width="3"/>
<rect x="84.7697" y="275.45" width="69.1671" height="73.0501" rx="5.5" stroke="#2B2A29" stroke-width="3"/>
<path d="M102.625 243.826C102.625 256.513 90.7785 267.024 75.868 267.024C60.9575 267.024 49.1114 256.513 49.1114 243.826C49.1114 231.139 60.9575 220.628 75.868 220.628C90.7785 220.628 102.625 231.139 102.625 243.826Z" stroke="#2B2A29" stroke-width="2"/>
<path d="M235.931 276.913L334.004 189.505M334.004 189.505V248.271L235.006 348.025M334.004 189.505L293.294 186.068M282.192 145.554L179.955 222.098M282.192 145.554C282.192 145.554 288.668 107.035 250.734 117.899M282.192 145.554C282.192 145.554 315.5 151.48 294.682 184.073L293.294 186.068M250.734 117.899C212.434 142.97 148.96 182.591 148.96 182.591M250.734 117.899C250.734 72.4665 215.576 90.2445 215.576 90.2445L117.965 143.084M152.661 348.025L167.002 332.716M2.77563 275.925L50.887 254.197M70.3166 276.913L108.251 257.16M68.4662 348.025L85.1201 331.728M66.1531 222.098L82.8071 213.209M152.661 277.901L173.478 264.567M86.5079 275.431L114.727 262.098M182.268 268.024L169.315 276.913M208.174 259.135L293.294 186.068M94.3723 182.591L109.176 177.159M150.811 261.11L162.376 253.703M120.278 222.591L135.545 212.221" stroke="#2B2A29"/>
<path d="M158.138 244.814C158.138 257.501 146.292 268.012 131.381 268.012C116.471 268.012 104.624 257.501 104.624 244.814C104.624 232.127 116.471 221.616 131.381 221.616C146.292 221.616 158.138 232.127 158.138 244.814Z" stroke="#2B2A29" stroke-width="2"/>
<path d="M213.651 244.814C213.651 257.501 201.805 268.012 186.894 268.012C171.984 268.012 160.138 257.501 160.138 244.814C160.138 232.127 171.984 221.616 186.894 221.616C201.805 221.616 213.651 232.127 213.651 244.814Z" stroke="#2B2A29" stroke-width="2"/>
<path d="M79.6435 204.32C79.6435 217.085 90.5394 227.517 104.087 227.517C117.635 227.517 128.531 217.085 128.531 204.32C128.531 191.554 117.635 181.122 104.087 181.122C90.5394 181.122 79.6435 191.554 79.6435 204.32Z" stroke="#2B2A29" stroke-width="2"/>
<path d="M187.745 204.32C187.745 217.007 175.899 227.517 160.988 227.517C146.078 227.517 134.232 217.007 134.232 204.32C134.232 191.632 146.078 181.122 160.988 181.122C175.899 181.122 187.745 191.632 187.745 204.32Z" stroke="#2B2A29" stroke-width="2"/>
<path d="M158.138 163.825C158.138 176.513 146.292 187.023 131.381 187.023C116.471 187.023 104.624 176.513 104.624 163.825C104.624 151.138 116.471 140.628 131.381 140.628C146.292 140.628 158.138 151.138 158.138 163.825Z" stroke="#2B2A29" stroke-width="2"/>
<path d="M2.77563 345.062L72.167 299.629M85.1201 345.062L154.512 299.629M169.315 345.062L237.781 299.629" stroke="#2B2A29"/>
<path d="M235.931 275.925L334.004 190.986" stroke="#2B2A29" stroke-width="2"/>
<path d="M237.781 346.049L334.004 247.283" stroke="#2B2A29"/>
<mask id="mask0" mask-type="alpha" maskUnits="userSpaceOnUse" x="29" y="0" width="286" height="261">
<path d="M313.649 32.9599C313.649 -4.5713 115.19 -7.53431 102.237 16.1696C101.563 17.403 101.226 18.5535 101.192 19.6264M313.649 32.9599C313.649 70.4911 313.649 187.035 313.649 187.035M313.649 32.9599C313.649 52.7571 217.187 96.7903 101.192 80.3678M30.5322 260.123V63.1042C54.3207 71.2433 78.3018 77.1269 101.192 80.3678M101.192 80.3678V19.6264M101.192 80.3678C124.412 84.6758 177.254 82.4403 200.772 80.784V32.9599C200.772 32.9599 100.584 39.1728 101.192 19.6264" stroke="black" stroke-width="2"/>
</mask>
<g mask="url(#mask0)">
<path d="M21.28 55.3215C21.28 55.3215 98.0732 88.9021 163.764 82.9761C229.454 77.0501 313.649 30.6299 313.649 30.6299L321.051 36.5559L25.9061 261.743L21.28 55.3215Z" fill="#2B2A29"/>
</g>
<path d="M313.649 32.9599C313.649 -4.5713 115.19 -7.53431 102.237 16.1696C101.563 17.403 101.226 18.5535 101.192 19.6264M313.649 32.9599C313.649 70.4911 313.649 187.035 313.649 187.035M313.649 32.9599C313.649 52.7571 217.187 96.7903 101.192 80.3678M30.5322 260.123V63.1042C54.3207 71.2433 78.3018 77.1269 101.192 80.3678M101.192 80.3678V19.6264M101.192 80.3678C124.412 84.6758 177.254 82.4403 200.772 80.784V32.9599C200.772 32.9599 100.584 39.1728 101.192 19.6264" stroke="#2B2A29" stroke-width="2"/>
<path d="M313.649 36.5559V187.668" stroke="#2B2A29" stroke-width="2"/>
<path d="M203.129 219.156C200.389 219.562 198.95 216.063 201.153 214.347L263.241 166.005C263.441 165.849 263.678 165.747 263.927 165.71C265.372 165.496 266.156 167.318 265.023 168.259L204.476 218.552C204.089 218.874 203.623 219.083 203.129 219.156Z" stroke="#2B2A29"/>
<path d="M149.904 138.345C147.133 138.345 146.156 134.672 148.561 133.296L216.3 94.5317C216.519 94.4063 216.767 94.3403 217.019 94.3403C218.481 94.3403 219.023 96.2575 217.779 97.0236L151.321 137.943C150.895 138.206 150.404 138.345 149.904 138.345Z" stroke="#2B2A29"/>
<path d="M179.718 176.605C176.952 176.761 175.795 173.148 178.128 171.638L243.853 129.108L243.583 128.689L243.853 129.108C244.065 128.971 244.309 128.891 244.561 128.876C246.02 128.794 246.657 130.678 245.453 131.513L181.113 176.124C180.7 176.41 180.218 176.576 179.718 176.605Z" stroke="#2B2A29"/>
<path d="M30.5322 254.83V263.225" stroke="#2B2A29" stroke-width="2"/>
<line x1="286.978" y1="55.1271" x2="286.978" y2="70.9692" stroke="#2B2A29"/>
<path d="M297.039 77.5701V51.1666L304.96 45.8859V89.4516" stroke="#2B2A29"/>
</svg>
