<svg width="144" height="208" viewBox="0 0 144 208" fill="none" xmlns="http://www.w3.org/2000/svg">
<path d="M69.4667 138H2V206.5H69.4667" stroke="#2B2A29" stroke-width="3"/>
<path d="M93 124H34.5116L2 138" stroke="#2B2A29" stroke-width="3"/>
<path d="M71 204.304V137.868L91.5 126.092V187.279L71 204.304Z" stroke="#2B2A29" stroke-width="3"/>
<path d="M2.00003 151.37H70L92 138.5M2.00003 172.475H70L92 158M2.00003 188.485H70L92.5 172.475" stroke="#2B2A29" stroke-width="2"/>
<path d="M71.1114 122.944L65.4298 1.5H92.077L82.8445 122.944H71.1114Z" stroke="#2B2A29" stroke-width="3"/>
<path d="M57.8326 123.767L37.1495 11.4871L64.0575 4.06421L69.4539 123.767H57.8326Z" stroke="#2B2A29" stroke-width="2"/>
<path d="M43.2458 122.944L21.31 17.5103H36.415L56.2279 122.944H43.2458Z" stroke="#2B2A29" stroke-width="3"/>
<path d="M91.5122 25.4709H119.166L102.5 187.029H91.5122" stroke="#2B2A29" stroke-width="2"/>
<path d="M73.5 136.5V149.5M77 133.5V147.5M80 145.5V132M83.5 130V143.5M87.5 141V128M89.5 174.5V160M86 162V177M83.5 179V163.5M80 165.5V181.5M77 183.5V168M73.5 170V186" stroke="#2B2A29"/>
<path d="M20 16.5L41.5 39M25.5 44L46 61M31.5 71L50.5 88.5M36 92.5L53.5 106M40 112L57.5 123" stroke="#2B2A29"/>
<path d="M111.5 25.5L97.5 187.5M99.5 25.5L91 123M54.5 6.5L64.5 123M43.5 9L60 123" stroke="#2B2A29" stroke-width="0.5"/>
<path d="M116.5 46.2668L141.5 50.7668L119 186.5H102.5" stroke="#2B2A29" stroke-width="3"/>
<path d="M9.5 138.5V151M15 151V138.5M23 138.5V151M28 151V138.5M44 151V138.5M52 138.5V151M58 151V138.5M65.5 138.5V151M36.5 138.5V151" stroke="#2B2A29"/>
<path d="M8 172V188M13.5 188V172M21.5 172V188M26.5 188V172M42.5 188V172M50.5 172V188M56.5 188V172M64 172V188M35 172V188" stroke="#2B2A29"/>
<path d="M76 0.5L65.5 19.5M66.5 43L93 0.5M91.5 25.5L67.5 66M88.5 64.5L68.5 91.5M86 97L69.5 118" stroke="#2B2A29"/>
<path d="M127.5 48L137 78M116.5 53L132 107.5M112.5 89L128.5 129.5M109.5 118.5L124 157M106 152.5L120 181.5" stroke="#2B2A29"/>
</svg>
