<svg width="179" height="133" viewBox="0 0 179 133" fill="none" xmlns="http://www.w3.org/2000/svg">
<path d="M9.14902 11.1422C21.7773 -6.53319 32.9819 3.77744 37.0056 11.1422H55.5766" stroke="#2B2A29" stroke-width="2"/>
<path d="M54.5359 11.4999C67.3199 -4.79996 79.2823 4.20834 83.3556 10.9999L101.536 11" stroke="#2B2A29" stroke-width="2"/>
<path d="M101.036 11C106.144 3.93272 120.469 -7.43637 131.536 11" stroke="#2B2A29" stroke-width="2"/>
<path d="M55.0766 62.0549C55.0766 71.1744 54.0404 79.4123 52.3755 85.3545C51.542 88.3291 50.5588 90.7 49.4886 92.3157C48.4054 93.9509 47.3148 94.6963 46.2911 94.6963C45.2674 94.6963 44.1767 93.9509 43.0936 92.3157C42.0233 90.7 41.0401 88.3291 40.2067 85.3545C38.5418 79.4123 37.5056 71.1744 37.5056 62.0549C37.5056 52.9354 38.5418 44.6976 40.2067 38.7554C41.0401 35.7808 42.0233 33.4099 43.0936 31.7942C44.1767 30.159 45.2674 29.4136 46.2911 29.4136C47.3148 29.4136 48.4054 30.159 49.4886 31.7942C50.5588 33.4099 51.542 35.7808 52.3755 38.7554C54.0404 44.6976 55.0766 52.9354 55.0766 62.0549Z" stroke="#2B2A29"/>
<path d="M101.504 60.1337C101.504 69.2532 100.468 77.491 98.8031 83.4332C97.9697 86.4078 96.9865 88.7788 95.9162 90.3945C94.833 92.0296 93.7424 92.775 92.7187 92.775C91.695 92.775 90.6043 92.0296 89.5212 90.3945C88.4509 88.7788 87.4677 86.4078 86.6343 83.4332C84.9694 77.491 83.9332 69.2532 83.9332 60.1337C83.9332 51.0142 84.9694 42.7764 86.6343 36.8341C87.4677 33.8595 88.4509 31.4886 89.5212 29.8729C90.6043 28.2378 91.695 27.4924 92.7187 27.4924C93.7424 27.4924 94.833 28.2378 95.9162 29.8729C96.9865 31.4886 97.9697 33.8595 98.8031 36.8341C100.468 42.7764 101.504 51.0142 101.504 60.1337Z" stroke="#2B2A29"/>
<path d="M10.0359 10.5C4.75352 13.1444 -3.14176 19.2467 9.53591 26.5" stroke="#2B2A29" stroke-width="2"/>
<mask id="mask0" mask-type="alpha" maskUnits="userSpaceOnUse" x="8" y="110" width="126" height="18">
<path d="M9.14902 111.264C21.7773 136.353 32.9819 121.718 37.0056 111.264H55.5766" stroke="black" stroke-width="2"/>
<path d="M54.5358 111.046C67.1642 136.136 79.4095 121.5 83.4332 111.046H102.536" stroke="black" stroke-width="2"/>
<path d="M101.536 111C107.107 121.454 120.575 138.742 132.646 111.471" stroke="black" stroke-width="2"/>
</mask>
<g mask="url(#mask0)">
<rect x="9.14902" y="110.566" width="108.176" height="33.1413" fill="#2B2A29"/>
</g>
<path d="M9.14902 25.5515V96.6372" stroke="#2B2A29" stroke-width="2"/>
<path d="M131.036 10.5C131.036 10.5 150.036 18.9706 132.036 28.5" stroke="#2B2A29" stroke-width="2"/>
<path d="M132.646 26.9924L133.046 70.9999" stroke="#2B2A29" stroke-width="2"/>
<path d="M9.54001 95.5C4.54715 98.7405 -3.81841 106.595 9.53998 112" stroke="#2B2A29" stroke-width="2"/>
<path d="M177.036 95V128H149.036" stroke="black" stroke-width="3"/>
<path d="M97.5364 32.5L85.5364 41M99.5364 41.5L84.5364 51M101.536 59L84.5364 70M101.036 70L85.5364 79.5M98.5359 84L89.0364 90M101.036 50L84.0364 60M143.536 104.5L153.536 116M138.036 104.5L153.536 122.5M133.536 106L151.536 127M129.036 107.5L148.536 130M126.536 111L144.536 132M125.036 116L140.036 132" stroke="#2B2A29"/>
<path d="M50.5364 33.5L39.5364 41.5M53.0364 42L38.0364 51.5M55.0364 59.5L38.0364 70.5M55.0364 70.5L39.0364 80M52.5364 84.5L42.5364 90.5M54.5364 50.5L37.5364 60.5" stroke="#2B2A29"/>
<mask id="mask1" mask-type="alpha" maskUnits="userSpaceOnUse" x="161" y="60" width="16" height="21">
<path d="M175.813 70.0865C175.813 75.3477 172.514 79.173 168.924 79.173C165.335 79.173 162.036 75.3477 162.036 70.0865C162.036 64.8253 165.335 61 168.924 61C172.514 61 175.813 64.8253 175.813 70.0865Z" stroke="black" stroke-width="2"/>
</mask>
<g mask="url(#mask1)">
<rect x="147.232" y="39.3468" width="35.8906" height="30.7398" fill="#2B2A29"/>
</g>
<path d="M132.058 84.8031C132.058 86.058 131.765 87.1696 131.316 87.9502C130.859 88.7444 130.304 89.1062 129.797 89.1062C129.29 89.1062 128.735 88.7444 128.279 87.9502C127.83 87.1696 127.536 86.058 127.536 84.8031C127.536 83.5481 127.83 82.4365 128.279 81.656C128.735 80.8618 129.29 80.5 129.797 80.5C130.304 80.5 130.859 80.8618 131.316 81.656C131.765 82.4365 132.058 83.5481 132.058 84.8031Z" stroke="#2B2A29"/>
<path d="M178.036 95.5C141.536 90 127.536 98 124.536 116" stroke="black" stroke-width="2"/>
<path d="M139.452 87.4015C139.452 88.3594 138.454 89.3031 136.994 89.3031C135.535 89.3031 134.536 88.3594 134.536 87.4015C134.536 86.4437 135.535 85.5 136.994 85.5C138.454 85.5 139.452 86.4437 139.452 87.4015Z" stroke="#2B2A29"/>
<path d="M145.536 94.9998C160.536 91.4999 173.036 103 165.536 127.5M135.536 98.9996C150.536 95.4997 165.536 104 158.036 128.5M155.036 94C170.036 90.5 181.036 107 172.036 127.5" stroke="black"/>
<path d="M170.036 89V74.5H123.536V108.5" stroke="black"/>
<path d="M154.536 117.5C154.536 125.145 147.91 131.5 139.536 131.5C131.162 131.5 124.536 125.145 124.536 117.5C124.536 109.855 131.162 103.5 139.536 103.5C147.91 103.5 154.536 109.855 154.536 117.5Z" stroke="black" stroke-width="3"/>
<mask id="mask2" mask-type="alpha" maskUnits="userSpaceOnUse" x="116" y="68" width="63" height="62">
<path d="M177.036 70H117.79V128.338H177.036V70Z" stroke="black" stroke-width="3"/>
</mask>
<g mask="url(#mask2)">
<rect x="108.011" y="55.621" width="90.3083" height="40.2612" fill="#2B2A29"/>
<rect x="103.036" y="50" width="27.035" height="85.8631" fill="#2B2A29"/>
</g>
</svg>
