<svg width="178" height="186" viewBox="0 0 178 186" fill="none" xmlns="http://www.w3.org/2000/svg">
<path d="M73.8889 28.3171H25.8889V49.7415M25.8889 49.7415H73.8889M25.8889 49.7415H1V78.3073H25.8889M25.8889 103.302H73.8889V78.3073H25.8889M25.8889 103.302V78.3073M25.8889 103.302H1V126.512H25.8889M25.8889 151.507H73.8889V126.512H25.8889M25.8889 151.507V126.512M25.8889 151.507H1V171.146H73.8889" stroke="#2B2A29" stroke-width="2"/>
<path d="M97 31.8878H116.556M116.556 53.3122H97M97 80.0927H116.556M116.556 106.873H97M97 130.083H116.556M116.556 155.078H97M97 169.361H119" stroke="#2B2A29" stroke-width="2"/>
<path d="M137.889 31.8878H153.889M153.889 53.3122H137.889M137.889 80.0927H153.889M153.889 106.873H137.889M137.889 130.083H153.889M153.889 155.078H137.889M137.889 169.361H153.889" stroke="#2B2A29" stroke-width="2"/>
<rect x="75.3889" y="7.5" width="20.1111" height="176.429" rx="10.0556" stroke="#2B2A29" stroke-width="3"/>
<rect x="155.5" y="1.5" width="20.1111" height="176.429" rx="10.0556" stroke="#2B2A29" stroke-width="3"/>
<path d="M101 54V80M108 80V54M114 54V80" stroke="#2B2A29"/>
<path d="M101 106V130M108 130V106M114 106V130" stroke="#2B2A29"/>
<path d="M142 54V80M146.846 80V54M151 54V80" stroke="#2B2A29"/>
<path d="M142 106V130M147.385 130V106M152 106V130" stroke="#2B2A29"/>
<path d="M101 156V169M107.462 169V156M113 156V169" stroke="#2B2A29"/>
<path d="M142 156V169M147.385 169V156M152 156V169" stroke="#2B2A29"/>
<path d="M8 50V77.5M18 77.5V50M28.5 50V77.5M38 77.5V50M50 50V77.5M61.5 77.5V50M70.5 50V77.5" stroke="#2B2A29"/>
<path d="M6 151V171M16.08 171V151M26.664 151V171M36.24 171V151M48.336 151V171M59.928 171V151M69 151V171" stroke="#2B2A29"/>
<path d="M6 104V127M16.08 127V104M26.664 104V127M36.24 127V104M48.336 104V127M59.928 127V104M69 104V127" stroke="#2B2A29"/>
<path d="M86 8V183M128 17V175.5M166 2V178.5" stroke="#2B2A29"/>
<rect x="118.056" y="18.2122" width="20.1111" height="156.79" rx="10.0556" stroke="#2B2A29" stroke-width="3"/>
</svg>
