<svg width="248" height="157" viewBox="0 0 248 157" fill="none" xmlns="http://www.w3.org/2000/svg">
<path d="M96.2717 59.0078L129.103 52.2585M74.5029 18.1373C74.5029 18.1373 200 -1.48553 206.186 1.26417C212.372 4.01386 222.959 15.5126 209.398 29.761C216.059 32.7607 220.461 43.2595 209.398 59.0078M93.7736 100.253L129.103 91.2542M89.4912 138.874L139.095 122.001" stroke="#2B2A29"/>
<path d="M28.938 80.4515C32.5155 78.3926 36.8642 78.1446 40.7239 79.7795L89.9666 100.638C104.856 106.944 106.771 127.583 93.2473 135.991C86.5872 140.132 78.0442 139.762 71.5688 135.053L28.0826 103.426C20.0201 97.5626 20.4759 85.3218 28.938 80.4515Z" stroke="#2B2A29" stroke-width="3"/>
<path d="M28.4262 25.0245C30.9636 21.6286 34.9183 19.5885 39.1341 19.5008L92.0988 18.3988C108.226 18.0633 117.79 36.1616 108.515 49.4633C103.912 56.0637 95.8186 59.2714 88.0092 57.5901L36.3207 46.462C26.6687 44.3841 22.4734 32.9915 28.4262 25.0245Z" stroke="#2B2A29" stroke-width="3"/>
<path d="M30.8067 52.9326C33.9482 50.145 38.2152 48.9855 42.3603 49.7932L94.4419 59.9413C110.299 63.0312 116.165 82.7824 104.509 93.8425C98.7262 99.3304 90.1803 100.756 82.8582 97.4543L34.3915 75.5996C25.3416 71.5188 23.4365 59.4726 30.8067 52.9326Z" stroke="#2B2A29" stroke-width="3"/>
<path d="M129.747 37.9512C131.033 26.2079 139.919 16.4885 151.501 14.6061L179.609 10.0376C195.377 7.47475 209.052 20.2398 208.796 36.3548C208.505 54.6263 210.257 63.2449 214.341 71.6635C216.057 75.2016 218.183 78.7005 220.7 82.8421C221.145 83.5741 221.602 84.3261 222.071 85.102C225.204 90.2829 228.915 96.5872 233.235 105.212C240.164 119.046 231.309 135.532 215.967 138.79L172.692 147.979C163.402 149.952 153.782 146.547 148.603 138.763C135.435 118.974 129.805 102.322 127.913 86.3867C126.101 71.119 127.711 56.4701 129.499 40.2081C129.581 39.4593 129.664 38.7071 129.747 37.9512Z" stroke="#2B2A29" stroke-width="2"/>
<path d="M167.141 128.534L161.656 135.398M170.929 129.3L163.251 145.253M175.669 129.913L174.009 137.766" stroke="#2B2A29"/>
<path d="M149.708 27.3538L144.964 22.7651M148.975 30.2141L137.714 23.4345M148.311 33.8128L142.668 32.0997" stroke="#2B2A29"/>
<path d="M151.501 39.9347C152.874 33.7476 157.477 28.7606 163.483 26.4663C171.075 23.5662 179.053 25.5945 185.433 30.549C191.824 35.5123 196.455 43.3088 197.279 51.5953C198.667 65.5465 202.254 77.9375 206.358 88.3311C209.616 96.5836 209.198 105.043 205.85 111.687C202.514 118.307 196.236 123.205 187.55 124.351C175.388 125.956 163.638 118.859 158.984 107.449C154.661 96.8527 151.087 87.7939 149.432 77.4779C147.782 67.1906 148.032 55.5756 151.501 39.9347Z" stroke="#2B2A29" stroke-width="3"/>
</svg>
