<svg width="141" height="178" viewBox="0 0 141 178" fill="none" xmlns="http://www.w3.org/2000/svg">
<rect x="1.49951" y="1.5" width="137" height="175" stroke="#2B2A29" stroke-width="3"/>
<path d="M116.666 2.13599L61.666 43.432V175.864M139.999 59.096L104.999 81.88V175.864" stroke="#2B2A29" stroke-width="3"/>
<path d="M26.6662 2V176H51.6662V127.976V2H74.9995V32.624L99.9995 14.528V2M61.6662 98.048V49.328H-0.000488281M61.6662 98.048V139.808H-0.000488281M61.6662 98.048H-0.000488281" stroke="#2B2A29"/>
<path d="M120.333 38.804C120.333 38.9904 120.156 39.3092 119.52 39.6109C118.922 39.8947 118.061 40.084 117.083 40.084C116.105 40.084 115.244 39.8947 114.646 39.6109C114.01 39.3092 113.833 38.9904 113.833 38.804C113.833 38.6176 114.01 38.2988 114.646 37.997C115.244 37.7132 116.105 37.524 117.083 37.524C118.061 37.524 118.922 37.7132 119.52 37.997C120.156 38.2988 120.333 38.6176 120.333 38.804Z" stroke="#2B2A29"/>
<path d="M87.8328 72.268C87.8328 72.4544 87.6557 72.7732 87.02 73.075C86.4221 73.3588 85.561 73.548 84.5828 73.548C83.6045 73.548 82.7434 73.3588 82.1455 73.075C81.5098 72.7732 81.3328 72.4544 81.3328 72.268C81.3328 72.0816 81.5098 71.7628 82.1455 71.4611C82.7434 71.1773 83.6045 70.988 84.5828 70.988C85.561 70.988 86.4221 71.1773 87.02 71.4611C87.6557 71.7628 87.8328 72.0816 87.8328 72.268Z" stroke="#2B2A29"/>
<path d="M120.333 68.708C120.333 68.8944 120.156 69.2132 119.52 69.5149C118.922 69.7987 118.061 69.988 117.083 69.988C116.105 69.988 115.244 69.7987 114.646 69.5149C114.01 69.2132 113.833 68.8944 113.833 68.708C113.833 68.5216 114.01 68.2028 114.646 67.901C115.244 67.6172 116.105 67.428 117.083 67.428C118.061 67.428 118.922 67.6172 119.52 67.901C120.156 68.2028 120.333 68.5216 120.333 68.708Z" stroke="#2B2A29"/>
<path d="M87.8328 99.3241C87.8328 99.5105 87.6557 99.8293 87.02 100.131C86.4221 100.415 85.561 100.604 84.5828 100.604C83.6045 100.604 82.7434 100.415 82.1455 100.131C81.5098 99.8293 81.3328 99.5105 81.3328 99.3241C81.3328 99.1377 81.5098 98.8189 82.1455 98.5171C82.7434 98.2333 83.6045 98.0441 84.5828 98.0441C85.561 98.0441 86.4221 98.2333 87.02 98.5171C87.6557 98.8189 87.8328 99.1377 87.8328 99.3241Z" stroke="#2B2A29"/>
<path d="M87.8328 127.092C87.8328 127.278 87.6557 127.597 87.02 127.899C86.4221 128.183 85.561 128.372 84.5828 128.372C83.6045 128.372 82.7434 128.183 82.1455 127.899C81.5098 127.597 81.3328 127.278 81.3328 127.092C81.3328 126.906 81.5098 126.587 82.1455 126.285C82.7434 126.001 83.6045 125.812 84.5828 125.812C85.561 125.812 86.4221 126.001 87.02 126.285C87.6557 126.587 87.8328 126.906 87.8328 127.092Z" stroke="#2B2A29"/>
<path d="M87.8328 158.42C87.8328 158.606 87.6557 158.925 87.02 159.227C86.4221 159.511 85.561 159.7 84.5828 159.7C83.6045 159.7 82.7434 159.511 82.1455 159.227C81.5098 158.925 81.3328 158.606 81.3328 158.42C81.3328 158.234 81.5098 157.915 82.1455 157.613C82.7434 157.329 83.6045 157.14 84.5828 157.14C85.561 157.14 86.4221 157.329 87.02 157.613C87.6557 157.915 87.8328 158.234 87.8328 158.42Z" stroke="#2B2A29"/>
<path d="M87.8328 42.364C87.8328 42.5504 87.6557 42.8693 87.02 43.171C86.4221 43.4548 85.561 43.644 84.5828 43.644C83.6045 43.644 82.7434 43.4548 82.1455 43.171C81.5098 42.8693 81.3328 42.5504 81.3328 42.364C81.3328 42.1777 81.5098 41.8588 82.1455 41.5571C82.7434 41.2733 83.6045 41.084 84.5828 41.084C85.561 41.084 86.4221 41.2733 87.02 41.5571C87.6557 41.8588 87.8328 42.1777 87.8328 42.364Z" stroke="#2B2A29"/>
<path d="M109.166 84.728C111.11 84.728 113.055 84.728 114.999 84.728" stroke="#2B2A29" stroke-linecap="round" stroke-linejoin="round"/>
<path d="M118.333 98.968C120.277 98.968 122.222 98.968 124.166 98.968" stroke="#2B2A29" stroke-linecap="round" stroke-linejoin="round"/>
<path d="M125 112.496C126.944 112.496 128.888 112.496 130.833 112.496" stroke="#2B2A29" stroke-linecap="round" stroke-linejoin="round"/>
<path d="M110.833 128.16C113.055 128.16 115.277 128.16 117.5 128.16" stroke="#2B2A29" stroke-linecap="round" stroke-linejoin="round"/>
<path d="M124.166 143.824C126.388 143.824 128.61 143.824 130.833 143.824" stroke="#2B2A29" stroke-linecap="round" stroke-linejoin="round"/>
<path d="M111.666 156.64C114.444 156.64 117.222 156.64 120 156.64" stroke="#2B2A29" stroke-linecap="round" stroke-linejoin="round"/>
<path d="M121.666 166.608C124.166 166.608 126.666 166.608 129.166 166.608" stroke="#2B2A29" stroke-linecap="round" stroke-linejoin="round"/>
<path d="M125 77.608C127.222 77.608 129.444 77.608 131.666 77.608" stroke="#2B2A29" stroke-linecap="round" stroke-linejoin="round"/>
</svg>
