<svg width="113" height="191" viewBox="0 0 113 191" fill="none" xmlns="http://www.w3.org/2000/svg">
<path d="M3.12936 189.089L2.15125 76.1498L109.168 2.82922L110.773 188.157L3.12936 189.089Z" stroke="#2B2A29" stroke-width="3"/>
<path d="M39.0405 92.2236L109.669 45.1651L110.909 188.365L39.8785 188.981L39.0405 92.2236Z" stroke="#2B2A29" stroke-width="4"/>
<path d="M110.267 114.185L77.4833 114.469L78.1258 188.649L110.909 188.365" stroke="#2B2A29" stroke-width="4"/>
<path d="M26.4563 58.7877L27.5624 186.507M51.2673 84.3766L50.9209 44.3837L111.024 43.8632L110.789 16.7712L90.2995 16.9487M76.7068 24.8075L77.0755 67.3806M2.02518 77.0619L64.86 76.5177M2.24864 102.864L40.4959 102.533M2.48327 129.956L40.7305 129.624M2.71789 157.048L40.9652 156.716" stroke="#2B2A29"/>
<path d="M52.6221 83.0747L39.1969 110.285L39.3869 132.216L78.4303 66.0787L111.024 43.8632L39.655 163.179M68.5528 187.442L79.2683 162.836M111.303 76.1155L89.7938 116.298M79.0001 131.873L46.6972 187.631" stroke="#2B2A29"/>
<path d="M92.5258 116.274L110.429 132.891L110.607 153.533L77.5559 122.855L77.7459 144.786L110.786 174.174L110.92 189.656L77.9135 164.138" stroke="#2B2A29"/>
</svg>
