<svg width="259" height="263" viewBox="0 0 259 263" fill="none" xmlns="http://www.w3.org/2000/svg">
<path d="M210.916 139.142L210.691 215.485L191.288 215.566L190.945 139.225L210.916 139.142Z" stroke="black" stroke-width="2"/>
<path d="M211.726 138.546C211.726 138.546 230.018 54.0064 221.308 20.1759C218.197 8.09503 212.284 3.07626 200.221 2.3107C188.158 1.54513 178.472 7.16294 176.183 20.3649C170.875 50.9897 190.331 138.636 190.331 138.636L211.726 138.546Z" stroke="black" stroke-width="3"/>
<path d="M170.405 249.093L161.069 249.132L161.057 246.48M161.057 246.48L170.393 246.441M161.057 246.48L161.045 243.827M161.045 243.827L170.381 243.788M161.045 243.827L161.032 240.971M161.032 240.971L170.368 240.932M161.032 240.971L161.02 238.319M161.02 238.319L170.356 238.28M161.02 238.319L161.008 235.667M161.008 235.667L170.344 235.628M161.008 235.667L160.996 233.015M160.996 233.015L170.333 232.976M160.996 233.015L160.984 230.159M160.984 230.159L170.32 230.119M160.984 230.159L160.973 227.71M160.973 227.71L170.309 227.671M160.973 227.71L160.962 225.466L170.299 225.427" stroke="black"/>
<path d="M161.27 250.559L170.217 250.522M170.217 250.522L170.094 223.184M170.217 250.522L170.252 258.274L220.044 258.066C229.634 256.665 255.365 240.454 256.813 216.292L170.064 216.655L170.094 223.184M170.094 223.184L161.147 223.221" stroke="black" stroke-width="3"/>
<rect x="-1.50674" y="-1.4937" width="14.1164" height="39.8433" transform="matrix(-0.999991 0.00418664 -0.0045002 -0.99999 158.284 255.33)" stroke="black" stroke-width="3"/>
<path d="M199.252 2.1086L200.911 138.123" stroke="black" stroke-width="2"/>
<rect x="13.2836" y="3.6086" width="132.209" height="72.2078" rx="17.5" stroke="black" stroke-width="3"/>
<path d="M12.0518 42.1128H1V74.9824L86.439 109.629V170.926" stroke="black" stroke-width="2"/>
<path d="M74.9091 174.606C74.9971 173.723 75.0718 172.991 75.1301 172.426H97.6038C97.6641 172.984 97.7415 173.707 97.8325 174.577C98.0652 176.8 98.3875 179.984 98.7456 183.824C99.462 191.505 100.321 201.804 100.894 212.284C101.467 222.774 101.75 233.405 101.324 241.767C101.11 245.954 100.721 249.514 100.121 252.181C99.8205 253.516 99.4781 254.577 99.1055 255.364C98.7234 256.17 98.3713 256.555 98.1283 256.714C93.7221 259.588 89.937 260.73 86.2773 260.63C82.5897 260.528 78.845 259.161 74.5286 256.671C74.357 256.572 74.0404 256.269 73.6751 255.505C73.3221 254.767 72.9939 253.747 72.7047 252.441C72.1271 249.834 71.7523 246.312 71.5466 242.144C71.1359 233.822 71.409 223.161 71.9609 212.614C72.5124 202.077 73.3398 191.694 74.0297 183.943C74.3746 180.068 74.685 176.852 74.9091 174.606Z" stroke="black" stroke-width="3"/>
<path d="M133.721 2.50864C133.721 38.5124 112.568 67.3154 88.9275 75.7163M37.4982 4.50885C35.4244 21.7106 29.6179 26.5111 12.613 29.7115M59.0653 4.50885C51.5998 32.5118 36.2539 46.5132 12.613 50.9137M80.2177 4.50885C80.2177 40.5126 50.3555 69.7157 18.4196 73.7161M106.762 2.50864C106.762 38.5124 84.7799 67.3154 61.1391 75.7163M144.919 34.912C139.527 70.9158 115.057 75.7163 115.057 75.7163" stroke="black"/>
<path d="M85.6095 172.526V260.536" stroke="black" stroke-width="2"/>
</svg>
