<svg width="174" height="178" viewBox="0 0 174 178" fill="none" xmlns="http://www.w3.org/2000/svg">
<rect x="-0.0132189" y="2.15724" width="60.4549" height="60.4815" transform="matrix(-0.699307 0.714821 0.690495 0.723337 128.654 0.863051)" stroke="#2B2A29" stroke-width="3"/>
<rect x="-0.0176252" y="2.87632" width="58.9672" height="58.2258" transform="matrix(-0.699307 0.714821 0.690495 0.723337 42.0174 1.43743)" stroke="#2B2A29" stroke-width="4"/>
<rect x="-0.0132189" y="2.15724" width="60.4549" height="60.4815" transform="matrix(-0.699307 0.714821 0.690495 0.723337 42.8625 86.5856)" stroke="#2B2A29" stroke-width="3"/>
<rect x="-0.0176252" y="2.87632" width="59.4549" height="59.4815" transform="matrix(-0.699307 0.714821 0.690495 0.723337 127.176 86.7877)" stroke="#2B2A29" stroke-width="4"/>
<path d="M118.981 11.3503L162.136 56.4159L150.093 67.1924L109.948 24.0862L95.8978 35.8425L138.05 79.9284M138.05 11.3503L95.8978 56.4159M150.093 24.0862L109.948 67.1924M162.136 35.8425L118.981 79.9284" stroke="#2B2A29"/>
<path d="M33.9582 97.0729L77.1137 142.138L65.0703 152.915L24.9256 109.809L10.875 121.565L53.0269 165.651M53.0269 97.0729L10.875 142.138M65.0703 109.809L24.9256 152.915M77.1137 121.565L33.9582 165.651" stroke="#2B2A29"/>
<path d="M20.8176 61.9333V30.2567H69.6315M20.8176 61.9333H69.6315V30.2567M20.8176 61.9333L31.9117 73.4521M69.6315 30.2567L57.3427 18.7379M82.0569 46.5749H3.95459L29.6928 18.7379M29.6928 18.7379H57.3427M29.6928 18.7379L31.9117 73.4521M57.3427 18.7379L43.0057 5.29929V84.9709L31.9117 73.4521M57.3427 18.7379V73.4521H31.9117" stroke="#2B2A29"/>
<path d="M104.155 147.073V114.594H156.677M104.155 147.073H156.677V114.594M104.155 147.073L116.092 158.883M156.677 114.594L143.454 102.784M170.046 131.325H86.0115L113.705 102.784M113.705 102.784H143.454M113.705 102.784L116.092 158.883M143.454 102.784L128.029 89.0049V170.693L116.092 158.883M143.454 102.784V158.883H116.092" stroke="#2B2A29"/>
<rect x="0.5" y="0.756775" width="173" height="176" stroke="#2B2A29"/>
</svg>
