<svg width="161" height="182" viewBox="0 0 161 182" fill="none" xmlns="http://www.w3.org/2000/svg">
<path d="M2 62V180H159.107V62L80.5537 2L2 62Z" stroke="#2B2A29" stroke-width="3"/>
<path d="M2.89265 61H157.322V81H110.904V109L61.8079 179H36.8136L86.8023 109V81H2.89265" stroke="#2B2A29" stroke-width="3"/>
<path d="M2.89265 106H87.7667L73.3201 128H2.89265V153H53.4559M113.048 106H160V128H98.6017L79.6405 153H160" stroke="#2B2A29"/>
<path d="M89.4802 10L25.209 61H44.8475L99.2994 18L113.582 28L68.9492 61H89.4802L124.294 36L134.113 45L113.582 61H134.113L146.61 52" stroke="#2B2A29"/>
</svg>
