<svg width="148" height="127" viewBox="0 0 148 127" fill="none" xmlns="http://www.w3.org/2000/svg">
<path d="M72.7391 42.8476C48.1944 67.5145 50.1943 1.17078 50.1943 1.17078H111.694C111.694 1.17078 115.263 48.9188 98.454 60.2106C85.72 68.7649 97.2839 18.1807 72.7391 42.8476Z" stroke="#2B2A29" stroke-width="2"/>
<path d="M58.1943 1.67078L49.6943 12.1708M52.1943 26.1708L73.1943 1.67078M54.6943 40.1708L87.6943 1.67078H102.694L63.6943 47.6708M112.694 9.67078L87.6943 40.1708M110.194 31.1708L91.6943 53.6708" stroke="#2B2A29"/>
<mask id="mask0" mask-type="alpha" maskUnits="userSpaceOnUse" x="0" y="0" width="148" height="127">
<path d="M25.3727 119.435C36.0385 126.308 109.351 129.722 120.011 119.403C130.67 109.085 119.987 47.1966 119.987 47.1966L119.979 24.2738L25.341 24.3053L25.3486 47.2281C25.3486 47.2281 14.7069 112.562 25.3727 119.435Z" stroke="black" stroke-width="2"/>
<rect x="13.6462" y="1.25677" width="118.805" height="22.7432" stroke="black" stroke-width="2"/>
<path d="M14.1017 10.4451H1.00233C1.00233 10.4451 -0.453172 68.6644 69.4099 71.5753C139.273 74.4863 146.55 10.4451 146.55 10.4451H133.451" stroke="black" stroke-width="2"/>
</mask>
<g mask="url(#mask0)">
<path d="M-6.26733 -13.3292H53.7327L51.2327 16.1708C51.2327 16.1708 53.7327 37.1708 58.6942 48.6708C62.4071 57.2766 82.6942 38.6708 82.6942 38.6708C82.6942 38.6708 83.9641 58.4807 93.1942 63.6708C108.227 72.1236 110.694 44.6708 110.694 44.6708V-17.8292L145.194 -13.3292L160.694 2.17078L135.194 129.671L-6.26733 135.671V-13.3292Z" fill="#2B2A29"/>
</g>
</svg>
