<svg width="20" height="16" viewBox="0 0 20 16" fill="none" xmlns="http://www.w3.org/2000/svg">
<path d="M17.5585 0H2.44569C1.09663 0 0 1.09663 0 2.44569V12.7747C0 14.1237 1.09663 15.2204 2.44569 15.2204H17.5543C18.9034 15.2204 20 14.1237 20 12.7747V2.44982C20.0041 1.10077 18.9075 0 17.5585 0ZM18.8868 12.7747C18.8868 13.5071 18.2909 14.103 17.5585 14.103H2.44569C1.71322 14.103 1.11732 13.5071 1.11732 12.7747V2.44982C1.11732 1.71736 1.71322 1.12146 2.44569 1.12146H17.5543C18.2868 1.12146 18.8827 1.71736 18.8827 2.44982V12.7747H18.8868Z" fill="white"/>
<path d="M12.6128 7.48204L17.5041 3.09553C17.7317 2.88862 17.7524 2.53687 17.5455 2.30513C17.3386 2.07753 16.9869 2.05684 16.7551 2.26375L10.0098 8.31796L8.69388 7.14271C8.68974 7.13857 8.6856 7.13443 8.6856 7.13029C8.65664 7.10133 8.62767 7.0765 8.59456 7.05167L3.23971 2.25961C3.00797 2.0527 2.65622 2.07339 2.44931 2.30513C2.2424 2.53687 2.26309 2.88862 2.49483 3.09553L7.44414 7.51929L2.51552 12.1334C2.29206 12.3444 2.27964 12.6962 2.49069 12.9238C2.60242 13.0397 2.7514 13.1017 2.90038 13.1017C3.03694 13.1017 3.1735 13.0521 3.28109 12.9528L8.2842 8.27244L9.64153 9.48494C9.74913 9.58012 9.88155 9.62564 10.014 9.62564C10.1464 9.62564 10.283 9.57598 10.3864 9.4808L11.781 8.23106L16.7551 12.9569C16.8627 13.0604 17.0034 13.11 17.14 13.11C17.289 13.11 17.4338 13.0521 17.5455 12.9362C17.7566 12.7127 17.7483 12.3569 17.5248 12.1458L12.6128 7.48204Z" fill="white"/>
</svg>
