<svg width="336" height="350" viewBox="0 0 336 350" fill="none" xmlns="http://www.w3.org/2000/svg">
<rect x="168.039" y="275.45" width="69.1671" height="73.0501" rx="5.5" stroke="#2B2A29" stroke-width="3"/>
<rect x="1.5" y="275.45" width="69.1671" height="73.0501" rx="5.5" stroke="#2B2A29" stroke-width="3"/>
<rect x="84.7697" y="275.45" width="69.1671" height="73.0501" rx="5.5" stroke="#2B2A29" stroke-width="3"/>
<path d="M102.125 243.826C102.125 256.175 90.569 266.524 75.868 266.524C61.1669 266.524 49.6114 256.175 49.6114 243.826C49.6114 231.477 61.1669 221.128 75.868 221.128C90.569 221.128 102.125 231.477 102.125 243.826Z" stroke="#2B2A29" stroke-width="3"/>
<path d="M235.931 276.913L334.004 189.505M334.004 189.505V248.271L235.006 348.025M334.004 189.505L293.294 186.068M282.192 145.554L179.955 222.098M282.192 145.554C282.192 145.554 288.668 107.035 250.734 117.899M282.192 145.554C282.192 145.554 315.5 151.48 294.682 184.073L293.294 186.068M250.734 117.899C212.434 142.97 148.96 182.591 148.96 182.591M250.734 117.899C250.734 72.4665 215.576 90.2445 215.576 90.2445L117.965 143.084M152.661 348.025L167.002 332.716M2.77563 275.925L50.887 254.197M70.3166 276.913L108.251 257.16M68.4662 348.025L85.1201 331.728M66.1531 222.098L82.8071 213.209M152.661 277.901L173.478 264.567M86.5079 275.431L114.727 262.098M182.268 268.024L169.315 276.913M208.174 259.135L293.294 186.068M94.3723 182.591L109.176 177.159M150.811 261.11L162.376 253.703M120.278 222.591L135.545 212.221" stroke="#2B2A29" stroke-width="2.5"/>
<path d="M157.638 244.814C157.638 257.163 146.082 267.512 131.381 267.512C116.68 267.512 105.124 257.163 105.124 244.814C105.124 232.465 116.68 222.116 131.381 222.116C146.082 222.116 157.638 232.465 157.638 244.814Z" stroke="#2B2A29" stroke-width="3"/>
<path d="M213.151 244.814C213.151 257.163 201.595 267.512 186.894 267.512C172.193 267.512 160.638 257.163 160.638 244.814C160.638 232.465 172.193 222.116 186.894 222.116C201.595 222.116 213.151 232.465 213.151 244.814Z" stroke="#2B2A29" stroke-width="3"/>
<path d="M80.1435 204.32C80.1435 216.785 90.7916 227.017 104.087 227.017C117.383 227.017 128.031 216.785 128.031 204.32C128.031 191.854 117.383 181.622 104.087 181.622C90.7916 181.622 80.1435 191.854 80.1435 204.32Z" stroke="#2B2A29" stroke-width="3"/>
<path d="M187.245 204.32C187.245 216.668 175.689 227.017 160.988 227.017C146.287 227.017 134.732 216.668 134.732 204.32C134.732 191.971 146.287 181.622 160.988 181.622C175.689 181.622 187.245 191.971 187.245 204.32Z" stroke="#2B2A29" stroke-width="3"/>
<path d="M157.638 163.825C157.638 176.174 146.082 186.523 131.381 186.523C116.68 186.523 105.124 176.174 105.124 163.825C105.124 151.476 116.68 141.128 131.381 141.128C146.082 141.128 157.638 151.476 157.638 163.825Z" stroke="#2B2A29" stroke-width="3"/>
<path d="M2.77563 345.062L72.167 299.629M85.1201 345.062L154.512 299.629M169.315 345.062L237.781 299.629" stroke="#2B2A29" stroke-width="2"/>
<path d="M235.931 275.925L334.004 190.986" stroke="#2B2A29" stroke-width="2"/>
<path d="M237.781 346.049L334.004 247.283" stroke="#2B2A29"/>
<mask id="mask0" mask-type="alpha" maskUnits="userSpaceOnUse" x="29" y="-1" width="287" height="262">
<path d="M313.649 32.9599C313.649 -4.5713 115.19 -7.53431 102.237 16.1696C101.563 17.403 101.226 18.5535 101.192 19.6264M313.649 32.9599C313.649 70.4911 313.649 187.035 313.649 187.035M313.649 32.9599C313.649 52.7571 217.187 96.7903 101.192 80.3678M30.5322 260.123V63.1042C54.3207 71.2433 78.3018 77.1269 101.192 80.3678M101.192 80.3678V19.6264M101.192 80.3678C124.412 84.6758 177.254 82.4403 200.772 80.784V32.9599C200.772 32.9599 100.584 39.1728 101.192 19.6264" stroke="black" stroke-width="3"/>
</mask>
<g mask="url(#mask0)">
<path d="M21.28 55.3215C21.28 55.3215 98.0732 88.9021 163.764 82.9761C229.454 77.0501 313.649 30.6299 313.649 30.6299L321.051 36.5559L25.9061 261.743L21.28 55.3215Z" fill="#2B2A29"/>
</g>
<path d="M313.649 32.9599C313.649 -4.5713 115.19 -7.53431 102.237 16.1696C101.563 17.403 101.226 18.5535 101.192 19.6264M313.649 32.9599C313.649 70.4911 313.649 187.035 313.649 187.035M313.649 32.9599C313.649 52.7571 217.187 96.7903 101.192 80.3678M30.5322 260.123V63.1042C54.3207 71.2433 78.3018 77.1269 101.192 80.3678M101.192 80.3678V19.6264M101.192 80.3678C124.412 84.6758 177.254 82.4403 200.772 80.784V32.9599C200.772 32.9599 100.584 39.1728 101.192 19.6264" stroke="#2B2A29" stroke-width="2"/>
<path d="M313.649 36.5559V187.668" stroke="#2B2A29" stroke-width="2"/>
<path d="M203.129 219.156C200.389 219.562 198.95 216.063 201.153 214.347L263.241 166.005C263.441 165.849 263.678 165.747 263.927 165.71C265.372 165.496 266.156 167.318 265.023 168.259L204.476 218.552C204.089 218.874 203.623 219.083 203.129 219.156Z" stroke="#2B2A29"/>
<path d="M149.904 138.345C147.133 138.345 146.156 134.672 148.561 133.296L216.3 94.5317C216.519 94.4063 216.767 94.3403 217.019 94.3403C218.481 94.3403 219.023 96.2575 217.779 97.0236L151.321 137.943C150.895 138.206 150.404 138.345 149.904 138.345Z" stroke="#2B2A29"/>
<path d="M179.718 176.605C176.952 176.761 175.795 173.148 178.128 171.638L243.853 129.108L243.583 128.689L243.853 129.108C244.065 128.971 244.309 128.891 244.561 128.876C246.02 128.794 246.657 130.678 245.453 131.513L181.113 176.124C180.7 176.41 180.218 176.576 179.718 176.605Z" stroke="#2B2A29"/>
<path d="M30.5322 254.83V263.225" stroke="#2B2A29" stroke-width="2"/>
<line x1="286.978" y1="55.1271" x2="286.978" y2="70.9692" stroke="#2B2A29"/>
<path d="M297.039 77.5701V51.1666L304.96 45.8859V89.4516" stroke="#2B2A29"/>
</svg>
