<svg width="142" height="208" viewBox="0 0 142 208" fill="none" xmlns="http://www.w3.org/2000/svg">
<path d="M68.4667 138H1V206.5H68.4667" stroke="#2B2A29" stroke-width="2"/>
<path d="M92 124H33.5116L1 138" stroke="#2B2A29" stroke-width="2"/>
<path d="M69.5 205.37V137.579L91 125.228V187.513L69.5 205.37Z" stroke="#2B2A29" stroke-width="2"/>
<path d="M1 151.37H69L91 138.5M1 172.475H69L91 158M1 188.485H69L91.5 172.475" stroke="#2B2A29"/>
<path d="M69.1571 123.944L63.382 0.5H92.1559L82.7713 123.944H69.1571Z" stroke="#2B2A29"/>
<path d="M56.4163 124.267L35.5748 11.127L63.5287 3.41553L68.977 124.267H56.4163Z" stroke="#2B2A29"/>
<path d="M41.4325 123.944L19.0806 16.5103H36.2445L56.4334 123.944H41.4325Z" stroke="#2B2A29"/>
<path d="M90.5122 25.4709H118.166L101.5 187.029H90.5122" stroke="#2B2A29"/>
<path d="M72.5 136.5V149.5M76 133.5V147.5M79 145.5V132M82.5 130V143.5M86.5 141V128M88.5 174.5V160M85 162V177M82.5 179V163.5M79 165.5V181.5M76 183.5V168M72.5 170V186" stroke="#2B2A29"/>
<path d="M19 16.5L40.5 39M24.5 44L45 61M30.5 71L49.5 88.5M35 92.5L52.5 106M39 112L56.5 123" stroke="#2B2A29"/>
<path d="M110.5 25.5L96.5 187.5M98.5 25.5L90 123M53.5 6.5L63.5 123M42.5 9L59 123" stroke="#2B2A29" stroke-width="0.5"/>
<path d="M115.5 46.2668L140.5 50.7668L118 186.5H101.5" stroke="#2B2A29"/>
<path d="M8.5 138.5V151M14 151V138.5M22 138.5V151M27 151V138.5M43 151V138.5M51 138.5V151M57 151V138.5M64.5 138.5V151M35.5 138.5V151" stroke="#2B2A29"/>
<path d="M7 172V188M12.5 188V172M20.5 172V188M25.5 188V172M41.5 188V172M49.5 172V188M55.5 188V172M63 172V188M34 172V188" stroke="#2B2A29"/>
<path d="M75 0.5L64.5 19.5M65.5 43L92 0.5M90.5 25.5L66.5 66M87.5 64.5L67.5 91.5M85 97L68.5 118" stroke="#2B2A29"/>
<path d="M126.5 48L136 78M115.5 53L131 107.5M111.5 89L127.5 129.5M108.5 118.5L123 157M105 152.5L119 181.5" stroke="#2B2A29"/>
</svg>
