<svg width="215" height="145" viewBox="0 0 215 145" fill="none" xmlns="http://www.w3.org/2000/svg">
<path d="M9.11258 11.1422C21.7409 -6.53319 32.9454 3.77744 36.9691 11.1422H55.5402" stroke="#2B2A29" stroke-width="2"/>
<path d="M55.1192 11C67.9032 -5.29987 79.2459 4.20839 83.3192 11H102.119" stroke="#2B2A29" stroke-width="2"/>
<path d="M102.119 11C107.574 3.93272 120.301 -7.43637 132.119 11" stroke="#2B2A29" stroke-width="2"/>
<path d="M55.0402 62.0549C55.0402 71.1744 54.0039 79.4123 52.339 85.3545C51.5056 88.3291 50.5224 90.7 49.4521 92.3157C48.369 93.9509 47.2783 94.6963 46.2546 94.6963C45.2309 94.6963 44.1403 93.9509 43.0571 92.3157C41.9869 90.7 41.0037 88.3291 40.1702 85.3545C38.5053 79.4123 37.4691 71.1744 37.4691 62.0549C37.4691 52.9354 38.5053 44.6976 40.1702 38.7554C41.0037 35.7808 41.9869 33.4099 43.0571 31.7942C44.1403 30.159 45.2309 29.4136 46.2546 29.4136C47.2783 29.4136 48.369 30.159 49.4521 31.7942C50.5224 33.4099 51.5056 35.7808 52.339 38.7554C54.0039 44.6976 55.0402 52.9354 55.0402 62.0549Z" stroke="#2B2A29"/>
<path d="M101.468 60.1337C101.468 69.2532 100.432 77.4911 98.7666 83.4333C97.9332 86.4079 96.95 88.7788 95.8798 90.3945C94.7966 92.0297 93.7059 92.775 92.6822 92.775C91.6586 92.775 90.5679 92.0297 89.4847 90.3945C88.4145 88.7788 87.4313 86.4079 86.5979 83.4333C84.933 77.4911 83.8967 69.2532 83.8967 60.1337C83.8967 51.0142 84.933 42.7764 86.5979 36.8342C87.4313 33.8596 88.4145 31.4887 89.4847 29.873C90.5679 28.2378 91.6586 27.4924 92.6822 27.4924C93.7059 27.4924 94.7966 28.2378 95.8798 29.873C96.95 31.4887 97.9332 33.8596 98.7666 36.8342C100.432 42.7764 101.468 51.0142 101.468 60.1337Z" stroke="#2B2A29"/>
<path d="M9.11919 11C4.59145 13.4889 -1.74739 20.1733 9.11919 27" stroke="#2B2A29" stroke-width="2"/>
<mask id="mask0" mask-type="alpha" maskUnits="userSpaceOnUse" x="8" y="110" width="126" height="18">
<path d="M9.11258 111.264C21.7409 136.353 32.9454 121.718 36.9691 111.264H55.5402" stroke="black" stroke-width="2"/>
<path d="M55.5402 111.046C68.1685 136.136 79.373 121.5 83.3967 111.046H101.968" stroke="black" stroke-width="2"/>
<path d="M101.968 111.471C107.539 121.925 120.539 138.742 132.61 111.471" stroke="black" stroke-width="2"/>
</mask>
<g mask="url(#mask0)">
<rect x="9.11258" y="110.566" width="108.176" height="33.1413" fill="#2B2A29"/>
</g>
<path d="M9.11258 25.5515V96.6372" stroke="#2B2A29" stroke-width="2"/>
<path d="M132.119 11C132.119 11 150.119 19.4706 132.119 29" stroke="#2B2A29" stroke-width="2"/>
<path d="M132.61 26.9924V59.6534" stroke="#2B2A29" stroke-width="2"/>
<path d="M8.50919 95.5861C3.51509 98.8526 -3.13393 106.746 10.2228 112.186" stroke="#2B2A29" stroke-width="2"/>
<path d="M97 33L86 41M99.5 41.5L84.5 51M101.5 59L84.5 70M101.5 70L85.5 79.5M99 84L89 90M101 50L84 60" stroke="#2B2A29"/>
<path d="M50.5 33.5L39.5 41.5M53 42L38 51.5M55 59.5L38 70.5M55 70.5L39 80M52.5 84.5L42.5 90.5M54.5 50.5L37.5 60.5" stroke="#2B2A29"/>
<path d="M205.5 94V67.5H126V120.5H142" stroke="#2B2A29"/>
<path d="M145.5 121L173 139.5L170 142L147 127M149 115L178.5 134.5M180.5 128.5L153.5 110.5M159.5 107.5L180.5 123" stroke="#2B2A29"/>
<mask id="mask1" mask-type="alpha" maskUnits="userSpaceOnUse" x="182" y="49" width="20" height="21">
<path d="M200.323 59.6535C200.323 64.7513 196.537 68.74 192.037 68.74C187.538 68.74 183.752 64.7513 183.752 59.6535C183.752 54.5557 187.538 50.567 192.037 50.567C196.537 50.567 200.323 54.5557 200.323 59.6535Z" stroke="black" stroke-width="2"/>
</mask>
<g mask="url(#mask1)">
<rect x="166.502" y="28.9138" width="42.2491" height="30.7398" fill="#2B2A29"/>
</g>
<path d="M159.619 101C175.119 96 190.119 105 187.119 127.5M200.119 127.5C203.619 121 200.119 93 178.619 95.5" stroke="#2B2A29"/>
<path d="M135.824 74.5431C135.824 75.783 135.483 76.8832 134.958 77.6592C134.431 78.438 133.756 78.8462 133.074 78.8462C132.393 78.8462 131.717 78.438 131.19 77.6592C130.665 76.8832 130.324 75.783 130.324 74.5431C130.324 73.3032 130.665 72.203 131.19 71.427C131.717 70.6481 132.393 70.24 133.074 70.24C133.756 70.24 134.431 70.6481 134.958 71.427C135.483 72.203 135.824 73.3032 135.824 74.5431Z" stroke="#2B2A29"/>
<path d="M148.36 76.9446C148.36 77.3964 148.095 77.8596 147.556 78.2311C147.019 78.6012 146.251 78.8461 145.378 78.8461C144.504 78.8461 143.736 78.6012 143.199 78.2311C142.661 77.8596 142.396 77.3964 142.396 76.9446C142.396 76.4927 142.661 76.0295 143.199 75.658C143.736 75.2879 144.504 75.043 145.378 75.043C146.251 75.043 147.019 75.2879 147.556 75.658C148.095 76.0295 148.36 76.4927 148.36 76.9446Z" stroke="#2B2A29"/>
<path d="M181.226 124.693C181.226 134.806 173.414 142.885 163.922 142.885C154.431 142.885 146.619 134.806 146.619 124.693C146.619 114.579 154.431 106.5 163.922 106.5C173.414 106.5 181.226 114.579 181.226 124.693Z" stroke="#2B2A29" stroke-width="3"/>
<path d="M213.394 102.228C213.394 102.228 156.752 77.2523 146.538 121.441" stroke="#2B2A29" stroke-width="3"/>
<mask id="mask2" mask-type="alpha" maskUnits="userSpaceOnUse" x="116" y="58" width="99" height="72">
<path d="M213.394 60.1339H117.753V128.338H213.394V60.1339Z" stroke="black" stroke-width="3"/>
</mask>
<g mask="url(#mask2)">
<rect x="182.752" y="43.323" width="46.4276" height="94.6208" fill="#2B2A29"/>
<rect x="101.968" y="43.323" width="145.783" height="47.0703" fill="#2B2A29"/>
<rect x="101.968" y="36.1183" width="43.6419" height="100.385" fill="#2B2A29"/>
</g>
</svg>
