<svg width="26" height="26" viewBox="0 0 26 26" fill="none" xmlns="http://www.w3.org/2000/svg">
<path fill-rule="evenodd" clip-rule="evenodd" d="M0.946367 8.12154L0.996327 8C0.979476 8.04041 0.962821 8.08092 0.946367 8.12154Z" fill="#E60000"/>
<path d="M1.0216 18.0602C2.99511 22.7261 7.61522 26 13 26C18.4544 26 23.1243 22.6409 25.0536 17.8785H0.946367C0.971001 17.9393 0.996081 17.9998 1.0216 18.0602Z" fill="#E60000"/>
<path fill-rule="evenodd" clip-rule="evenodd" d="M0.946367 8.12154L0.996327 8C0.979476 8.04041 0.962821 8.08092 0.946367 8.12154Z" fill="#0009E9"/>
<path d="M0 13C0 14.7253 0.336089 16.3721 0.946367 17.8785H25.0536C25.1084 17.7434 25.1609 17.6072 25.2112 17.4698C25.7215 16.0761 26 14.5706 26 13C26 11.2282 25.6455 9.53918 25.0037 8H0.996327L0.946367 8.12154C0.336086 9.62793 0 11.2747 0 13Z" fill="#0009E9"/>
<path d="M0.996327 8H25.0037C23.0446 3.3021 18.4079 0 13 0C7.5921 0 2.95545 3.3021 0.996327 8Z" fill="white"/>
<path fill-rule="evenodd" clip-rule="evenodd" d="M0.946367 8.12154L0.996327 8C0.979476 8.04041 0.962821 8.08092 0.946367 8.12154Z" fill="white"/>
</svg>
