<svg width="199" height="167" viewBox="0 0 199 167" fill="none" xmlns="http://www.w3.org/2000/svg">
<path d="M76.6733 146.169C76.6733 156.901 68.3229 165.5 58.145 165.5C47.9671 165.5 39.6167 156.901 39.6167 146.169C39.6167 135.437 47.9671 126.838 58.145 126.838C68.3229 126.838 76.6733 135.437 76.6733 146.169Z" stroke="#2B2A29" stroke-width="3"/>
<path d="M65.1817 146.346C65.1817 150.817 61.9048 154.202 58.145 154.202C54.3852 154.202 51.1084 150.817 51.1084 146.346C51.1084 141.874 54.3852 138.489 58.145 138.489C61.9048 138.489 65.1817 141.874 65.1817 146.346Z" stroke="#2B2A29" stroke-width="3"/>
<path d="M64.6679 126.449C64.6679 126.449 128.168 120.305 146.019 103.486C163.869 86.6668 138.175 51.4959 136.886 42.9496C135.597 34.4033 177.002 16.9472 177.002 16.9472" stroke="#2B2A29" stroke-width="3"/>
<path d="M153.013 9.09523C153.013 9.09523 117.707 25.0479 117.348 35.1685C116.99 45.2891 120.966 50.4446 120.966 50.4446M126.807 96.4272L132.135 111.205" stroke="#2B2A29" stroke-width="3"/>
<path d="M196.784 12.8826C196.872 13.555 196.416 14.6603 194.656 15.882C192.982 17.0441 190.482 18.0281 187.554 18.4716C184.626 18.9152 181.97 18.7121 180.063 18.0926C178.058 17.4412 177.336 16.5143 177.248 15.8419C177.16 15.1695 177.615 14.0643 179.375 12.8425C181.049 11.6805 183.549 10.6964 186.478 10.2529C189.406 9.80933 192.061 10.0124 193.969 10.6319C195.974 11.2833 196.696 12.2102 196.784 12.8826Z" stroke="#2B2A29" stroke-width="3"/>
<path d="M172.815 5.82129C172.903 6.49369 172.448 7.59891 170.688 8.8207C169.014 9.98271 166.514 10.9667 163.586 11.4103C160.658 11.8539 158.002 11.6508 156.095 11.0313C154.089 10.3799 153.368 9.45295 153.28 8.78055C153.191 8.10815 153.647 7.00293 155.407 5.78115C157.081 4.61913 159.581 3.63511 162.509 3.19155C165.437 2.74799 168.093 2.95108 170 3.57059C172.006 4.22196 172.727 5.1489 172.815 5.82129Z" stroke="#2B2A29" stroke-width="3"/>
<mask id="path-7-inside-1" fill="white">
<ellipse rx="1.95357" ry="0.609434" transform="matrix(-0.416363 -0.909198 0.866827 -0.498609 42.1811 50.3183)"/>
</mask>
<path d="M41.784 49.4513C41.4521 49.6422 41.1932 49.5077 41.1868 49.5044C41.1593 49.4903 41.1918 49.5019 41.276 49.5942C41.436 49.7699 41.648 50.0882 41.8425 50.513L43.5762 49.5158C43.3215 48.9597 43.0085 48.458 42.683 48.1007C42.5243 47.9266 42.3238 47.7436 42.0877 47.6225C41.8725 47.5121 41.4291 47.3581 40.9513 47.6329L41.784 49.4513ZM41.8425 50.513C42.037 50.9378 42.1443 51.3165 42.1783 51.5646C42.1962 51.695 42.1856 51.7314 42.1914 51.6982C42.1928 51.6904 42.2462 51.3762 42.5781 51.1853L43.4108 53.0037C43.8886 52.7289 44.0355 52.2353 44.0809 51.975C44.1308 51.6894 44.115 51.4001 44.0813 51.1542C44.0121 50.6495 43.8309 50.072 43.5762 49.5158L41.8425 50.513ZM42.5781 51.1853C42.91 50.9944 43.1689 51.1289 43.1754 51.1322C43.2028 51.1463 43.1703 51.1347 43.0862 51.0424C42.9261 50.8667 42.7142 50.5484 42.5196 50.1236L40.786 51.1208C41.0407 51.6769 41.3536 52.1786 41.6792 52.5359C41.8378 52.71 42.0383 52.893 42.2744 53.0141C42.4897 53.1245 42.9331 53.2785 43.4108 53.0037L42.5781 51.1853ZM42.5196 50.1236C42.3251 49.6988 42.2179 49.3201 42.1839 49.072C42.166 48.9416 42.1765 48.9052 42.1707 48.9384C42.1693 48.9462 42.1159 49.2604 41.784 49.4513L40.9513 47.6329C40.4735 47.9077 40.3267 48.4012 40.2812 48.6616C40.2313 48.9472 40.2472 49.2365 40.2809 49.4824C40.3501 49.9871 40.5313 50.5646 40.786 51.1208L42.5196 50.1236Z" fill="#2B2A29" mask="url(#path-7-inside-1)"/>
<mask id="path-9-inside-2" fill="white">
<ellipse rx="1.95357" ry="0.609434" transform="matrix(-0.416363 -0.909198 0.866827 -0.498609 58.1971 59.058)"/>
</mask>
<path d="M57.8 58.1911C57.4681 58.382 57.2092 58.2474 57.2027 58.2441C57.1753 58.23 57.2078 58.2416 57.2919 58.334C57.452 58.5096 57.664 58.828 57.8585 59.2528L59.5922 58.2556C59.3375 57.6994 59.0245 57.1977 58.6989 56.8405C58.5403 56.6664 58.3398 56.4833 58.1037 56.3622C57.8885 56.2518 57.4451 56.0978 56.9673 56.3727L57.8 58.1911ZM57.8585 59.2528C58.053 59.6776 58.1603 60.0562 58.1943 60.3043C58.2121 60.4348 58.2016 60.4711 58.2074 60.438C58.2088 60.4301 58.2622 60.1159 58.5941 59.925L59.4268 61.7434C59.9046 61.4686 60.0515 60.9751 60.0969 60.7148C60.1468 60.4291 60.131 60.1399 60.0973 59.8939C60.0281 59.3892 59.8468 58.8117 59.5922 58.2556L57.8585 59.2528ZM58.5941 59.925C58.926 59.7341 59.1849 59.8686 59.1914 59.872C59.2188 59.886 59.1863 59.8744 59.1022 59.7821C58.9421 59.6065 58.7301 59.2881 58.5356 58.8633L56.802 59.8605C57.0566 60.4167 57.3696 60.9184 57.6952 61.2756C57.8538 61.4497 58.0543 61.6328 58.2904 61.7539C58.5057 61.8642 58.949 62.0182 59.4268 61.7434L58.5941 59.925ZM58.5356 58.8633C58.3411 58.4385 58.2339 58.0599 58.1998 57.8117C58.182 57.6813 58.1925 57.645 58.1867 57.6781C58.1853 57.686 58.1319 58.0002 57.8 58.1911L56.9673 56.3727C56.4895 56.6475 56.3427 57.141 56.2972 57.4013C56.2473 57.687 56.2631 57.9762 56.2969 58.2222C56.366 58.7269 56.5473 59.3044 56.802 59.8605L58.5356 58.8633Z" fill="#2B2A29" mask="url(#path-9-inside-2)"/>
<path d="M52.9355 43.2587C54.0331 43.7336 54.373 44.6965 54.0362 45.3119C53.6993 45.9272 52.6371 46.2836 51.5395 45.8088C50.4419 45.3339 50.102 44.3709 50.4388 43.7556C50.7757 43.1403 51.8378 42.7839 52.9355 43.2587Z" stroke="#2B2A29"/>
<path d="M66.3399 52.7045C67.1829 52.2196 68.0779 52.5075 68.3922 53.1938C68.7065 53.88 68.3934 54.8628 67.5503 55.3477C66.7073 55.8326 65.8123 55.5447 65.4981 54.8585C65.1838 54.1722 65.4969 53.1895 66.3399 52.7045Z" stroke="#2B2A29"/>
<mask id="path-13-inside-3" fill="white">
<ellipse rx="1.95357" ry="0.609434" transform="matrix(-0.416363 -0.909198 0.866827 -0.498609 74.0454 49.942)"/>
</mask>
<path d="M73.6484 49.075C73.3165 49.2659 73.0576 49.1313 73.0511 49.128C73.0237 49.114 73.0562 49.1256 73.1403 49.2179C73.3004 49.3935 73.5124 49.7119 73.7069 50.1367L75.4405 49.1395C75.1859 48.5833 74.8729 48.0816 74.5473 47.7244C74.3887 47.5503 74.1882 47.3672 73.9521 47.2461C73.7368 47.1357 73.2935 46.9818 72.8157 47.2566L73.6484 49.075ZM73.7069 50.1367C73.9014 50.5615 74.0086 50.9401 74.0427 51.1883C74.0605 51.3187 74.05 51.355 74.0558 51.3219C74.0572 51.314 74.1106 50.9998 74.4425 50.8089L75.2752 52.6273C75.753 52.3525 75.8998 51.859 75.9453 51.5987C75.9952 51.313 75.9794 51.0238 75.9456 50.7778C75.8765 50.2731 75.6952 49.6956 75.4405 49.1395L73.7069 50.1367ZM74.4425 50.8089C74.7744 50.618 75.0333 50.7526 75.0398 50.7559C75.0672 50.77 75.0347 50.7583 74.9506 50.666C74.7905 50.4904 74.5785 50.172 74.384 49.7472L72.6503 50.7444C72.905 51.3006 73.218 51.8023 73.5436 52.1595C73.7022 52.3336 73.9027 52.5167 74.1388 52.6378C74.354 52.7482 74.7974 52.9021 75.2752 52.6273L74.4425 50.8089ZM74.384 49.7472C74.1895 49.3224 74.0822 48.9438 74.0482 48.6956C74.0304 48.5652 74.0409 48.5289 74.0351 48.562C74.0337 48.5699 73.9803 48.8841 73.6484 49.075L72.8157 47.2566C72.3379 47.5314 72.1911 48.0249 72.1456 48.2852C72.0957 48.5709 72.1115 48.8601 72.1453 49.1061C72.2144 49.6108 72.3957 50.1883 72.6503 50.7444L74.384 49.7472Z" fill="#2B2A29" mask="url(#path-13-inside-3)"/>
<path d="M79.7534 45.1735C80.2722 44.8751 81.1476 45.1507 81.6118 46.1644C82.076 47.178 81.7654 48.1358 81.2466 48.4342C80.7278 48.7326 79.8524 48.457 79.3882 47.4434C78.924 46.4298 79.2346 45.4719 79.7534 45.1735Z" stroke="#2B2A29"/>
<path d="M36.8813 66.0076C37.6877 65.5437 38.5678 65.8272 38.8867 66.5237C39.2057 67.2202 38.8982 68.1869 38.0917 68.6507C37.2852 69.1146 36.4052 68.8311 36.0862 68.1346C35.7672 67.4381 36.0748 66.4715 36.8813 66.0076Z" stroke="#2B2A29"/>
<path d="M21.7837 69.3608C22.145 69.153 22.4999 69.0794 22.77 69.1048C23.0441 69.1307 23.1742 69.2464 23.2224 69.3517C23.2706 69.4569 23.2787 69.6428 23.1376 69.9075C22.9986 70.1683 22.7383 70.4485 22.3769 70.6564C22.0156 70.8642 21.6607 70.9378 21.3906 70.9124C21.1165 70.8865 20.9864 70.7708 20.9382 70.6655C20.89 70.5603 20.8819 70.3744 21.023 70.1097C21.162 69.8489 21.4223 69.5687 21.7837 69.3608Z" stroke="#2B2A29"/>
<mask id="path-18-inside-4" fill="white">
<ellipse rx="0.940172" ry="1.81752" transform="matrix(-0.416363 -0.909198 0.866827 -0.498609 109.967 50.761)"/>
</mask>
<path d="M109.992 50.8154C110.317 50.6282 110.603 50.557 110.776 50.5524C110.861 50.5502 110.882 50.5651 110.859 50.5548C110.828 50.5412 110.737 50.4868 110.676 50.3534L112.409 49.3562C112.066 48.6064 111.317 48.4665 110.833 48.4792C110.294 48.4932 109.704 48.6838 109.159 48.997L109.992 50.8154ZM110.676 50.3534C110.614 50.22 110.628 50.1049 110.636 50.0692C110.642 50.0421 110.641 50.0694 110.59 50.1462C110.486 50.3011 110.268 50.5194 109.942 50.7066L110.775 52.525C111.319 52.2118 111.801 51.7856 112.126 51.3031C112.417 50.8697 112.753 50.1059 112.409 49.3562L110.676 50.3534ZM109.942 50.7066C109.617 50.8939 109.331 50.9651 109.158 50.9696C109.072 50.9719 109.052 50.9569 109.075 50.9673C109.106 50.9809 109.197 51.0352 109.258 51.1687L107.525 52.1659C107.868 52.9156 108.617 53.0556 109.101 53.0429C109.64 53.0288 110.23 52.8383 110.775 52.525L109.942 50.7066ZM109.258 51.1687C109.319 51.3021 109.305 51.4171 109.297 51.4528C109.291 51.48 109.293 51.4527 109.344 51.3759C109.448 51.221 109.666 51.0027 109.992 50.8154L109.159 48.997C108.614 49.3103 108.132 49.7365 107.808 50.2189C107.517 50.6524 107.181 51.4161 107.525 52.1659L109.258 51.1687Z" fill="#2B2A29" mask="url(#path-18-inside-4)"/>
<path d="M124 88C124 88 108.696 112.06 92 114M111.942 92.2687C111.942 92.2687 107.304 102.358 93.3913 108.179" stroke="#2B2A29"/>
<mask id="path-21-inside-5" fill="white">
<ellipse rx="2.20115" ry="0.757718" transform="matrix(0.75455 0.656243 -0.946167 0.323678 99.6222 52.0329)"/>
</mask>
<path d="M100.529 52.8212C100.831 52.7178 101.122 52.7918 101.131 52.7941C101.152 52.7995 101.089 52.7838 100.939 52.7081C100.649 52.562 100.249 52.3007 99.8514 51.9545L97.9591 52.6019C98.4783 53.0534 99.0698 53.4595 99.6406 53.7474C99.9208 53.8887 100.255 54.0317 100.616 54.1246C100.965 54.2145 101.538 54.3047 102.038 54.1336L100.529 52.8212ZM99.8514 51.9545C99.4534 51.6083 99.1961 51.2984 99.0811 51.0925C99.0215 50.9858 99.0231 50.9479 99.0229 50.9606C99.0228 50.966 99.018 51.1413 98.7158 51.2447L97.2067 49.9322C96.7066 50.1033 96.6062 50.4239 96.6026 50.6342C96.5989 50.8518 96.6893 51.0783 96.8006 51.2774C97.0272 51.683 97.4398 52.1503 97.9591 52.6019L99.8514 51.9545ZM98.7158 51.2447C98.4137 51.348 98.1223 51.2741 98.1133 51.2718C98.0923 51.2663 98.1556 51.282 98.3057 51.3577C98.5954 51.5039 98.9949 51.7652 99.3929 52.1113L101.285 51.464C100.766 51.0124 100.175 50.6063 99.6037 50.3184C99.3235 50.1771 98.9891 50.0341 98.6284 49.9412C98.2798 49.8514 97.7068 49.7611 97.2067 49.9322L98.7158 51.2447ZM99.3929 52.1113C99.791 52.4575 100.048 52.7674 100.163 52.9734C100.223 53.08 100.221 53.1179 100.221 53.1052C100.222 53.0998 100.226 52.9245 100.529 52.8212L102.038 54.1336C102.538 53.9626 102.638 53.6419 102.642 53.4316C102.645 53.2141 102.555 52.9876 102.444 52.7885C102.217 52.3828 101.805 51.9156 101.285 51.464L99.3929 52.1113Z" fill="#2B2A29" mask="url(#path-21-inside-5)"/>
<path d="M70.3234 42.1749C69.4118 42.6314 68.054 42.5536 67.2868 42.0497C66.5196 41.5458 66.5681 40.7636 67.4797 40.3071C68.3913 39.8505 69.7491 39.9284 70.5163 40.4323C71.2835 40.9362 71.2351 41.7183 70.3234 42.1749Z" stroke="#2B2A29"/>
<path d="M85.8505 58.2997C85.6549 58.3666 85.3347 58.3652 84.9031 58.2322C84.4746 58.1001 83.9981 57.8529 83.6061 57.512C83.214 57.171 83.0136 56.8295 82.9822 56.5615C82.9505 56.2916 83.0876 56.1338 83.2833 56.0669C83.4789 56 83.799 56.0014 84.2306 56.1344C84.6592 56.2665 85.1356 56.5136 85.5276 56.8546C85.9197 57.1956 86.1201 57.5371 86.1516 57.8051C86.1832 58.0749 86.0461 58.2327 85.8505 58.2997Z" stroke="#2B2A29"/>
<mask id="path-25-inside-6" fill="white">
<ellipse rx="2.20115" ry="0.757718" transform="matrix(0.75455 0.656243 -0.946167 0.323678 57.0548 51.5)"/>
</mask>
<path d="M57.9611 52.2883C58.2632 52.1849 58.5547 52.2589 58.5636 52.2612C58.5847 52.2666 58.5214 52.2509 58.3713 52.1752C58.0815 52.0291 57.6821 51.7678 57.284 51.4216L55.3917 52.069C55.9109 52.5205 56.5024 52.9266 57.0732 53.2145C57.3534 53.3558 57.6879 53.4988 58.0485 53.5917C58.3972 53.6816 58.9701 53.7718 59.4702 53.6008L57.9611 52.2883ZM57.284 51.4216C56.886 51.0754 56.6287 50.7655 56.5137 50.5596C56.4541 50.4529 56.4557 50.415 56.4555 50.4277C56.4554 50.4331 56.4506 50.6084 56.1485 50.7118L54.6394 49.3993C54.1393 49.5704 54.0388 49.891 54.0352 50.1013C54.0316 50.3189 54.122 50.5454 54.2332 50.7445C54.4598 51.1501 54.8725 51.6174 55.3917 52.069L57.284 51.4216ZM56.1485 50.7118C55.8463 50.8151 55.5549 50.7412 55.5459 50.7389C55.5249 50.7334 55.5882 50.7491 55.7383 50.8248C56.028 50.971 56.4275 51.2323 56.8256 51.5784L58.7179 50.9311C58.1986 50.4795 57.6072 50.0734 57.0364 49.7855C56.7562 49.6442 56.4217 49.5012 56.061 49.4083C55.7124 49.3185 55.1395 49.2282 54.6394 49.3993L56.1485 50.7118ZM56.8256 51.5784C57.2236 51.9246 57.4809 52.2345 57.5959 52.4405C57.6555 52.5471 57.6539 52.585 57.6541 52.5723C57.6542 52.5669 57.659 52.3916 57.9611 52.2883L59.4702 53.6008C59.9703 53.4297 60.0708 53.109 60.0743 52.8987C60.078 52.6812 59.9876 52.4547 59.8764 52.2556C59.6498 51.8499 59.2371 51.3827 58.7179 50.9311L56.8256 51.5784Z" fill="#2B2A29" mask="url(#path-25-inside-6)"/>
<path d="M44.7166 57.2763C44.5209 57.3432 44.2008 57.3418 43.7692 57.2088C43.3406 57.0767 42.8642 56.8295 42.4722 56.4886C42.0801 56.1476 41.8797 55.806 41.8483 55.5381C41.8166 55.2682 41.9537 55.1104 42.1494 55.0435C42.345 54.9766 42.6651 54.978 43.0967 55.111C43.5253 55.2431 44.0017 55.4902 44.3937 55.8312C44.7858 56.1722 44.9862 56.5137 45.0177 56.7817C45.0493 57.0515 44.9122 57.2093 44.7166 57.2763Z" stroke="#2B2A29"/>
<mask id="path-28-inside-7" fill="white">
<ellipse rx="2.20115" ry="0.757718" transform="matrix(0.75455 0.656243 -0.946167 0.323678 28.3778 61.3103)"/>
</mask>
<path d="M29.2841 62.0985C29.5862 61.9952 29.8777 62.0691 29.8866 62.0714C29.9077 62.0768 29.8444 62.0611 29.6943 61.9854C29.4045 61.8393 29.0051 61.578 28.607 61.2318L26.7147 61.8792C27.2339 62.3308 27.8254 62.7368 28.3962 63.0247C28.6764 63.1661 29.0109 63.3091 29.3715 63.402C29.7202 63.4918 30.2931 63.5821 30.7932 63.411L29.2841 62.0985ZM28.607 61.2318C28.209 60.8857 27.9517 60.5757 27.8367 60.3698C27.7771 60.2632 27.7787 60.2253 27.7785 60.2379C27.7784 60.2434 27.7736 60.4187 27.4715 60.522L25.9624 59.2095C25.4623 59.3806 25.3618 59.7013 25.3582 59.9116C25.3546 60.1291 25.4449 60.3556 25.5562 60.5547C25.7828 60.9604 26.1955 61.4276 26.7147 61.8792L28.607 61.2318ZM27.4715 60.522C27.1693 60.6254 26.8779 60.5514 26.8689 60.5491C26.8479 60.5437 26.9112 60.5594 27.0613 60.6351C27.351 60.7812 27.7505 61.0425 28.1485 61.3887L30.0409 60.7413C29.5216 60.2897 28.9302 59.8837 28.3594 59.5958C28.0792 59.4545 27.7447 59.3115 27.384 59.2185C27.0354 59.1287 26.4625 59.0384 25.9624 59.2095L27.4715 60.522ZM28.1485 61.3887C28.5466 61.7349 28.8039 62.0448 28.9189 62.2507C28.9785 62.3574 28.9769 62.3953 28.9771 62.3826C28.9772 62.3772 28.982 62.2019 29.2841 62.0985L30.7932 63.411C31.2933 63.2399 31.3938 62.9193 31.3973 62.709C31.401 62.4914 31.3106 62.2649 31.1994 62.0658C30.9728 61.6601 30.5601 61.1929 30.0409 60.7413L28.1485 61.3887Z" fill="#2B2A29" mask="url(#path-28-inside-7)"/>
<mask id="path-30-inside-8" fill="white">
<ellipse rx="2.20115" ry="0.757718" transform="matrix(0.75455 0.656243 -0.946167 0.323678 85.732 41.6897)"/>
</mask>
<path d="M86.6384 42.478C86.9405 42.3746 87.2319 42.4486 87.2409 42.4509C87.2619 42.4563 87.1987 42.4406 87.0486 42.3649C86.7588 42.2188 86.3593 41.9575 85.9613 41.6113L84.0689 42.2587C84.5882 42.7103 85.1796 43.1163 85.7505 43.4042C86.0307 43.5455 86.3651 43.6885 86.7258 43.7815C87.0744 43.8713 87.6474 43.9616 88.1475 43.7905L86.6384 42.478ZM85.9613 41.6113C85.5632 41.2651 85.3059 40.9552 85.1909 40.7493C85.1313 40.6426 85.133 40.6047 85.1328 40.6174C85.1327 40.6228 85.1278 40.7981 84.8257 40.9015L83.3166 39.589C82.8165 39.7601 82.716 40.0807 82.7125 40.291C82.7088 40.5086 82.7992 40.7351 82.9104 40.9342C83.137 41.3399 83.5497 41.8071 84.0689 42.2587L85.9613 41.6113ZM84.8257 40.9015C84.5236 41.0049 84.2322 40.9309 84.2232 40.9286C84.2022 40.9232 84.2654 40.9389 84.4155 41.0146C84.7053 41.1607 85.1048 41.422 85.5028 41.7682L87.3951 41.1208C86.8759 40.6692 86.2844 40.2632 85.7136 39.9753C85.4334 39.8339 85.099 39.6909 84.7383 39.598C84.3897 39.5082 83.8167 39.4179 83.3166 39.589L84.8257 40.9015ZM85.5028 41.7682C85.9008 42.1143 86.1581 42.4243 86.2732 42.6302C86.3327 42.7368 86.3311 42.7747 86.3313 42.7621C86.3314 42.7566 86.3362 42.5813 86.6384 42.478L88.1475 43.7905C88.6476 43.6194 88.748 43.2987 88.7516 43.0885C88.7553 42.8709 88.6649 42.6444 88.5536 42.4453C88.327 42.0396 87.9144 41.5724 87.3951 41.1208L85.5028 41.7682Z" fill="#2B2A29" mask="url(#path-30-inside-8)"/>
<path d="M134.873 58.6731C122.142 50.079 70.548 65.2839 31.0152 75.2001C17.6627 78.5494 -11.8679 83.7942 9.57361 93.7105C31.0151 103.627 37.5693 118.42 49.1064 122.798C66.5277 129.409 98.0199 122.137 112.761 112.221C127.502 102.305 147.604 67.2671 134.873 58.6731Z" stroke="#2B2A29" stroke-width="3"/>
<path d="M4.29834 82.2643C76.0035 63.2786 122.978 49.8435 134.975 58.9619C134.975 58.9619 89.665 28.5983 56.8317 37.0719C23.9983 45.5455 4.29834 82.2643 4.29834 82.2643Z" stroke="#2B2A29" stroke-width="3"/>
<path d="M37.7104 87.741C36.6049 83.6739 32.4594 80.3246 27.4847 81.9992C22.5101 83.6739 21.9573 85.5878 23.3392 87.741C24.721 89.8941 29.9721 90.8511 33.8412 91.808C37.7104 92.765 38.8159 91.808 37.7104 87.741Z" stroke="#2B2A29" stroke-width="3"/>
</svg>
