<svg width="169" height="165" viewBox="0 0 169 165" fill="none" xmlns="http://www.w3.org/2000/svg">
<path d="M8.98932 57.8802C9.10952 57.6471 9.21749 57.4409 9.31131 57.2637H159.413C159.515 57.4367 159.633 57.6398 159.765 57.8708C160.253 58.7239 160.931 59.9564 161.684 61.4634C163.196 64.4852 164.995 68.5747 166.189 72.9024C167.389 77.2535 167.937 81.7029 167.092 85.5095C166.267 89.2247 164.108 92.3945 159.657 94.35C157.391 95.3459 153.631 96.2432 148.626 97.009C143.656 97.7695 137.577 98.3839 130.747 98.859C117.09 99.8091 100.505 100.197 83.9389 100.096C67.3738 99.9946 50.8519 99.4049 37.3233 98.4039C30.5581 97.9033 24.556 97.3009 19.6786 96.608C14.7674 95.9103 11.103 95.1347 8.94819 94.3202C4.84636 92.7696 2.8292 89.8515 2.05022 86.2047C1.25044 82.4605 1.76936 77.9487 2.90739 73.4813C4.03844 69.0414 5.74198 64.7925 7.1723 61.6399C7.88578 60.0674 8.5274 58.776 8.98932 57.8802Z" stroke="#2B2A29" stroke-width="3"/>
<path d="M11 57.7567L15 67.7567M21 57.7567L26 67.7567M34 57.7567L39 67.7567M46.5 57.7567L51.5 67.7567M59 57.7567L64.5 67.7567M72 57.7567L78 67.7567M86.5 57.7567L93 67.7567M100.5 57.7567L106.5 67.7567M114.5 57.7567L121.5 67.7567M129.5 57.7567L136.5 67.7567M143.5 57.7567L150.5 67.7567" stroke="#2B2A29"/>
<rect x="1.66418" y="36.887" width="165.836" height="18.8322" rx="9.41611" stroke="#2B2A29" stroke-width="3"/>
<path d="M75 1.75677L68.5 8.75677M82.5 1.75677L68.5 14.7568M90.5 1.75677L77.5 14.7568M99.5 1.75677L85.5 14.7568M99.5 8.75677L94.5 14.7568" stroke="#2B2A29"/>
<rect x="68.8971" y="15.5432" width="13.9727" height="31.4707" transform="rotate(-90.2031 68.8971 15.5432)" stroke="#2B2A29" stroke-width="2"/>
<rect x="77.3492" y="15.7825" width="15.9213" height="20.2877" stroke="#2B2A29" stroke-width="3"/>
<rect x="80.4879" y="15.2825" width="8.91611" height="7.46063" rx="3" stroke="#2B2A29" stroke-width="2"/>
<path d="M69.7437 19.7575L75.09 34.8754L59.6597 30.5119L69.7437 19.7575Z" stroke="#2B2A29"/>
<path d="M111.061 31.747L96.2629 34.5083L103.476 21.2955L111.061 31.747Z" stroke="#2B2A29"/>
<path d="M74.7614 100.156C74.7614 100.156 74.7614 116.171 74.7614 123.112C74.7614 123.112 75.7164 134.21 72.567 134.59C67.0063 135.259 70.0065 118.298 60.8625 117.558C57.2271 117.263 54.466 119.058 52.4501 123.112C49.3955 129.254 50.6213 137.181 50.6213 137.181L50.6213 163.469H57.205V146.067C57.205 141.254 57.2063 138.168 57.205 134.59C57.2031 129.494 57.8681 127.286 60.131 127.094C62.3939 126.902 62.3256 131.257 63.7886 137.181C65.2517 143.105 71.7815 144.286 74.7614 143.105C80.2478 140.932 81.5415 136.14 82.0768 126.814C82.8015 114.187 82.0768 101.267 82.0768 101.267" stroke="#2B2A29" stroke-width="2"/>
</svg>
