<svg width="33" height="33" viewBox="0 0 33 33" fill="none" xmlns="http://www.w3.org/2000/svg">
<path d="M7.7474 22.5181C7.36976 22.1405 6.75791 22.1405 6.38028 22.5181L0.283272 28.6144C-0.0944238 28.9921 -0.0944238 29.6039 0.283272 29.9816C0.660902 30.3592 1.27276 30.3592 1.65039 29.9816L7.7474 23.8852C8.12503 23.5076 8.12503 22.8957 7.7474 22.5181Z" fill="#BCBCBC"/>
<path d="M5.01317 19.783C4.63554 19.4053 4.02368 19.4053 3.64605 19.783L0.28321 23.1462C-0.0944849 23.5238 -0.0944849 24.1356 0.28321 24.5133C0.660841 24.8909 1.27269 24.8909 1.65033 24.5133L5.01317 21.1501C5.3908 20.7724 5.3908 20.1606 5.01317 19.783Z" fill="#BCBCBC"/>
<path d="M10.4815 25.2522C10.1039 24.8746 9.49206 24.8746 9.11443 25.2522L3.01839 31.3495C2.64076 31.7272 2.64076 32.339 3.01839 32.7167C3.39602 33.0943 4.00788 33.0943 4.38551 32.7167L10.4815 26.6193C10.8592 26.2417 10.8592 25.6298 10.4815 25.2522Z" fill="#BCBCBC"/>
<path d="M13.2167 27.9866C12.839 27.609 12.2272 27.609 11.8496 27.9866L8.48671 31.3498C8.10908 31.7274 8.10908 32.3392 8.48671 32.7169C8.86435 33.0946 9.47613 33.0946 9.85383 32.7169L13.2167 29.3537C13.5943 28.976 13.5943 28.3642 13.2167 27.9866Z" fill="#BCBCBC"/>
<path d="M20.0532 0.641668L6.38021 14.3146C6.06993 14.6248 5.84879 14.9966 5.70648 15.3984H20.1702C20.7036 15.3985 21.137 14.9651 21.137 14.4317V0.000488281C20.7371 0.135389 20.3602 0.334355 20.0532 0.641668Z" fill="#BCBCBC"/>
<path d="M32.358 8.84521L24.1544 0.641682C23.8471 0.334111 23.4768 0.135016 23.077 0.000244141V9.92261H32.9997C32.8574 9.52074 32.6681 9.15536 32.358 8.84521Z" fill="#BCBCBC"/>
<path d="M23.0769 11.8628V14.4318C23.0769 16.0311 21.7694 17.3386 20.1701 17.3386H17.6011V27.2935C18.0032 27.1511 18.3752 26.9299 18.685 26.6196L32.3579 12.9477C32.6683 12.6373 32.8576 12.265 32.9999 11.8629H23.0769V11.8628Z" fill="#BCBCBC"/>
<path d="M5.70654 17.3384C5.84886 17.7402 6.07006 18.1056 6.38021 18.4158L14.5837 26.6193C14.8939 26.9295 15.2593 27.1507 15.6612 27.293V17.3384H5.70654Z" fill="#BCBCBC"/>
</svg>
