<svg width="45" height="45" viewBox="0 0 45 45" fill="none" xmlns="http://www.w3.org/2000/svg">
<path d="M44.6934 16.2148C44.5739 15.8196 44.4424 15.4282 44.3013 15.0406C44.2976 15.0296 44.2938 15.0183 44.2897 15.0077C42.7859 10.9008 40.0774 7.23587 36.5659 4.58885C32.5834 1.58684 27.8349 0 22.8341 0C17.1679 0 11.7248 2.10972 7.50778 5.94086C7.23827 6.1853 7.21802 6.60244 7.46315 6.87195C7.7076 7.14146 8.12439 7.16137 8.39424 6.91658C12.3682 3.30654 17.4961 1.31836 22.8341 1.31836C27.5462 1.31836 32.0203 2.81353 35.7725 5.64148C39.0705 8.12748 41.6169 11.5659 43.0369 15.419C43.1694 16.2732 43.0595 16.9062 42.6997 17.3515C42.2352 17.9269 41.312 18.2514 39.9559 18.3163C39.9466 18.317 39.937 18.3176 39.9277 18.3183C39.7259 18.3286 39.5243 18.3427 39.3232 18.3585C39.2686 17.9324 39.1752 17.5122 39.0423 17.1033C38.3371 14.9335 36.6095 13.2529 34.4209 12.6075L30.7195 11.5164L28.5377 8.33279C27.2478 6.45103 25.1154 5.32734 22.8341 5.32734C20.5523 5.32734 18.4203 6.45103 17.1301 8.33313L14.9486 11.5164L11.2466 12.6078C9.05823 13.2529 7.33097 14.9335 6.62579 17.1033C5.92094 19.2735 6.33053 21.6486 7.72202 23.4565L10.0751 26.5152L9.96906 30.3731C9.91722 32.2559 10.6104 34.0346 11.9212 35.3815C13.2186 36.7149 15.0248 37.4795 16.8771 37.4795H16.8777C17.4652 37.4795 18.0474 37.4047 18.6156 37.2567C18.4649 38.1363 18.365 39.0282 18.3183 39.9288C18.3173 39.9377 18.317 39.9466 18.3163 39.9559C18.2517 41.312 17.9269 42.2352 17.3519 42.6997C16.9062 43.0595 16.2732 43.1694 15.419 43.0369C11.5659 41.6169 8.12782 39.0705 5.64182 35.7725C2.81353 32.0203 1.31836 27.5462 1.31836 22.8341C1.31836 17.8284 3.09334 12.945 6.31611 9.08329C6.54957 8.80383 6.51215 8.3884 6.23268 8.15495C5.95322 7.92183 5.53745 7.95925 5.30434 8.23872C1.88381 12.337 0 17.5201 0 22.8341C0 27.8349 1.58684 32.5834 4.58885 36.5659C7.23587 40.0774 10.9012 42.7859 15.0077 44.2897C15.0183 44.2938 15.0293 44.2976 15.0403 44.3013C15.4282 44.4424 15.8196 44.5739 16.2148 44.6934C16.8963 44.8997 17.5925 45 18.283 45C20.1517 45 21.9771 44.2646 23.3432 42.8982L26.7788 39.4629C27.036 39.2054 27.036 38.7879 26.7788 38.5304C26.5213 38.2733 26.1039 38.2733 25.8464 38.5304L22.4111 41.9661C21.2836 43.0935 19.7737 43.6937 18.2318 43.6806C19.0754 42.9658 19.5471 41.7439 19.6322 40.0438C19.6326 40.0362 19.6333 40.0283 19.6336 40.0204C19.9045 34.6935 22.1326 29.6813 25.9068 25.9068C29.6809 22.1326 34.6935 19.9045 40.0204 19.6336C40.029 19.6333 40.0369 19.6326 40.0452 19.6319C41.7446 19.5467 42.9662 19.075 43.6806 18.2318C43.6937 19.7737 43.0932 21.2836 41.9657 22.4111L28.0299 36.3472C27.7724 36.6047 27.7724 37.0219 28.0299 37.2794C28.1586 37.4081 28.3276 37.4723 28.4961 37.4723C28.6647 37.4723 28.8336 37.4081 28.9624 37.2794L42.8982 23.3432C44.7693 21.4721 45.4573 18.7406 44.6934 16.2148ZM34.1184 19.385C30.6982 20.4857 27.562 22.387 24.9743 24.9743C23.2021 26.7469 21.7516 28.7773 20.6598 30.9794L17.4367 32.1254C16.9135 32.3115 16.3556 32.2311 15.9065 31.9046C15.4571 31.5781 15.2082 31.0724 15.2233 30.5173L15.3517 25.8495C15.3706 25.1673 15.1515 24.4937 14.7354 23.9523L11.8876 20.2516C11.549 19.8111 11.4532 19.2559 11.6249 18.7276C11.7966 18.1995 12.2003 17.8064 12.7332 17.6495L17.2121 16.3291C17.8669 16.1362 18.4399 15.7197 18.8261 15.1567L21.4659 11.3046C21.7797 10.8466 22.2786 10.5836 22.8337 10.5836C23.3892 10.5836 23.8877 10.8466 24.2015 11.3046L26.8417 15.1567C27.2276 15.7197 27.8009 16.1362 28.4553 16.3291L32.9346 17.6495C33.3682 17.7773 33.7222 18.0663 33.9309 18.4629C34.0806 18.7475 34.1445 19.0705 34.1184 19.385ZM35.4343 19.0053C35.4024 18.6067 35.2898 18.2143 35.0979 17.8493C34.7219 17.1346 34.0861 16.6144 33.3075 16.3847L28.8281 15.0643C28.4635 14.9572 28.1442 14.7251 27.9293 14.4113L25.2895 10.5592C24.734 9.74899 23.8163 9.26525 22.8341 9.26525C21.8518 9.26525 20.9338 9.74899 20.3786 10.5592L17.7388 14.4113C17.5235 14.7251 17.2042 14.9572 16.8396 15.0643L12.3603 16.3847C11.4182 16.6625 10.6746 17.3862 10.3711 18.3204C10.0676 19.2546 10.2437 20.277 10.8428 21.0553L13.6903 24.7563C13.9224 25.0578 14.0443 25.433 14.034 25.8131L13.9056 30.4812C13.8785 31.4628 14.3368 32.3939 15.1313 32.971C15.6473 33.3459 16.2608 33.5399 16.8812 33.5399C17.2163 33.5399 17.5537 33.4829 17.8785 33.3675L19.9168 32.6428C19.51 33.6604 19.1753 34.7079 18.9185 35.778L18.7561 35.836C18.1487 36.052 17.5167 36.1615 16.8777 36.1615C16.8774 36.1615 16.8774 36.1615 16.8771 36.1615C15.3788 36.1615 13.9166 35.5421 12.866 34.4621C11.8058 33.3723 11.2449 31.9331 11.2871 30.4091L11.3993 26.3171C11.4035 26.1657 11.3554 26.0173 11.263 25.8972L8.76675 22.6528C7.64065 21.1895 7.309 19.2673 7.8796 17.5108C8.4502 15.7547 9.84821 14.3945 11.6194 13.8723L15.546 12.715C15.6916 12.672 15.8179 12.5804 15.9034 12.4551L18.2177 9.07848C19.2618 7.55516 20.9873 6.64604 22.8341 6.64604C24.6804 6.64604 26.406 7.55516 27.45 9.07848L29.7644 12.4551C29.8502 12.5804 29.9762 12.672 30.1218 12.715L34.0483 13.8723C35.8195 14.3945 37.2179 15.7547 37.7885 17.5108C37.8932 17.8332 37.9681 18.1642 38.0127 18.5003C37.141 18.6194 36.2803 18.788 35.4343 19.0053Z" fill="#476200"/>
</svg>
