<svg width="134" height="191" viewBox="0 0 134 191" fill="none" xmlns="http://www.w3.org/2000/svg">
<rect x="1.66058" y="81" width="43" height="108" stroke="#2B2A29" stroke-width="3"/>
<path d="M24.1606 79.5V45.5H54.1606M54.1606 45.5H84.1606V187.5H44.1606H132.161V1.5H54.1606V45.5Z" stroke="#2B2A29" stroke-width="3"/>
<path d="M1.66058 109L23.6606 81.5H44.1606M44.1606 81.5L1.66058 132.5V155.5L44.1606 109V124.5M44.1606 81.5V98L85.1606 140V164.5L44.1606 124.5M44.1606 124.5V140L1.66058 181.5V189.5H18.1606L44.1606 164.5L63.1606 186.5H82.1606L44.1606 148.5V124.5ZM85.1606 109L23.6606 51V44.5H44.1606L85.1606 81.5V58L73.1606 44.5" stroke="#2B2A29"/>
<path d="M59.6606 1V45H68.6606V1H78.6606M78.6606 1V45M78.6606 1H91.6606V187.5H103.161V1H116.661V187.5" stroke="#2B2A29"/>
</svg>
