<svg width="248" height="158" viewBox="0 0 248 158" fill="none" xmlns="http://www.w3.org/2000/svg">
<path d="M96.2717 60.0078L129.103 53.2585M74.5029 19.1373C74.5029 19.1373 200 -0.485529 206.186 2.26417C212.372 5.01386 222.959 16.5126 209.398 30.761C216.059 33.7607 220.461 44.2595 209.398 60.0078M93.7736 101.253L129.103 92.2542M89.4912 139.874L139.095 123.001" stroke="#2B2A29" stroke-width="3"/>
<path d="M28.938 81.4515C32.5155 79.3926 36.8642 79.1446 40.7239 80.7795L89.9666 101.638C104.856 107.944 106.771 128.583 93.2473 136.991C86.5872 141.132 78.0442 140.762 71.5688 136.053L28.0826 104.426C20.0201 98.5626 20.4759 86.3218 28.938 81.4515Z" stroke="#2B2A29" stroke-width="3"/>
<path d="M28.4261 26.0245C30.9636 22.6286 34.9182 20.5885 39.134 20.5008L92.0987 19.3988C108.226 19.0632 117.79 37.1616 108.515 50.4633C103.912 57.0637 95.8186 60.2714 88.0091 58.5901L36.3206 47.462C26.6687 45.384 22.4733 33.9915 28.4261 26.0245Z" stroke="#2B2A29" stroke-width="3"/>
<path d="M30.8068 53.9325C33.9483 51.1449 38.2153 49.9855 42.3604 50.7932L94.442 60.9413C110.299 64.0311 116.165 83.7824 104.509 94.8425C98.7262 100.33 90.1804 101.756 82.8583 98.4543L34.3916 76.5996C25.3416 72.5188 23.4365 60.4726 30.8068 53.9325Z" stroke="#2B2A29" stroke-width="3"/>
<path d="M130.243 38.999C131.505 27.4733 140.225 17.9453 151.574 16.1007L179.682 11.5323C195.12 9.02301 208.548 21.5218 208.297 37.354C208.006 55.6638 209.76 64.371 213.891 72.8882C215.619 76.449 217.759 79.9709 220.276 84.1113C220.72 84.8426 221.176 85.5931 221.644 86.3666C224.773 91.5418 228.476 97.8337 232.788 106.442C239.556 119.953 230.922 136.104 215.87 139.3L172.595 148.489C163.483 150.424 154.075 147.08 149.019 139.48C135.889 119.748 130.29 103.17 128.408 87.3204C126.603 72.1113 128.207 57.5151 129.997 41.2365C130.079 40.4942 130.161 39.7485 130.243 38.999Z" stroke="#2B2A29" stroke-width="3"/>
<path d="M167.141 129.534L161.656 136.398M170.929 130.3L163.251 146.254M175.669 130.913L174.009 138.766" stroke="#2B2A29"/>
<path d="M149.708 28.3538L144.964 23.7651M148.975 31.2141L137.714 24.4345M148.311 34.8128L142.668 33.0997" stroke="#2B2A29"/>
<path d="M151.989 41.043C153.322 35.0345 157.798 30.1732 163.662 27.9334C171.054 25.1096 178.85 27.07 185.126 31.9439C191.417 36.8296 195.972 44.5049 196.782 52.6448C198.175 66.6513 201.776 79.0878 205.893 89.5146C209.103 97.6458 208.682 105.956 205.403 112.462C202.141 118.936 196.004 123.731 187.484 124.855C175.557 126.43 164.018 119.468 159.447 108.261C155.123 97.6602 151.57 88.6507 149.926 78.3987C148.287 68.1849 148.531 56.6345 151.989 41.043Z" stroke="#2B2A29" stroke-width="4"/>
</svg>
