<svg width="30" height="30" viewBox="0 0 30 30" fill="none" xmlns="http://www.w3.org/2000/svg">
<path d="M0 2C0 0.89543 0.895431 0 2 0H28C29.1046 0 30 0.895431 30 2V28C30 29.1046 29.1046 30 28 30H2C0.89543 30 0 29.1046 0 28V2Z" fill="#0091EA"/>
<g clip-path="url(#clip0)">
<path d="M25 9.79875C24.2563 10.125 23.4637 10.3412 22.6375 10.4462C23.4875 9.93875 24.1363 9.14125 24.4412 8.18C23.6488 8.6525 22.7738 8.98625 21.8412 9.1725C21.0887 8.37125 20.0162 7.875 18.8462 7.875C16.5763 7.875 14.7487 9.7175 14.7487 11.9763C14.7487 12.3012 14.7762 12.6137 14.8438 12.9112C11.435 12.745 8.41875 11.1113 6.3925 8.6225C6.03875 9.23625 5.83125 9.93875 5.83125 10.695C5.83125 12.115 6.5625 13.3737 7.6525 14.1025C6.99375 14.09 6.3475 13.8988 5.8 13.5975C5.8 13.61 5.8 13.6262 5.8 13.6425C5.8 15.635 7.22125 17.29 9.085 17.6712C8.75125 17.7625 8.3875 17.8062 8.01 17.8062C7.7475 17.8062 7.4825 17.7913 7.23375 17.7362C7.765 19.36 9.2725 20.5538 11.065 20.5925C9.67 21.6838 7.89875 22.3412 5.98125 22.3412C5.645 22.3412 5.3225 22.3263 5 22.285C6.81625 23.4563 8.96875 24.125 11.29 24.125C18.835 24.125 22.96 17.875 22.96 12.4575C22.96 12.2762 22.9538 12.1013 22.945 11.9275C23.7588 11.35 24.4425 10.6288 25 9.79875Z" fill="white"/>
</g>
<defs>
<clipPath id="clip0">
<rect width="20" height="20" fill="white" transform="translate(5 6)"/>
</clipPath>
</defs>
</svg>
