<svg width="26" height="26" viewBox="0 0 26 26" fill="none" xmlns="http://www.w3.org/2000/svg">
<path d="M2.28953 5.63388C1.45121 6.85067 0.814107 8.21692 0.427795 9.68537H6.34125L2.28953 5.63388Z" fill="#29337A"/>
<path d="M9.35923 0.520355C7.86142 0.956561 6.47425 1.65261 5.25275 2.56048L9.35923 6.66698V0.520355Z" fill="#29337A"/>
<path d="M5.55814 23.6563C6.7039 24.4581 7.98397 25.0788 9.35923 25.4793V19.8559L5.55814 23.6563Z" fill="#29337A"/>
<path d="M0.576996 16.8385C1.00683 18.2308 1.66551 19.5225 2.50729 20.6716L6.34038 16.8385H0.576996Z" fill="#29337A"/>
<path d="M2.50401 5.33218C2.43134 5.43153 2.35971 5.53231 2.2895 5.63413L6.34122 9.68563H0.427764C0.331928 10.0504 0.25371 10.4221 0.18927 10.799H7.97127L2.50401 5.33218Z" fill="white"/>
<path d="M5.25659 23.4419C5.3555 23.5156 5.45716 23.5857 5.5581 23.6564L9.35919 19.8557V25.4791C9.72437 25.5859 10.0953 25.678 10.4726 25.7521V18.226L5.25659 23.4419Z" fill="white"/>
<path d="M0.288177 15.7251C0.368865 16.1024 0.464098 16.4739 0.576786 16.8385H6.34023L2.50714 20.6716C2.92402 21.2412 3.3863 21.7757 3.88859 22.2699L10.4334 15.7251H0.288177Z" fill="white"/>
<path d="M9.35925 0.520365V6.66699L5.2527 2.56071C4.68657 2.98171 4.15738 3.4491 3.66705 3.95507L10.4724 10.7604V0.247345C10.0953 0.321885 9.72443 0.414264 9.35925 0.520365Z" fill="white"/>
<path d="M9.35925 16.7992L9.32022 16.8385H9.35925V16.7992Z" fill="#D32030"/>
<path d="M10.4336 15.7251H10.4726V15.6859L10.4336 15.7251Z" fill="#D32030"/>
<path d="M15.4365 10.7988H15.399V10.8365L15.4365 10.7988Z" fill="#D32030"/>
<path d="M9.39762 9.68562L9.35925 9.64703V9.68562H9.39762Z" fill="#D32030"/>
<path d="M10.4726 10.7604V10.7988H10.511L10.4726 10.7604Z" fill="#D32030"/>
<path d="M16.5121 22.6015V25.5156C17.9053 25.1256 19.2042 24.5109 20.366 23.7099L17.2084 20.5523C16.9561 21.4389 16.8637 21.8972 16.5121 22.6015Z" fill="#252F6C"/>
<path d="M17.225 5.9539L20.672 2.5069C19.4336 1.60002 18.0288 0.908907 16.5121 0.484009V3.47757C16.9175 4.28938 16.9516 4.90623 17.225 5.9539Z" fill="#252F6C"/>
<path d="M23.4394 20.7473C24.3074 19.5795 24.984 18.2614 25.4234 16.8385H19.5305L23.4394 20.7473Z" fill="#252F6C"/>
<path d="M25.5723 9.68562C25.1777 8.18615 24.5215 6.79427 23.6567 5.55838L19.5291 9.68562H25.5723Z" fill="#252F6C"/>
<path d="M17.9838 15.9454L18.8771 16.8387L23.1532 21.1148C23.2503 20.9932 23.3467 20.8722 23.4396 20.7476L19.5307 16.8387H25.4236C25.5359 16.4744 25.6313 16.1027 25.7118 15.7253H18.0674C18.0549 15.8832 17.9988 15.7886 17.9838 15.9454Z" fill="#E7E7E7"/>
<path d="M17.0899 6.60585L20.9655 2.72983C20.8684 2.65453 20.7711 2.5796 20.672 2.50693L17.225 5.95393C17.2607 6.09022 17.0567 6.46626 17.0899 6.60585Z" fill="#E7E7E7"/>
<path d="M16.5121 3.23807V0.483827C16.1474 0.381623 15.776 0.295008 15.3987 0.224365V1.56784C15.813 2.01694 16.1843 2.58104 16.5121 3.23807Z" fill="#E7E7E7"/>
<path d="M17.8962 10.7988H25.811C25.7467 10.4219 25.6683 10.0504 25.5725 9.68543H19.5293L23.6569 5.55819C23.2511 4.9785 22.8002 4.43334 22.3075 3.92819L17.6583 8.57699C17.7835 9.42026 17.8395 9.90998 17.8962 10.7988Z" fill="#E7E7E7"/>
<path d="M17.0205 20.3641L20.3662 23.7101C20.9226 23.3269 21.4467 22.9003 21.9356 22.4373L17.535 18.0364C17.3945 18.8503 17.2279 19.6364 17.0205 20.3641Z" fill="#E7E7E7"/>
<path d="M15.3989 24.2777V25.775C15.7762 25.7048 16.1473 25.6178 16.5123 25.5156V22.6014C16.1843 23.2587 15.813 23.8292 15.3989 24.2777Z" fill="#E7E7E7"/>
<path d="M17.6583 8.57694L22.3071 3.92814C21.8886 3.4983 21.4398 3.09827 20.9653 2.7298L17.3124 6.38329C17.4747 7.06189 17.5485 7.83863 17.6583 8.57694Z" fill="#D71F28"/>
<path d="M12.3512 0.0160277C12.5678 0.00554383 12.7837 0 12.9998 0C12.7824 0 12.5661 0.00554383 12.3512 0.0160277Z" fill="#D32030"/>
<path d="M12.9998 26C12.7836 26 12.5677 25.9941 12.3515 25.9836C12.5665 25.9944 12.7824 26 12.9998 26Z" fill="#D32030"/>
<path d="M12.9998 26C13.82 26 14.6209 25.9206 15.3989 25.775V24.2776C14.716 25.0178 13.9172 26 12.9998 26Z" fill="#D32030"/>
<path d="M25.8107 10.7988H17.9988C18.1023 12.4292 18.0898 14.1058 17.9614 15.7251H25.7118C25.8994 14.8459 26 13.935 26 13.0002C26 12.2493 25.9331 11.5149 25.8107 10.7988Z" fill="#D71F28"/>
<path d="M17.9838 15.9454C17.9116 16.7135 17.6599 17.312 17.5347 18.0366L21.9354 22.4373C22.3708 22.0246 22.7778 21.5833 23.153 21.1147L18.8771 16.8385L17.9838 15.9454Z" fill="#D71F28"/>
<path d="M15.3989 1.66447V0.224553C14.6212 0.079425 13.8203 0 12.9998 0C13.9172 0 14.716 0.924503 15.3989 1.66447Z" fill="#D32030"/>
<path d="M16.5121 23.1637C16.8637 22.4593 17.1652 21.6483 17.4177 20.7619L16.5121 19.8563V23.1637Z" fill="#29337A"/>
<path d="M17.5304 5.64845C17.2565 4.60077 16.9175 3.64833 16.5121 2.83652V6.66632L17.5304 5.64845Z" fill="#29337A"/>
<path d="M18.2361 16.1974C18.2509 16.0406 18.2642 15.8832 18.277 15.7251H17.7638L18.2361 16.1974Z" fill="white"/>
<path d="M16.5121 6.66638V2.83637C16.1841 2.17934 15.813 1.61486 15.3987 1.16614V8.2966L17.6346 6.06068C17.601 5.92109 17.5656 5.78436 17.5303 5.64807L16.5121 6.66638Z" fill="white"/>
<path d="M15.4365 10.7988H18.3143C18.2578 9.91002 18.1679 9.03558 18.0429 8.19254L15.4365 10.7988Z" fill="white"/>
<path d="M15.3989 24.8337C15.8132 24.3846 16.1843 23.8205 16.5123 23.1635V19.8561L17.4179 20.7617C17.6256 20.0336 17.7999 19.2559 17.9407 18.442L15.399 15.9004L15.3989 24.8337Z" fill="white"/>
<path d="M15.3989 24.8337V15.9004L17.9405 18.4422C18.0655 17.7174 18.1639 16.9657 18.2359 16.1974L17.7636 15.7251H18.2767C18.405 14.1057 18.4175 12.4292 18.3141 10.7988H15.4363L18.0426 8.19251C17.9327 7.45398 17.7969 6.73965 17.6345 6.06083L15.399 8.29675V1.16629C14.716 0.426106 13.9171 0 12.9998 0C12.7836 0 12.5677 0.00554383 12.3512 0.0160277C11.7117 0.0480282 11.0847 0.126685 10.4726 0.247386V10.7604L3.66705 3.95505C3.2489 4.38654 2.85996 4.84629 2.504 5.33217L6.85744 9.68561L7.9712 10.799H0.189259C0.0673493 11.5149 0 12.2493 0 13.0002C0 13.9352 0.100996 14.8459 0.288169 15.7251H10.4336L3.88875 22.2699C4.31732 22.6909 4.77362 23.083 5.25665 23.4418L10.4724 18.226V25.7522C11.0845 25.8729 11.712 25.9515 12.3514 25.9836C12.5675 25.9941 12.7835 26 12.9996 26C13.9171 26 14.716 25.5739 15.3989 24.8337Z" fill="#E51D35"/>
</svg>
