<svg width="31" height="19" viewBox="0 0 31 19" fill="none" xmlns="http://www.w3.org/2000/svg">
<path d="M25.7235 10.8277C25.2224 10.1948 25.3657 9.91322 25.7235 9.34747C25.73 9.34101 29.8672 3.6241 30.2934 1.6853L30.296 1.68401C30.5079 0.977471 30.296 0.458221 29.2717 0.458221H25.8824C25.0196 0.458221 24.6217 0.903846 24.4086 1.40243C24.4086 1.40243 22.683 5.53318 20.2417 8.2108C19.4538 8.98451 19.0895 9.23251 18.6594 9.23251C18.4476 9.23251 18.1182 8.98451 18.1182 8.27797V1.68401C18.1182 0.83668 17.8767 0.458221 17.1624 0.458221H11.833C11.2917 0.458221 10.9701 0.853472 10.9701 1.2216C10.9701 2.02501 12.1907 2.20972 12.3173 4.47014V9.3746C12.3173 10.4493 12.1223 10.6469 11.6896 10.6469C10.5374 10.6469 7.74096 6.49935 6.08375 1.75247C5.74921 0.831513 5.42242 0.459513 4.55312 0.459513H1.1625C0.195042 0.459513 0 0.905138 0 1.40372C0 2.28464 1.15217 6.66468 5.35783 12.4513C8.16075 16.4013 12.1081 18.5416 15.6989 18.5416C17.8573 18.5416 18.1208 18.0662 18.1208 17.2486C18.1208 13.4743 17.9257 13.1178 19.0069 13.1178C19.508 13.1178 20.3709 13.3658 22.3859 15.2711C24.6889 17.5302 25.0674 18.5416 26.3565 18.5416H29.7458C30.7119 18.5416 31.2015 18.0662 30.9199 17.1285C30.2754 15.1561 25.9199 11.099 25.7235 10.8277Z" fill="white"/>
</svg>
