<svg width="72" height="64" viewBox="0 0 72 64" fill="none" xmlns="http://www.w3.org/2000/svg">
<path fill-rule="evenodd" clip-rule="evenodd" d="M22.0813 47.6692C20.6328 48.146 19.1513 47.8776 18.3214 46.8517C17.1634 45.4203 17.7124 43.0563 19.5477 41.5716L52.7783 14.6883C54.6135 13.2036 57.0401 13.1604 58.1981 14.5918C59.028 15.6177 58.9811 17.1226 58.2123 18.4396C59.6607 17.9627 61.1423 18.2312 61.9722 19.2571C62.8021 20.283 62.7552 21.7879 61.9864 23.1048C63.4349 22.628 64.9164 22.8964 65.7463 23.9223C66.5763 24.9482 66.5294 26.4531 65.7606 27.7701C67.209 27.2932 68.6905 27.5617 69.5205 28.5876C70.6785 30.019 70.1294 32.383 68.2942 33.8677L35.0636 60.7509C33.2283 62.2356 30.8018 62.2789 29.6438 60.8474C28.8138 59.8216 28.8607 58.3166 29.6295 56.9997C28.1811 57.4765 26.6996 57.2081 25.8696 56.1822C25.0397 55.1563 25.0866 53.6514 25.8554 52.3345C24.4069 52.8113 22.9254 52.5428 22.0955 51.5169C21.2656 50.4911 21.3125 48.9861 22.0813 47.6692ZM19.967 42.0899L53.1976 15.2067C54.6658 14.0189 56.607 13.9844 57.5334 15.1295C58.4598 16.2746 58.0206 18.1658 56.5524 19.3536L23.3218 46.2368C21.8536 47.4246 19.9124 47.4592 18.986 46.314C18.0596 45.1689 18.4988 43.2777 19.967 42.0899ZM31.2894 56.0857C29.8212 57.2734 29.382 59.1646 30.3084 60.3098C31.2348 61.4549 33.176 61.4203 34.6442 60.2326L67.8748 33.3493C69.343 32.1616 69.7823 30.2704 68.8559 29.1252C67.9295 27.9801 65.9882 28.0147 64.52 29.2025L31.2894 56.0857ZM64.1007 28.6841C65.5689 27.4963 66.0081 25.6051 65.0817 24.46C64.1553 23.3149 62.2141 23.3494 60.7459 24.5372L27.5153 51.4204C26.0471 52.6082 25.6078 54.4994 26.5342 55.6445C27.4606 56.7897 29.4019 56.7551 30.8701 55.5673L64.1007 28.6841ZM61.3076 19.7947C62.234 20.9399 61.7948 22.8311 60.3265 24.0188L27.0959 50.9021C25.6277 52.0898 23.6865 52.1244 22.7601 50.9793C21.8337 49.8341 22.2729 47.943 23.7412 46.7552L56.9717 19.872C58.44 18.6842 60.3812 18.6496 61.3076 19.7947Z" fill="#FFFCFC"/>
<path fill-rule="evenodd" clip-rule="evenodd" d="M6.29804 29.6471C5.09355 29.9266 3.78019 29.5221 2.95026 28.4962C1.79226 27.0648 2.01391 24.9656 3.44532 23.8076L29.3634 2.84019C30.7948 1.68219 32.8939 1.90384 34.0519 3.33525C34.8819 4.36114 35.0031 5.73001 34.4783 6.84958C35.6828 6.57013 36.9961 6.97461 37.8261 8.0005C38.656 9.02639 38.7773 10.3953 38.2524 11.5148C39.4569 11.2354 40.7703 11.6399 41.6002 12.6658C42.4301 13.6916 42.5514 15.0605 42.0266 16.1801C43.2311 15.9006 44.5444 16.3051 45.3743 17.331C46.5323 18.7624 46.3107 20.8616 44.8793 22.0196L18.9612 42.987C17.5298 44.145 15.4307 43.9234 14.2727 42.4919C13.4427 41.4661 13.3215 40.0972 13.8463 38.9776C12.6418 39.2571 11.3285 38.8526 10.4985 37.8267C9.66861 36.8008 9.54733 35.4319 10.0722 34.3124C8.86769 34.5918 7.55434 34.1873 6.7244 33.1614C5.89447 32.1356 5.77319 30.7667 6.29804 29.6471ZM3.86467 24.326L29.7827 3.35856C30.9279 2.43215 32.6072 2.60947 33.5336 3.7546C34.46 4.89973 34.2826 6.57904 33.1375 7.50544L7.21946 28.4729C6.07433 29.3993 4.39502 29.222 3.46862 28.0768C2.54222 26.9317 2.71954 25.2524 3.86467 24.326ZM15.1871 38.3218C14.042 39.2482 13.8646 40.9275 14.791 42.0726C15.7174 43.2177 17.3968 43.395 18.5419 42.4686L44.4599 21.5012C45.6051 20.5748 45.7824 18.8955 44.856 17.7504C43.9296 16.6052 42.2503 16.4279 41.1051 17.3543L15.1871 38.3218ZM40.6858 16.8359C41.8309 15.9095 42.0082 14.2302 41.0818 13.0851C40.1554 11.94 38.4761 11.7627 37.331 12.6891L11.413 33.6565C10.2678 34.5829 10.0905 36.2622 11.0169 37.4073C11.9433 38.5525 13.6226 38.7298 14.7677 37.8034L40.6858 16.8359ZM37.3077 8.41985C38.2341 9.56498 38.0568 11.2443 36.9117 12.1707L10.9936 33.1381C9.84847 34.0645 8.16916 33.8872 7.24276 32.7421C6.31636 31.597 6.49368 29.9177 7.63881 28.9913L33.5569 8.0238C34.702 7.0974 36.3813 7.27472 37.3077 8.41985Z" fill="#FFED00"/>
</svg>
