<svg width="53" height="51" viewBox="0 0 53 51" fill="none" xmlns="http://www.w3.org/2000/svg">
<rect x="1" y="6" width="51" height="34" stroke="white" stroke-width="2"/>
<mask id="path-2-inside-1" fill="white">
<path fill-rule="evenodd" clip-rule="evenodd" d="M22.8916 2.856L22.8916 0L8.2036 -6.42033e-07L8.2036 2.856L11.3176 2.856L11.3176 39.7135L17.0756 51L20.2426 39.7135L20.2426 2.856L22.8916 2.856Z"/>
</mask>
<path d="M22.8916 0L25.8916 1.31134e-07L25.8916 -3L22.8916 -3L22.8916 0ZM22.8916 2.856L22.8916 5.856L25.8916 5.856L25.8916 2.856L22.8916 2.856ZM8.2036 -6.42033e-07L8.2036 -3L5.2036 -3L5.2036 -7.73167e-07L8.2036 -6.42033e-07ZM8.2036 2.856L5.2036 2.856L5.2036 5.856L8.2036 5.856L8.2036 2.856ZM11.3176 2.856L14.3176 2.856L14.3176 -0.143999L11.3176 -0.143999L11.3176 2.856ZM11.3176 39.7135L8.31757 39.7135L8.31757 40.4345L8.64524 41.0768L11.3176 39.7135ZM17.0756 51L14.4033 52.3634L17.8908 59.1994L19.9641 51.8105L17.0756 51ZM20.2426 39.7135L23.131 40.5239L23.2426 40.1264L23.2426 39.7135L20.2426 39.7135ZM20.2426 2.856L20.2426 -0.143999L17.2426 -0.143999L17.2426 2.856L20.2426 2.856ZM19.8916 -1.31134e-07L19.8916 2.856L25.8916 2.856L25.8916 1.31134e-07L19.8916 -1.31134e-07ZM8.2036 3L22.8916 3L22.8916 -3L8.2036 -3L8.2036 3ZM11.2036 2.856L11.2036 -5.10899e-07L5.2036 -7.73167e-07L5.2036 2.856L11.2036 2.856ZM11.3176 -0.143999L8.2036 -0.144L8.2036 5.856L11.3176 5.856L11.3176 -0.143999ZM14.3176 39.7135L14.3176 2.856L8.31757 2.856L8.31757 39.7135L14.3176 39.7135ZM19.748 49.6367L13.9899 38.3501L8.64524 41.0768L14.4033 52.3634L19.748 49.6367ZM17.3541 38.903L14.1872 50.1896L19.9641 51.8105L23.131 40.5239L17.3541 38.903ZM17.2426 2.856L17.2426 39.7135L23.2426 39.7135L23.2426 2.856L17.2426 2.856ZM22.8916 -0.143999L20.2426 -0.143999L20.2426 5.856L22.8916 5.856L22.8916 -0.143999Z" fill="#FFED00" mask="url(#path-2-inside-1)"/>
<path d="M23.6982 10.5565L6.99985 14.0051M23.6982 18.0808L6.99985 21.843M22.2587 26.5458L9.30308 29.9944M22.2587 34.0701L9.30308 38.1459" stroke="#FFED00" stroke-width="4"/>
<mask id="path-5-inside-2" fill="white">
<path fill-rule="evenodd" clip-rule="evenodd" d="M45.8916 2.856L45.8916 0L31.2036 -6.42033e-07L31.2036 2.856L34.3176 2.856L34.3176 39.7135L40.0756 51L43.2426 39.7135L43.2426 2.856L45.8916 2.856Z"/>
</mask>
<path d="M45.8916 0L48.8916 1.31134e-07L48.8916 -3L45.8916 -3L45.8916 0ZM45.8916 2.856L45.8916 5.856L48.8916 5.856L48.8916 2.856L45.8916 2.856ZM31.2036 -6.42033e-07L31.2036 -3L28.2036 -3L28.2036 -7.73167e-07L31.2036 -6.42033e-07ZM31.2036 2.856L28.2036 2.856L28.2036 5.856L31.2036 5.856L31.2036 2.856ZM34.3176 2.856L37.3176 2.856L37.3176 -0.143999L34.3176 -0.143999L34.3176 2.856ZM34.3176 39.7135L31.3176 39.7135L31.3176 40.4345L31.6452 41.0768L34.3176 39.7135ZM40.0756 51L37.4033 52.3634L40.8908 59.1994L42.9641 51.8105L40.0756 51ZM43.2426 39.7135L46.131 40.5239L46.2426 40.1264L46.2426 39.7135L43.2426 39.7135ZM43.2426 2.856L43.2426 -0.143999L40.2426 -0.143999L40.2426 2.856L43.2426 2.856ZM42.8916 -1.31134e-07L42.8916 2.856L48.8916 2.856L48.8916 1.31134e-07L42.8916 -1.31134e-07ZM31.2036 3L45.8916 3L45.8916 -3L31.2036 -3L31.2036 3ZM34.2036 2.856L34.2036 -5.10899e-07L28.2036 -7.73167e-07L28.2036 2.856L34.2036 2.856ZM34.3176 -0.143999L31.2036 -0.144L31.2036 5.856L34.3176 5.856L34.3176 -0.143999ZM37.3176 39.7135L37.3176 2.856L31.3176 2.856L31.3176 39.7135L37.3176 39.7135ZM42.748 49.6367L36.9899 38.3501L31.6452 41.0768L37.4033 52.3634L42.748 49.6367ZM40.3541 38.903L37.1872 50.1896L42.9641 51.8105L46.131 40.5239L40.3541 38.903ZM40.2426 2.856L40.2426 39.7135L46.2426 39.7135L46.2426 2.856L40.2426 2.856ZM45.8916 -0.143999L43.2426 -0.143999L43.2426 5.856L45.8916 5.856L45.8916 -0.143999Z" fill="#FFED00" mask="url(#path-5-inside-2)"/>
<path d="M46.6982 10.5565L29.9999 14.0051M46.6982 18.0808L29.9999 21.843M45.2587 26.5458L32.3031 29.9944M45.2587 34.0701L32.3031 38.1459" stroke="#FFED00" stroke-width="4"/>
</svg>
